%TF.GenerationSoftware,KiCad,Pcbnew,(5.1.8)-1*%
%TF.CreationDate,2022-04-07T10:59:06+02:00*%
%TF.ProjectId,Hardware,48617264-7761-4726-952e-6b696361645f,rev?*%
%TF.SameCoordinates,Original*%
%TF.FileFunction,Legend,Top*%
%TF.FilePolarity,Positive*%
%FSLAX46Y46*%
G04 Gerber Fmt 4.6, Leading zero omitted, Abs format (unit mm)*
G04 Created by KiCad (PCBNEW (5.1.8)-1) date 2022-04-07 10:59:06*
%MOMM*%
%LPD*%
G01*
G04 APERTURE LIST*
%ADD10C,0.120000*%
%ADD11C,0.080000*%
%ADD12C,0.150000*%
%ADD13C,0.152400*%
%ADD14C,5.200000*%
%ADD15C,0.100000*%
%ADD16C,0.200000*%
%ADD17C,0.127000*%
%ADD18C,0.254000*%
%ADD19C,0.010000*%
%ADD20C,1.152400*%
%ADD21C,1.676400*%
%ADD22C,2.057400*%
%ADD23O,1.552400X1.852400*%
%ADD24C,2.652400*%
%ADD25C,3.152400*%
G04 APERTURE END LIST*
D10*
X64300238Y-122497857D02*
X64414523Y-122535952D01*
X64452619Y-122574047D01*
X64490714Y-122650238D01*
X64490714Y-122764523D01*
X64452619Y-122840714D01*
X64414523Y-122878809D01*
X64338333Y-122916904D01*
X64033571Y-122916904D01*
X64033571Y-122116904D01*
X64300238Y-122116904D01*
X64376428Y-122155000D01*
X64414523Y-122193095D01*
X64452619Y-122269285D01*
X64452619Y-122345476D01*
X64414523Y-122421666D01*
X64376428Y-122459761D01*
X64300238Y-122497857D01*
X64033571Y-122497857D01*
X64795476Y-122688333D02*
X65176428Y-122688333D01*
X64719285Y-122916904D02*
X64985952Y-122116904D01*
X65252619Y-122916904D01*
X65519285Y-122116904D02*
X65519285Y-122764523D01*
X65557380Y-122840714D01*
X65595476Y-122878809D01*
X65671666Y-122916904D01*
X65824047Y-122916904D01*
X65900238Y-122878809D01*
X65938333Y-122840714D01*
X65976428Y-122764523D01*
X65976428Y-122116904D01*
X66357380Y-122916904D02*
X66357380Y-122116904D01*
X66547857Y-122116904D01*
X66662142Y-122155000D01*
X66738333Y-122231190D01*
X66776428Y-122307380D01*
X66814523Y-122459761D01*
X66814523Y-122574047D01*
X66776428Y-122726428D01*
X66738333Y-122802619D01*
X66662142Y-122878809D01*
X66547857Y-122916904D01*
X66357380Y-122916904D01*
X65405000Y-120015000D02*
X65405000Y-121285000D01*
X63500000Y-121285000D02*
X67310000Y-121285000D01*
X63500000Y-123825000D02*
X63500000Y-120015000D01*
X67310000Y-123825000D02*
X63500000Y-123825000D01*
X67310000Y-120015000D02*
X67310000Y-123825000D01*
X63500000Y-120015000D02*
X67310000Y-120015000D01*
X49314166Y-122751904D02*
X49466547Y-122751904D01*
X49542738Y-122790000D01*
X49618928Y-122866190D01*
X49657023Y-123018571D01*
X49657023Y-123285238D01*
X49618928Y-123437619D01*
X49542738Y-123513809D01*
X49466547Y-123551904D01*
X49314166Y-123551904D01*
X49237976Y-123513809D01*
X49161785Y-123437619D01*
X49123690Y-123285238D01*
X49123690Y-123018571D01*
X49161785Y-122866190D01*
X49237976Y-122790000D01*
X49314166Y-122751904D01*
X49885595Y-123018571D02*
X50190357Y-123018571D01*
X49999880Y-123551904D02*
X49999880Y-122866190D01*
X50037976Y-122790000D01*
X50114166Y-122751904D01*
X50190357Y-122751904D01*
X50342738Y-123018571D02*
X50647500Y-123018571D01*
X50457023Y-123551904D02*
X50457023Y-122866190D01*
X50495119Y-122790000D01*
X50571309Y-122751904D01*
X50647500Y-122751904D01*
X49428452Y-122281904D02*
X49161785Y-121900952D01*
X48971309Y-122281904D02*
X48971309Y-121481904D01*
X49276071Y-121481904D01*
X49352261Y-121520000D01*
X49390357Y-121558095D01*
X49428452Y-121634285D01*
X49428452Y-121748571D01*
X49390357Y-121824761D01*
X49352261Y-121862857D01*
X49276071Y-121900952D01*
X48971309Y-121900952D01*
X50076071Y-122243809D02*
X49999880Y-122281904D01*
X49847500Y-122281904D01*
X49771309Y-122243809D01*
X49733214Y-122167619D01*
X49733214Y-121862857D01*
X49771309Y-121786666D01*
X49847500Y-121748571D01*
X49999880Y-121748571D01*
X50076071Y-121786666D01*
X50114166Y-121862857D01*
X50114166Y-121939047D01*
X49733214Y-122015238D01*
X50418928Y-122243809D02*
X50495119Y-122281904D01*
X50647500Y-122281904D01*
X50723690Y-122243809D01*
X50761785Y-122167619D01*
X50761785Y-122129523D01*
X50723690Y-122053333D01*
X50647500Y-122015238D01*
X50533214Y-122015238D01*
X50457023Y-121977142D01*
X50418928Y-121900952D01*
X50418928Y-121862857D01*
X50457023Y-121786666D01*
X50533214Y-121748571D01*
X50647500Y-121748571D01*
X50723690Y-121786666D01*
D11*
X53022500Y-120015000D02*
X53022500Y-123825000D01*
D10*
X100863333Y-121011904D02*
X100406190Y-121011904D01*
X100634761Y-121011904D02*
X100634761Y-120211904D01*
X100558571Y-120326190D01*
X100482380Y-120402380D01*
X100406190Y-120440476D01*
X103276428Y-120288095D02*
X103314523Y-120250000D01*
X103390714Y-120211904D01*
X103581190Y-120211904D01*
X103657380Y-120250000D01*
X103695476Y-120288095D01*
X103733571Y-120364285D01*
X103733571Y-120440476D01*
X103695476Y-120554761D01*
X103238333Y-121011904D01*
X103733571Y-121011904D01*
D11*
X101917500Y-120015000D02*
X101917500Y-121285000D01*
X96837500Y-121285000D02*
X104775000Y-121285000D01*
D10*
X96837500Y-118745000D02*
X96837500Y-120015000D01*
X104775000Y-118745000D02*
X96837500Y-118745000D01*
X104775000Y-120015000D02*
X104775000Y-118745000D01*
X92075000Y-114300000D02*
X92075000Y-113982500D01*
X92392500Y-113982500D02*
X92075000Y-114300000D01*
X92075000Y-113982500D02*
X92392500Y-113982500D01*
X94932500Y-117475000D02*
X92075000Y-113982500D01*
X96520000Y-117475000D02*
X94932500Y-117475000D01*
X96837500Y-117792500D02*
X96520000Y-117475000D01*
X96837500Y-118745000D02*
X96837500Y-117792500D01*
X100622261Y-122281904D02*
X100622261Y-121481904D01*
X101079404Y-122281904D01*
X101079404Y-121481904D01*
X101574642Y-122281904D02*
X101498452Y-122243809D01*
X101460357Y-122205714D01*
X101422261Y-122129523D01*
X101422261Y-121900952D01*
X101460357Y-121824761D01*
X101498452Y-121786666D01*
X101574642Y-121748571D01*
X101688928Y-121748571D01*
X101765119Y-121786666D01*
X101803214Y-121824761D01*
X101841309Y-121900952D01*
X101841309Y-122129523D01*
X101803214Y-122205714D01*
X101765119Y-122243809D01*
X101688928Y-122281904D01*
X101574642Y-122281904D01*
X102184166Y-121748571D02*
X102184166Y-122281904D01*
X102184166Y-121824761D02*
X102222261Y-121786666D01*
X102298452Y-121748571D01*
X102412738Y-121748571D01*
X102488928Y-121786666D01*
X102527023Y-121862857D01*
X102527023Y-122281904D01*
X103212738Y-122243809D02*
X103136547Y-122281904D01*
X102984166Y-122281904D01*
X102907976Y-122243809D01*
X102869880Y-122167619D01*
X102869880Y-121862857D01*
X102907976Y-121786666D01*
X102984166Y-121748571D01*
X103136547Y-121748571D01*
X103212738Y-121786666D01*
X103250833Y-121862857D01*
X103250833Y-121939047D01*
X102869880Y-122015238D01*
X99765119Y-123551904D02*
X99307976Y-123551904D01*
X99536547Y-123551904D02*
X99536547Y-122751904D01*
X99460357Y-122866190D01*
X99384166Y-122942380D01*
X99307976Y-122980476D01*
X100069880Y-122828095D02*
X100107976Y-122790000D01*
X100184166Y-122751904D01*
X100374642Y-122751904D01*
X100450833Y-122790000D01*
X100488928Y-122828095D01*
X100527023Y-122904285D01*
X100527023Y-122980476D01*
X100488928Y-123094761D01*
X100031785Y-123551904D01*
X100527023Y-123551904D01*
X101022261Y-122751904D02*
X101098452Y-122751904D01*
X101174642Y-122790000D01*
X101212738Y-122828095D01*
X101250833Y-122904285D01*
X101288928Y-123056666D01*
X101288928Y-123247142D01*
X101250833Y-123399523D01*
X101212738Y-123475714D01*
X101174642Y-123513809D01*
X101098452Y-123551904D01*
X101022261Y-123551904D01*
X100946071Y-123513809D01*
X100907976Y-123475714D01*
X100869880Y-123399523D01*
X100831785Y-123247142D01*
X100831785Y-123056666D01*
X100869880Y-122904285D01*
X100907976Y-122828095D01*
X100946071Y-122790000D01*
X101022261Y-122751904D01*
X102393690Y-122751904D02*
X102546071Y-122751904D01*
X102622261Y-122790000D01*
X102698452Y-122866190D01*
X102736547Y-123018571D01*
X102736547Y-123285238D01*
X102698452Y-123437619D01*
X102622261Y-123513809D01*
X102546071Y-123551904D01*
X102393690Y-123551904D01*
X102317500Y-123513809D01*
X102241309Y-123437619D01*
X102203214Y-123285238D01*
X102203214Y-123018571D01*
X102241309Y-122866190D01*
X102317500Y-122790000D01*
X102393690Y-122751904D01*
X103079404Y-123551904D02*
X103079404Y-122751904D01*
X103422261Y-123551904D02*
X103422261Y-123132857D01*
X103384166Y-123056666D01*
X103307976Y-123018571D01*
X103193690Y-123018571D01*
X103117500Y-123056666D01*
X103079404Y-123094761D01*
X103803214Y-123551904D02*
X103803214Y-123018571D01*
X103803214Y-123094761D02*
X103841309Y-123056666D01*
X103917500Y-123018571D01*
X104031785Y-123018571D01*
X104107976Y-123056666D01*
X104146071Y-123132857D01*
X104146071Y-123551904D01*
X104146071Y-123132857D02*
X104184166Y-123056666D01*
X104260357Y-123018571D01*
X104374642Y-123018571D01*
X104450833Y-123056666D01*
X104488928Y-123132857D01*
X104488928Y-123551904D01*
D11*
X96837500Y-122555000D02*
X104775000Y-122555000D01*
D10*
X104775000Y-120015000D02*
X104775000Y-123825000D01*
X96837500Y-123825000D02*
X96837500Y-120015000D01*
D11*
X99060000Y-120015000D02*
X99060000Y-123825000D01*
D10*
X104775000Y-123825000D02*
X96837500Y-123825000D01*
X96837500Y-120015000D02*
X104775000Y-120015000D01*
D11*
X44132500Y-122555000D02*
X56197500Y-122555000D01*
X44132500Y-121285000D02*
X56197500Y-121285000D01*
X50990500Y-120015000D02*
X50990500Y-123825000D01*
X48768000Y-120015000D02*
X48768000Y-123825000D01*
X46355000Y-120015000D02*
X46355000Y-123825000D01*
D10*
X44132500Y-123825000D02*
X44132500Y-120015000D01*
X56197500Y-123825000D02*
X44132500Y-123825000D01*
X56197500Y-120015000D02*
X56197500Y-123825000D01*
X44132500Y-120015000D02*
X56197500Y-120015000D01*
X51422357Y-123551904D02*
X51422357Y-122751904D01*
X51727119Y-122751904D01*
X51803309Y-122790000D01*
X51841404Y-122828095D01*
X51879500Y-122904285D01*
X51879500Y-123018571D01*
X51841404Y-123094761D01*
X51803309Y-123132857D01*
X51727119Y-123170952D01*
X51422357Y-123170952D01*
X52222357Y-123551904D02*
X52222357Y-123018571D01*
X52222357Y-123170952D02*
X52260452Y-123094761D01*
X52298547Y-123056666D01*
X52374738Y-123018571D01*
X52450928Y-123018571D01*
X51244595Y-122281904D02*
X51244595Y-121481904D01*
X51435071Y-121481904D01*
X51549357Y-121520000D01*
X51625547Y-121596190D01*
X51663642Y-121672380D01*
X51701738Y-121824761D01*
X51701738Y-121939047D01*
X51663642Y-122091428D01*
X51625547Y-122167619D01*
X51549357Y-122243809D01*
X51435071Y-122281904D01*
X51244595Y-122281904D01*
X52044595Y-122281904D02*
X52044595Y-121748571D01*
X52044595Y-121481904D02*
X52006500Y-121520000D01*
X52044595Y-121558095D01*
X52082690Y-121520000D01*
X52044595Y-121481904D01*
X52044595Y-121558095D01*
X52425547Y-121748571D02*
X52425547Y-122548571D01*
X52425547Y-121786666D02*
X52501738Y-121748571D01*
X52654119Y-121748571D01*
X52730309Y-121786666D01*
X52768404Y-121824761D01*
X52806500Y-121900952D01*
X52806500Y-122129523D01*
X52768404Y-122205714D01*
X52730309Y-122243809D01*
X52654119Y-122281904D01*
X52501738Y-122281904D01*
X52425547Y-122243809D01*
X53905238Y-122281904D02*
X53638571Y-121900952D01*
X53448095Y-122281904D02*
X53448095Y-121481904D01*
X53752857Y-121481904D01*
X53829047Y-121520000D01*
X53867142Y-121558095D01*
X53905238Y-121634285D01*
X53905238Y-121748571D01*
X53867142Y-121824761D01*
X53829047Y-121862857D01*
X53752857Y-121900952D01*
X53448095Y-121900952D01*
X54362380Y-122281904D02*
X54286190Y-122243809D01*
X54248095Y-122205714D01*
X54210000Y-122129523D01*
X54210000Y-121900952D01*
X54248095Y-121824761D01*
X54286190Y-121786666D01*
X54362380Y-121748571D01*
X54476666Y-121748571D01*
X54552857Y-121786666D01*
X54590952Y-121824761D01*
X54629047Y-121900952D01*
X54629047Y-122129523D01*
X54590952Y-122205714D01*
X54552857Y-122243809D01*
X54476666Y-122281904D01*
X54362380Y-122281904D01*
X55086190Y-122281904D02*
X55010000Y-122243809D01*
X54971904Y-122205714D01*
X54933809Y-122129523D01*
X54933809Y-121900952D01*
X54971904Y-121824761D01*
X55010000Y-121786666D01*
X55086190Y-121748571D01*
X55200476Y-121748571D01*
X55276666Y-121786666D01*
X55314761Y-121824761D01*
X55352857Y-121900952D01*
X55352857Y-122129523D01*
X55314761Y-122205714D01*
X55276666Y-122243809D01*
X55200476Y-122281904D01*
X55086190Y-122281904D01*
X55581428Y-121748571D02*
X55886190Y-121748571D01*
X55695714Y-121481904D02*
X55695714Y-122167619D01*
X55733809Y-122243809D01*
X55810000Y-122281904D01*
X55886190Y-122281904D01*
X53314761Y-123551904D02*
X53314761Y-122751904D01*
X53771904Y-123551904D01*
X53771904Y-122751904D01*
X54267142Y-123551904D02*
X54190952Y-123513809D01*
X54152857Y-123475714D01*
X54114761Y-123399523D01*
X54114761Y-123170952D01*
X54152857Y-123094761D01*
X54190952Y-123056666D01*
X54267142Y-123018571D01*
X54381428Y-123018571D01*
X54457619Y-123056666D01*
X54495714Y-123094761D01*
X54533809Y-123170952D01*
X54533809Y-123399523D01*
X54495714Y-123475714D01*
X54457619Y-123513809D01*
X54381428Y-123551904D01*
X54267142Y-123551904D01*
X55219523Y-123551904D02*
X55219523Y-122751904D01*
X55219523Y-123513809D02*
X55143333Y-123551904D01*
X54990952Y-123551904D01*
X54914761Y-123513809D01*
X54876666Y-123475714D01*
X54838571Y-123399523D01*
X54838571Y-123170952D01*
X54876666Y-123094761D01*
X54914761Y-123056666D01*
X54990952Y-123018571D01*
X55143333Y-123018571D01*
X55219523Y-123056666D01*
X55905238Y-123513809D02*
X55829047Y-123551904D01*
X55676666Y-123551904D01*
X55600476Y-123513809D01*
X55562380Y-123437619D01*
X55562380Y-123132857D01*
X55600476Y-123056666D01*
X55676666Y-123018571D01*
X55829047Y-123018571D01*
X55905238Y-123056666D01*
X55943333Y-123132857D01*
X55943333Y-123209047D01*
X55562380Y-123285238D01*
X46558333Y-122751904D02*
X46748809Y-123551904D01*
X46901190Y-122980476D01*
X47053571Y-123551904D01*
X47244047Y-122751904D01*
X47548809Y-123551904D02*
X47548809Y-123018571D01*
X47548809Y-122751904D02*
X47510714Y-122790000D01*
X47548809Y-122828095D01*
X47586904Y-122790000D01*
X47548809Y-122751904D01*
X47548809Y-122828095D01*
X48196428Y-123132857D02*
X47929761Y-123132857D01*
X47929761Y-123551904D02*
X47929761Y-122751904D01*
X48310714Y-122751904D01*
X48615476Y-123551904D02*
X48615476Y-123018571D01*
X48615476Y-122751904D02*
X48577380Y-122790000D01*
X48615476Y-122828095D01*
X48653571Y-122790000D01*
X48615476Y-122751904D01*
X48615476Y-122828095D01*
X47148809Y-122205714D02*
X47110714Y-122243809D01*
X46996428Y-122281904D01*
X46920238Y-122281904D01*
X46805952Y-122243809D01*
X46729761Y-122167619D01*
X46691666Y-122091428D01*
X46653571Y-121939047D01*
X46653571Y-121824761D01*
X46691666Y-121672380D01*
X46729761Y-121596190D01*
X46805952Y-121520000D01*
X46920238Y-121481904D01*
X46996428Y-121481904D01*
X47110714Y-121520000D01*
X47148809Y-121558095D01*
X47834523Y-122281904D02*
X47834523Y-121862857D01*
X47796428Y-121786666D01*
X47720238Y-121748571D01*
X47567857Y-121748571D01*
X47491666Y-121786666D01*
X47834523Y-122243809D02*
X47758333Y-122281904D01*
X47567857Y-122281904D01*
X47491666Y-122243809D01*
X47453571Y-122167619D01*
X47453571Y-122091428D01*
X47491666Y-122015238D01*
X47567857Y-121977142D01*
X47758333Y-121977142D01*
X47834523Y-121939047D01*
X48215476Y-121748571D02*
X48215476Y-122281904D01*
X48215476Y-121824761D02*
X48253571Y-121786666D01*
X48329761Y-121748571D01*
X48444047Y-121748571D01*
X48520238Y-121786666D01*
X48558333Y-121862857D01*
X48558333Y-122281904D01*
D12*
X58102738Y-117244761D02*
X58245595Y-117292380D01*
X58483690Y-117292380D01*
X58578928Y-117244761D01*
X58626547Y-117197142D01*
X58674166Y-117101904D01*
X58674166Y-117006666D01*
X58626547Y-116911428D01*
X58578928Y-116863809D01*
X58483690Y-116816190D01*
X58293214Y-116768571D01*
X58197976Y-116720952D01*
X58150357Y-116673333D01*
X58102738Y-116578095D01*
X58102738Y-116482857D01*
X58150357Y-116387619D01*
X58197976Y-116340000D01*
X58293214Y-116292380D01*
X58531309Y-116292380D01*
X58674166Y-116340000D01*
X59483690Y-117244761D02*
X59388452Y-117292380D01*
X59197976Y-117292380D01*
X59102738Y-117244761D01*
X59055119Y-117149523D01*
X59055119Y-116768571D01*
X59102738Y-116673333D01*
X59197976Y-116625714D01*
X59388452Y-116625714D01*
X59483690Y-116673333D01*
X59531309Y-116768571D01*
X59531309Y-116863809D01*
X59055119Y-116959047D01*
X59817023Y-116625714D02*
X60197976Y-116625714D01*
X59959880Y-116292380D02*
X59959880Y-117149523D01*
X60007500Y-117244761D01*
X60102738Y-117292380D01*
X60197976Y-117292380D01*
X60959880Y-116625714D02*
X60959880Y-117292380D01*
X60531309Y-116625714D02*
X60531309Y-117149523D01*
X60578928Y-117244761D01*
X60674166Y-117292380D01*
X60817023Y-117292380D01*
X60912261Y-117244761D01*
X60959880Y-117197142D01*
X61436071Y-116625714D02*
X61436071Y-117625714D01*
X61436071Y-116673333D02*
X61531309Y-116625714D01*
X61721785Y-116625714D01*
X61817023Y-116673333D01*
X61864642Y-116720952D01*
X61912261Y-116816190D01*
X61912261Y-117101904D01*
X61864642Y-117197142D01*
X61817023Y-117244761D01*
X61721785Y-117292380D01*
X61531309Y-117292380D01*
X61436071Y-117244761D01*
X36997023Y-117006666D02*
X37473214Y-117006666D01*
X36901785Y-117292380D02*
X37235119Y-116292380D01*
X37568452Y-117292380D01*
X38330357Y-117292380D02*
X38330357Y-116292380D01*
X38330357Y-117244761D02*
X38235119Y-117292380D01*
X38044642Y-117292380D01*
X37949404Y-117244761D01*
X37901785Y-117197142D01*
X37854166Y-117101904D01*
X37854166Y-116816190D01*
X37901785Y-116720952D01*
X37949404Y-116673333D01*
X38044642Y-116625714D01*
X38235119Y-116625714D01*
X38330357Y-116673333D01*
X39235119Y-117292380D02*
X39235119Y-116292380D01*
X39235119Y-117244761D02*
X39139880Y-117292380D01*
X38949404Y-117292380D01*
X38854166Y-117244761D01*
X38806547Y-117197142D01*
X38758928Y-117101904D01*
X38758928Y-116816190D01*
X38806547Y-116720952D01*
X38854166Y-116673333D01*
X38949404Y-116625714D01*
X39139880Y-116625714D01*
X39235119Y-116673333D01*
X39711309Y-117292380D02*
X39711309Y-116625714D01*
X39711309Y-116816190D02*
X39758928Y-116720952D01*
X39806547Y-116673333D01*
X39901785Y-116625714D01*
X39997023Y-116625714D01*
X40711309Y-117244761D02*
X40616071Y-117292380D01*
X40425595Y-117292380D01*
X40330357Y-117244761D01*
X40282738Y-117149523D01*
X40282738Y-116768571D01*
X40330357Y-116673333D01*
X40425595Y-116625714D01*
X40616071Y-116625714D01*
X40711309Y-116673333D01*
X40758928Y-116768571D01*
X40758928Y-116863809D01*
X40282738Y-116959047D01*
X41139880Y-117244761D02*
X41235119Y-117292380D01*
X41425595Y-117292380D01*
X41520833Y-117244761D01*
X41568452Y-117149523D01*
X41568452Y-117101904D01*
X41520833Y-117006666D01*
X41425595Y-116959047D01*
X41282738Y-116959047D01*
X41187500Y-116911428D01*
X41139880Y-116816190D01*
X41139880Y-116768571D01*
X41187500Y-116673333D01*
X41282738Y-116625714D01*
X41425595Y-116625714D01*
X41520833Y-116673333D01*
X41949404Y-117244761D02*
X42044642Y-117292380D01*
X42235119Y-117292380D01*
X42330357Y-117244761D01*
X42377976Y-117149523D01*
X42377976Y-117101904D01*
X42330357Y-117006666D01*
X42235119Y-116959047D01*
X42092261Y-116959047D01*
X41997023Y-116911428D01*
X41949404Y-116816190D01*
X41949404Y-116768571D01*
X41997023Y-116673333D01*
X42092261Y-116625714D01*
X42235119Y-116625714D01*
X42330357Y-116673333D01*
D10*
X83185000Y-111760000D02*
X83502500Y-111760000D01*
X83502500Y-112077500D02*
X83185000Y-111760000D01*
X83502500Y-111760000D02*
X83502500Y-112077500D01*
X83185000Y-112077500D02*
X83502500Y-111760000D01*
X83185000Y-113982500D02*
X83185000Y-112077500D01*
X83502500Y-114300000D02*
X83185000Y-113982500D01*
X82550000Y-109855000D02*
X82867500Y-109855000D01*
X82867500Y-110172500D02*
X82550000Y-109855000D01*
X82867500Y-109855000D02*
X82867500Y-110172500D01*
X82550000Y-110172500D02*
X82867500Y-109855000D01*
X81597500Y-110172500D02*
X82550000Y-110172500D01*
X81280000Y-110490000D02*
X81597500Y-110172500D01*
X81280000Y-111442500D02*
X81280000Y-110490000D01*
X80645000Y-112077500D02*
X81280000Y-111442500D01*
X76200000Y-104775000D02*
X76517500Y-104457500D01*
X76200000Y-104140000D02*
X76200000Y-104775000D01*
X76517500Y-104457500D02*
X76200000Y-104140000D01*
X76200000Y-104457500D02*
X76517500Y-104457500D01*
X72072500Y-104457500D02*
X76200000Y-104457500D01*
X71120000Y-105410000D02*
X72072500Y-104457500D01*
X72707500Y-104140000D02*
X73025000Y-103822500D01*
X72707500Y-103505000D02*
X72707500Y-104140000D01*
X73025000Y-103822500D02*
X72707500Y-103505000D01*
X71120000Y-103822500D02*
X73025000Y-103822500D01*
X83185000Y-97155000D02*
X83502500Y-96837500D01*
X83185000Y-96520000D02*
X83185000Y-97155000D01*
X83502500Y-96837500D02*
X83185000Y-96520000D01*
X80010000Y-96837500D02*
X83502500Y-96837500D01*
%TO.C,U3*%
X76517500Y-112096000D02*
X78017500Y-112096000D01*
X75017500Y-115316000D02*
X78017500Y-115316000D01*
%TO.C,U6*%
X89240000Y-104052500D02*
X89240000Y-101052500D01*
X86020000Y-102552500D02*
X86020000Y-101052500D01*
%TO.C,U5*%
X60693300Y-116154200D02*
X61155260Y-116154200D01*
X65036700Y-116154200D02*
X65036700Y-115692240D01*
X65036700Y-111810800D02*
X64574740Y-111810800D01*
X60693300Y-111810800D02*
X60693300Y-112272760D01*
X60693300Y-115692240D02*
X60693300Y-116154200D01*
X64574740Y-116154200D02*
X65036700Y-116154200D01*
X65036700Y-112272760D02*
X65036700Y-111810800D01*
X61155260Y-111810800D02*
X60693300Y-111810800D01*
%TO.C,U8*%
X70822500Y-111377500D02*
X70822500Y-109427500D01*
X70822500Y-111377500D02*
X70822500Y-113327500D01*
X65702500Y-111377500D02*
X65702500Y-109427500D01*
X65702500Y-111377500D02*
X65702500Y-114827500D01*
%TO.C,C14*%
X66991920Y-106170000D02*
X67273080Y-106170000D01*
X66991920Y-107190000D02*
X67273080Y-107190000D01*
%TO.C,R21*%
X69642258Y-121807500D02*
X69167742Y-121807500D01*
X69642258Y-120762500D02*
X69167742Y-120762500D01*
D13*
%TO.C,J1*%
X25019000Y-101688900D02*
X35928300Y-101688900D01*
X35941000Y-101688900D02*
X35941000Y-96431100D01*
X35941000Y-96431100D02*
X25019000Y-96431100D01*
X25019000Y-96431100D02*
X25019000Y-101688900D01*
X24765000Y-99695000D02*
G75*
G03*
X24765000Y-99695000I-381000J0D01*
G01*
D10*
%TO.C,BZ1*%
X94470000Y-118840000D02*
G75*
G03*
X94470000Y-118840000I-4300000J0D01*
G01*
X90170000Y-114824000D02*
X90170000Y-115840000D01*
X89654000Y-115340000D02*
X90670000Y-115340000D01*
%TO.C,J10*%
X97283000Y-118706900D02*
X109060000Y-118706900D01*
X97283000Y-95923100D02*
X97283000Y-118706900D01*
X109060000Y-95923100D02*
X97283000Y-95923100D01*
X109060000Y-118706900D02*
X109060000Y-95923100D01*
%TO.C,R16*%
X84585436Y-111542500D02*
X85039564Y-111542500D01*
X84585436Y-110072500D02*
X85039564Y-110072500D01*
%TO.C,R15*%
X85039564Y-112295000D02*
X84585436Y-112295000D01*
X85039564Y-113765000D02*
X84585436Y-113765000D01*
%TO.C,J3*%
X64710000Y-102612500D02*
X64710000Y-101282500D01*
X66040000Y-102612500D02*
X64710000Y-102612500D01*
X67310000Y-102612500D02*
X67310000Y-99952500D01*
X67310000Y-99952500D02*
X74990000Y-99952500D01*
X67310000Y-102612500D02*
X74990000Y-102612500D01*
X74990000Y-102612500D02*
X74990000Y-99952500D01*
%TO.C,J2*%
X64710000Y-119757500D02*
X64710000Y-118427500D01*
X66040000Y-119757500D02*
X64710000Y-119757500D01*
X67310000Y-119757500D02*
X67310000Y-117097500D01*
X67310000Y-117097500D02*
X74990000Y-117097500D01*
X67310000Y-119757500D02*
X74990000Y-119757500D01*
X74990000Y-119757500D02*
X74990000Y-117097500D01*
D14*
%TO.C,LED1*%
X57565000Y-109840000D02*
G75*
G03*
X57565000Y-109840000I-7400000J0D01*
G01*
D15*
G36*
X46165000Y-112840000D02*
G01*
X54165000Y-112840000D01*
X54165000Y-114840000D01*
X46165000Y-114840000D01*
X46165000Y-112840000D01*
G37*
X46165000Y-112840000D02*
X54165000Y-112840000D01*
X54165000Y-114840000D01*
X46165000Y-114840000D01*
X46165000Y-112840000D01*
G36*
X46165000Y-104840000D02*
G01*
X54165000Y-104840000D01*
X54165000Y-106840000D01*
X46165000Y-106840000D01*
X46165000Y-104840000D01*
G37*
X46165000Y-104840000D02*
X54165000Y-104840000D01*
X54165000Y-106840000D01*
X46165000Y-106840000D01*
X46165000Y-104840000D01*
G36*
X54165000Y-106840000D02*
G01*
X55465000Y-106840000D01*
X55465000Y-112840000D01*
X54165000Y-112840000D01*
X54165000Y-106840000D01*
G37*
X54165000Y-106840000D02*
X55465000Y-106840000D01*
X55465000Y-112840000D01*
X54165000Y-112840000D01*
X54165000Y-106840000D01*
G36*
X44965000Y-106840000D02*
G01*
X46165000Y-106840000D01*
X46165000Y-112840000D01*
X44965000Y-112840000D01*
X44965000Y-106840000D01*
G37*
X44965000Y-106840000D02*
X46165000Y-106840000D01*
X46165000Y-112840000D01*
X44965000Y-112840000D01*
X44965000Y-106840000D01*
D10*
%TO.C,U7*%
X78473300Y-105153460D02*
X78473300Y-104876600D01*
X74307700Y-110111540D02*
X74307700Y-110388400D01*
X74307700Y-104876600D02*
X74307700Y-105153460D01*
X78473300Y-104876600D02*
X74307700Y-104876600D01*
X78473300Y-110388400D02*
X78473300Y-110111540D01*
X74307700Y-110388400D02*
X78473300Y-110388400D01*
X76990500Y-104882500D02*
G75*
G02*
X75790500Y-104882500I-600000J0D01*
G01*
%TO.C,SW1*%
X92603600Y-110639860D02*
X92603600Y-109915300D01*
X86939400Y-113104140D02*
X86939400Y-113828700D01*
X86939400Y-109915300D02*
X86939400Y-110639860D01*
X92603600Y-109915300D02*
X86939400Y-109915300D01*
X92603600Y-113828700D02*
X92603600Y-113104140D01*
X86939400Y-113828700D02*
X92603600Y-113828700D01*
%TO.C,SW3*%
X57172860Y-117898900D02*
X56448300Y-117898900D01*
X62287140Y-123563100D02*
X63011700Y-123563100D01*
X56448300Y-123563100D02*
X57172860Y-123563100D01*
X56448300Y-117898900D02*
X56448300Y-123563100D01*
X63011700Y-117898900D02*
X62287140Y-117898900D01*
X63011700Y-123563100D02*
X63011700Y-117898900D01*
%TO.C,C12*%
X74357920Y-104332500D02*
X74639080Y-104332500D01*
X74357920Y-103312500D02*
X74639080Y-103312500D01*
%TO.C,C11*%
X78423080Y-103312500D02*
X78141920Y-103312500D01*
X78423080Y-104332500D02*
X78141920Y-104332500D01*
%TO.C,C10*%
X82592500Y-108138752D02*
X82592500Y-106716248D01*
X84412500Y-108138752D02*
X84412500Y-106716248D01*
%TO.C,C6*%
X61849580Y-109980000D02*
X61568420Y-109980000D01*
X61849580Y-111000000D02*
X61568420Y-111000000D01*
%TO.C,SW2*%
X43881700Y-123563100D02*
X43881700Y-117898900D01*
X43881700Y-117898900D02*
X43157140Y-117898900D01*
X32318300Y-117898900D02*
X32318300Y-123563100D01*
X32318300Y-123563100D02*
X33042860Y-123563100D01*
X43157140Y-123563100D02*
X43881700Y-123563100D01*
X33042860Y-117898900D02*
X32318300Y-117898900D01*
%TO.C,U1*%
X31224000Y-123693000D02*
X29764000Y-123693000D01*
X31224000Y-120533000D02*
X29064000Y-120533000D01*
X31224000Y-120533000D02*
X31224000Y-121463000D01*
X31224000Y-123693000D02*
X31224000Y-122763000D01*
%TO.C,R10*%
X27351258Y-122540500D02*
X26876742Y-122540500D01*
X27351258Y-123585500D02*
X26876742Y-123585500D01*
%TO.C,R5*%
X38305000Y-102282258D02*
X38305000Y-101807742D01*
X37260000Y-102282258D02*
X37260000Y-101807742D01*
%TO.C,R13*%
X38305000Y-105490242D02*
X38305000Y-105964758D01*
X37260000Y-105490242D02*
X37260000Y-105964758D01*
%TO.C,C5*%
X82742500Y-111759420D02*
X82742500Y-112040580D01*
X81722500Y-111759420D02*
X81722500Y-112040580D01*
%TO.C,C4*%
X71245000Y-113945580D02*
X71245000Y-113664420D01*
X72265000Y-113945580D02*
X72265000Y-113664420D01*
%TO.C,L1*%
X95808700Y-98450300D02*
G75*
G03*
X95808700Y-98450300I-76200J0D01*
G01*
X95158000Y-97787460D02*
X95158000Y-97513140D01*
X93507000Y-97513140D02*
X93507000Y-97787460D01*
X95332500Y-98950300D02*
X93632500Y-98950300D01*
X93632500Y-98950300D02*
X93632500Y-96000300D01*
X93632500Y-96000300D02*
X95332500Y-96000300D01*
X95332500Y-96000300D02*
X95332500Y-98950300D01*
%TO.C,F1*%
X92585000Y-98427221D02*
X92585000Y-98752779D01*
X91565000Y-98427221D02*
X91565000Y-98752779D01*
D16*
%TO.C,D3*%
X85629500Y-103922500D02*
G75*
G03*
X85629500Y-103922500I-100000J0D01*
G01*
D10*
%TO.C,U4*%
X60731400Y-107861100D02*
X61155260Y-107861100D01*
X64998600Y-107861100D02*
X64998600Y-107437240D01*
X64998600Y-103593900D02*
X64574740Y-103593900D01*
X60731400Y-103593900D02*
X60731400Y-104017760D01*
X60731400Y-107437240D02*
X60731400Y-107861100D01*
X64574740Y-107861100D02*
X64998600Y-107861100D01*
X64998600Y-104017760D02*
X64998600Y-103593900D01*
X61155260Y-103593900D02*
X60731400Y-103593900D01*
D16*
%TO.C,U2*%
X26386500Y-117105000D02*
G75*
G03*
X26386500Y-117105000I-100000J0D01*
G01*
D17*
X19286500Y-116455000D02*
X19286500Y-103255000D01*
X24666500Y-116455000D02*
X19286500Y-116455000D01*
X19286500Y-103255000D02*
X24666500Y-103255000D01*
D10*
%TO.C,R20*%
X93232500Y-107839242D02*
X93232500Y-108313758D01*
X92187500Y-107839242D02*
X92187500Y-108313758D01*
%TO.C,R19*%
X89487742Y-97267500D02*
X89962258Y-97267500D01*
X89487742Y-98312500D02*
X89962258Y-98312500D01*
%TO.C,R18*%
X90600000Y-108314758D02*
X90600000Y-107840242D01*
X91645000Y-108314758D02*
X91645000Y-107840242D01*
%TO.C,R17*%
X92155242Y-105205000D02*
X92629758Y-105205000D01*
X92155242Y-106250000D02*
X92629758Y-106250000D01*
%TO.C,R14*%
X62025000Y-101520258D02*
X62025000Y-101045742D01*
X63070000Y-101520258D02*
X63070000Y-101045742D01*
%TO.C,R9*%
X27351258Y-120283500D02*
X26876742Y-120283500D01*
X27351258Y-119238500D02*
X26876742Y-119238500D01*
%TO.C,R8*%
X83075242Y-118540000D02*
X83549758Y-118540000D01*
X83075242Y-119585000D02*
X83549758Y-119585000D01*
%TO.C,Q2*%
X81605000Y-122632500D02*
X82535000Y-122632500D01*
X84765000Y-122632500D02*
X83835000Y-122632500D01*
X84765000Y-122632500D02*
X84765000Y-120472500D01*
X81605000Y-122632500D02*
X81605000Y-121172500D01*
%TO.C,L2*%
X87442500Y-106327500D02*
X87442500Y-109627500D01*
X87442500Y-109627500D02*
X84642500Y-109627500D01*
X84642500Y-109627500D02*
X84642500Y-106327500D01*
X84642500Y-106327500D02*
X87442500Y-106327500D01*
D16*
%TO.C,D2*%
X92275000Y-99827000D02*
G75*
G03*
X92275000Y-99827000I-100000J0D01*
G01*
D10*
%TO.C,D1*%
X96485000Y-117847500D02*
X95285000Y-117847500D01*
X96485000Y-119697500D02*
X96485000Y-117847500D01*
X95285000Y-119697500D02*
X95285000Y-117847500D01*
%TO.C,C13*%
X90045000Y-107949420D02*
X90045000Y-108230580D01*
X89025000Y-107949420D02*
X89025000Y-108230580D01*
%TO.C,C9*%
X82190000Y-108138752D02*
X82190000Y-106716248D01*
X80370000Y-108138752D02*
X80370000Y-106716248D01*
%TO.C,C8*%
X84647500Y-100366920D02*
X84647500Y-100648080D01*
X83627500Y-100366920D02*
X83627500Y-100648080D01*
%TO.C,C7*%
X86548752Y-96562500D02*
X85126248Y-96562500D01*
X86548752Y-98382500D02*
X85126248Y-98382500D01*
%TO.C,C3*%
X26923420Y-120902000D02*
X27204580Y-120902000D01*
X26923420Y-121922000D02*
X27204580Y-121922000D01*
%TO.C,C2*%
X60450000Y-101423080D02*
X60450000Y-101141920D01*
X61470000Y-101423080D02*
X61470000Y-101141920D01*
%TO.C,C1*%
X27305580Y-118620000D02*
X27024420Y-118620000D01*
X27305580Y-117600000D02*
X27024420Y-117600000D01*
%TO.C,U3*%
D12*
X75755595Y-110708380D02*
X75755595Y-111517904D01*
X75803214Y-111613142D01*
X75850833Y-111660761D01*
X75946071Y-111708380D01*
X76136547Y-111708380D01*
X76231785Y-111660761D01*
X76279404Y-111613142D01*
X76327023Y-111517904D01*
X76327023Y-110708380D01*
X76707976Y-110708380D02*
X77327023Y-110708380D01*
X76993690Y-111089333D01*
X77136547Y-111089333D01*
X77231785Y-111136952D01*
X77279404Y-111184571D01*
X77327023Y-111279809D01*
X77327023Y-111517904D01*
X77279404Y-111613142D01*
X77231785Y-111660761D01*
X77136547Y-111708380D01*
X76850833Y-111708380D01*
X76755595Y-111660761D01*
X76707976Y-111613142D01*
%TO.C,U6*%
X86868095Y-99083880D02*
X86868095Y-99893404D01*
X86915714Y-99988642D01*
X86963333Y-100036261D01*
X87058571Y-100083880D01*
X87249047Y-100083880D01*
X87344285Y-100036261D01*
X87391904Y-99988642D01*
X87439523Y-99893404D01*
X87439523Y-99083880D01*
X88344285Y-99083880D02*
X88153809Y-99083880D01*
X88058571Y-99131500D01*
X88010952Y-99179119D01*
X87915714Y-99321976D01*
X87868095Y-99512452D01*
X87868095Y-99893404D01*
X87915714Y-99988642D01*
X87963333Y-100036261D01*
X88058571Y-100083880D01*
X88249047Y-100083880D01*
X88344285Y-100036261D01*
X88391904Y-99988642D01*
X88439523Y-99893404D01*
X88439523Y-99655309D01*
X88391904Y-99560071D01*
X88344285Y-99512452D01*
X88249047Y-99464833D01*
X88058571Y-99464833D01*
X87963333Y-99512452D01*
X87915714Y-99560071D01*
X87868095Y-99655309D01*
%TO.C,U5*%
X65913095Y-115339880D02*
X65913095Y-116149404D01*
X65960714Y-116244642D01*
X66008333Y-116292261D01*
X66103571Y-116339880D01*
X66294047Y-116339880D01*
X66389285Y-116292261D01*
X66436904Y-116244642D01*
X66484523Y-116149404D01*
X66484523Y-115339880D01*
X67436904Y-115339880D02*
X66960714Y-115339880D01*
X66913095Y-115816071D01*
X66960714Y-115768452D01*
X67055952Y-115720833D01*
X67294047Y-115720833D01*
X67389285Y-115768452D01*
X67436904Y-115816071D01*
X67484523Y-115911309D01*
X67484523Y-116149404D01*
X67436904Y-116244642D01*
X67389285Y-116292261D01*
X67294047Y-116339880D01*
X67055952Y-116339880D01*
X66960714Y-116292261D01*
X66913095Y-116244642D01*
%TO.C,U8*%
X63817595Y-109116880D02*
X63817595Y-109926404D01*
X63865214Y-110021642D01*
X63912833Y-110069261D01*
X64008071Y-110116880D01*
X64198547Y-110116880D01*
X64293785Y-110069261D01*
X64341404Y-110021642D01*
X64389023Y-109926404D01*
X64389023Y-109116880D01*
X65008071Y-109545452D02*
X64912833Y-109497833D01*
X64865214Y-109450214D01*
X64817595Y-109354976D01*
X64817595Y-109307357D01*
X64865214Y-109212119D01*
X64912833Y-109164500D01*
X65008071Y-109116880D01*
X65198547Y-109116880D01*
X65293785Y-109164500D01*
X65341404Y-109212119D01*
X65389023Y-109307357D01*
X65389023Y-109354976D01*
X65341404Y-109450214D01*
X65293785Y-109497833D01*
X65198547Y-109545452D01*
X65008071Y-109545452D01*
X64912833Y-109593071D01*
X64865214Y-109640690D01*
X64817595Y-109735928D01*
X64817595Y-109926404D01*
X64865214Y-110021642D01*
X64912833Y-110069261D01*
X65008071Y-110116880D01*
X65198547Y-110116880D01*
X65293785Y-110069261D01*
X65341404Y-110021642D01*
X65389023Y-109926404D01*
X65389023Y-109735928D01*
X65341404Y-109640690D01*
X65293785Y-109593071D01*
X65198547Y-109545452D01*
%TO.C,C14*%
X66349642Y-105607142D02*
X66302023Y-105654761D01*
X66159166Y-105702380D01*
X66063928Y-105702380D01*
X65921071Y-105654761D01*
X65825833Y-105559523D01*
X65778214Y-105464285D01*
X65730595Y-105273809D01*
X65730595Y-105130952D01*
X65778214Y-104940476D01*
X65825833Y-104845238D01*
X65921071Y-104750000D01*
X66063928Y-104702380D01*
X66159166Y-104702380D01*
X66302023Y-104750000D01*
X66349642Y-104797619D01*
X67302023Y-105702380D02*
X66730595Y-105702380D01*
X67016309Y-105702380D02*
X67016309Y-104702380D01*
X66921071Y-104845238D01*
X66825833Y-104940476D01*
X66730595Y-104988095D01*
X68159166Y-105035714D02*
X68159166Y-105702380D01*
X67921071Y-104654761D02*
X67682976Y-105369047D01*
X68302023Y-105369047D01*
%TO.C,R21*%
X68762142Y-123167380D02*
X68428809Y-122691190D01*
X68190714Y-123167380D02*
X68190714Y-122167380D01*
X68571666Y-122167380D01*
X68666904Y-122215000D01*
X68714523Y-122262619D01*
X68762142Y-122357857D01*
X68762142Y-122500714D01*
X68714523Y-122595952D01*
X68666904Y-122643571D01*
X68571666Y-122691190D01*
X68190714Y-122691190D01*
X69143095Y-122262619D02*
X69190714Y-122215000D01*
X69285952Y-122167380D01*
X69524047Y-122167380D01*
X69619285Y-122215000D01*
X69666904Y-122262619D01*
X69714523Y-122357857D01*
X69714523Y-122453095D01*
X69666904Y-122595952D01*
X69095476Y-123167380D01*
X69714523Y-123167380D01*
X70666904Y-123167380D02*
X70095476Y-123167380D01*
X70381190Y-123167380D02*
X70381190Y-122167380D01*
X70285952Y-122310238D01*
X70190714Y-122405476D01*
X70095476Y-122453095D01*
%TO.C,J1*%
X36814166Y-96607380D02*
X36814166Y-97321666D01*
X36766547Y-97464523D01*
X36671309Y-97559761D01*
X36528452Y-97607380D01*
X36433214Y-97607380D01*
X37814166Y-97607380D02*
X37242738Y-97607380D01*
X37528452Y-97607380D02*
X37528452Y-96607380D01*
X37433214Y-96750238D01*
X37337976Y-96845476D01*
X37242738Y-96893095D01*
%TO.C,BZ1*%
X85479047Y-123118571D02*
X85621904Y-123166190D01*
X85669523Y-123213809D01*
X85717142Y-123309047D01*
X85717142Y-123451904D01*
X85669523Y-123547142D01*
X85621904Y-123594761D01*
X85526666Y-123642380D01*
X85145714Y-123642380D01*
X85145714Y-122642380D01*
X85479047Y-122642380D01*
X85574285Y-122690000D01*
X85621904Y-122737619D01*
X85669523Y-122832857D01*
X85669523Y-122928095D01*
X85621904Y-123023333D01*
X85574285Y-123070952D01*
X85479047Y-123118571D01*
X85145714Y-123118571D01*
X86050476Y-122642380D02*
X86717142Y-122642380D01*
X86050476Y-123642380D01*
X86717142Y-123642380D01*
X87621904Y-123642380D02*
X87050476Y-123642380D01*
X87336190Y-123642380D02*
X87336190Y-122642380D01*
X87240952Y-122785238D01*
X87145714Y-122880476D01*
X87050476Y-122928095D01*
%TO.C,J10*%
D10*
X96081904Y-99390119D02*
X96653333Y-99390119D01*
X96767619Y-99428214D01*
X96843809Y-99504404D01*
X96881904Y-99618690D01*
X96881904Y-99694880D01*
X96881904Y-98590119D02*
X96881904Y-99047261D01*
X96881904Y-98818690D02*
X96081904Y-98818690D01*
X96196190Y-98894880D01*
X96272380Y-98971071D01*
X96310476Y-99047261D01*
X96081904Y-98094880D02*
X96081904Y-98018690D01*
X96120000Y-97942500D01*
X96158095Y-97904404D01*
X96234285Y-97866309D01*
X96386666Y-97828214D01*
X96577142Y-97828214D01*
X96729523Y-97866309D01*
X96805714Y-97904404D01*
X96843809Y-97942500D01*
X96881904Y-98018690D01*
X96881904Y-98094880D01*
X96843809Y-98171071D01*
X96805714Y-98209166D01*
X96729523Y-98247261D01*
X96577142Y-98285357D01*
X96386666Y-98285357D01*
X96234285Y-98247261D01*
X96158095Y-98209166D01*
X96120000Y-98171071D01*
X96081904Y-98094880D01*
%TO.C,D9*%
X93326023Y-114979404D02*
X93326023Y-114179404D01*
X93516500Y-114179404D01*
X93630785Y-114217500D01*
X93706976Y-114293690D01*
X93745071Y-114369880D01*
X93783166Y-114522261D01*
X93783166Y-114636547D01*
X93745071Y-114788928D01*
X93706976Y-114865119D01*
X93630785Y-114941309D01*
X93516500Y-114979404D01*
X93326023Y-114979404D01*
X94164119Y-114979404D02*
X94316500Y-114979404D01*
X94392690Y-114941309D01*
X94430785Y-114903214D01*
X94506976Y-114788928D01*
X94545071Y-114636547D01*
X94545071Y-114331785D01*
X94506976Y-114255595D01*
X94468880Y-114217500D01*
X94392690Y-114179404D01*
X94240309Y-114179404D01*
X94164119Y-114217500D01*
X94126023Y-114255595D01*
X94087928Y-114331785D01*
X94087928Y-114522261D01*
X94126023Y-114598452D01*
X94164119Y-114636547D01*
X94240309Y-114674642D01*
X94392690Y-114674642D01*
X94468880Y-114636547D01*
X94506976Y-114598452D01*
X94545071Y-114522261D01*
%TO.C,D8*%
X93326023Y-107359404D02*
X93326023Y-106559404D01*
X93516500Y-106559404D01*
X93630785Y-106597500D01*
X93706976Y-106673690D01*
X93745071Y-106749880D01*
X93783166Y-106902261D01*
X93783166Y-107016547D01*
X93745071Y-107168928D01*
X93706976Y-107245119D01*
X93630785Y-107321309D01*
X93516500Y-107359404D01*
X93326023Y-107359404D01*
X94240309Y-106902261D02*
X94164119Y-106864166D01*
X94126023Y-106826071D01*
X94087928Y-106749880D01*
X94087928Y-106711785D01*
X94126023Y-106635595D01*
X94164119Y-106597500D01*
X94240309Y-106559404D01*
X94392690Y-106559404D01*
X94468880Y-106597500D01*
X94506976Y-106635595D01*
X94545071Y-106711785D01*
X94545071Y-106749880D01*
X94506976Y-106826071D01*
X94468880Y-106864166D01*
X94392690Y-106902261D01*
X94240309Y-106902261D01*
X94164119Y-106940357D01*
X94126023Y-106978452D01*
X94087928Y-107054642D01*
X94087928Y-107207023D01*
X94126023Y-107283214D01*
X94164119Y-107321309D01*
X94240309Y-107359404D01*
X94392690Y-107359404D01*
X94468880Y-107321309D01*
X94506976Y-107283214D01*
X94545071Y-107207023D01*
X94545071Y-107054642D01*
X94506976Y-106978452D01*
X94468880Y-106940357D01*
X94392690Y-106902261D01*
%TO.C,D7*%
X93072023Y-101644404D02*
X93072023Y-100844404D01*
X93262500Y-100844404D01*
X93376785Y-100882500D01*
X93452976Y-100958690D01*
X93491071Y-101034880D01*
X93529166Y-101187261D01*
X93529166Y-101301547D01*
X93491071Y-101453928D01*
X93452976Y-101530119D01*
X93376785Y-101606309D01*
X93262500Y-101644404D01*
X93072023Y-101644404D01*
X93795833Y-100844404D02*
X94329166Y-100844404D01*
X93986309Y-101644404D01*
%TO.C,D6*%
X93326023Y-113709404D02*
X93326023Y-112909404D01*
X93516500Y-112909404D01*
X93630785Y-112947500D01*
X93706976Y-113023690D01*
X93745071Y-113099880D01*
X93783166Y-113252261D01*
X93783166Y-113366547D01*
X93745071Y-113518928D01*
X93706976Y-113595119D01*
X93630785Y-113671309D01*
X93516500Y-113709404D01*
X93326023Y-113709404D01*
X94468880Y-112909404D02*
X94316500Y-112909404D01*
X94240309Y-112947500D01*
X94202214Y-112985595D01*
X94126023Y-113099880D01*
X94087928Y-113252261D01*
X94087928Y-113557023D01*
X94126023Y-113633214D01*
X94164119Y-113671309D01*
X94240309Y-113709404D01*
X94392690Y-113709404D01*
X94468880Y-113671309D01*
X94506976Y-113633214D01*
X94545071Y-113557023D01*
X94545071Y-113366547D01*
X94506976Y-113290357D01*
X94468880Y-113252261D01*
X94392690Y-113214166D01*
X94240309Y-113214166D01*
X94164119Y-113252261D01*
X94126023Y-113290357D01*
X94087928Y-113366547D01*
%TO.C,D5*%
X93326023Y-111486904D02*
X93326023Y-110686904D01*
X93516500Y-110686904D01*
X93630785Y-110725000D01*
X93706976Y-110801190D01*
X93745071Y-110877380D01*
X93783166Y-111029761D01*
X93783166Y-111144047D01*
X93745071Y-111296428D01*
X93706976Y-111372619D01*
X93630785Y-111448809D01*
X93516500Y-111486904D01*
X93326023Y-111486904D01*
X94506976Y-110686904D02*
X94126023Y-110686904D01*
X94087928Y-111067857D01*
X94126023Y-111029761D01*
X94202214Y-110991666D01*
X94392690Y-110991666D01*
X94468880Y-111029761D01*
X94506976Y-111067857D01*
X94545071Y-111144047D01*
X94545071Y-111334523D01*
X94506976Y-111410714D01*
X94468880Y-111448809D01*
X94392690Y-111486904D01*
X94202214Y-111486904D01*
X94126023Y-111448809D01*
X94087928Y-111410714D01*
%TO.C,D4*%
X93072023Y-104116904D02*
X93072023Y-103316904D01*
X93262500Y-103316904D01*
X93376785Y-103355000D01*
X93452976Y-103431190D01*
X93491071Y-103507380D01*
X93529166Y-103659761D01*
X93529166Y-103774047D01*
X93491071Y-103926428D01*
X93452976Y-104002619D01*
X93376785Y-104078809D01*
X93262500Y-104116904D01*
X93072023Y-104116904D01*
X94214880Y-103583571D02*
X94214880Y-104116904D01*
X94024404Y-103278809D02*
X93833928Y-103850238D01*
X94329166Y-103850238D01*
%TO.C,R16*%
D12*
X84272380Y-116530357D02*
X83796190Y-116863690D01*
X84272380Y-117101785D02*
X83272380Y-117101785D01*
X83272380Y-116720833D01*
X83320000Y-116625595D01*
X83367619Y-116577976D01*
X83462857Y-116530357D01*
X83605714Y-116530357D01*
X83700952Y-116577976D01*
X83748571Y-116625595D01*
X83796190Y-116720833D01*
X83796190Y-117101785D01*
X84272380Y-115577976D02*
X84272380Y-116149404D01*
X84272380Y-115863690D02*
X83272380Y-115863690D01*
X83415238Y-115958928D01*
X83510476Y-116054166D01*
X83558095Y-116149404D01*
X83272380Y-114720833D02*
X83272380Y-114911309D01*
X83320000Y-115006547D01*
X83367619Y-115054166D01*
X83510476Y-115149404D01*
X83700952Y-115197023D01*
X84081904Y-115197023D01*
X84177142Y-115149404D01*
X84224761Y-115101785D01*
X84272380Y-115006547D01*
X84272380Y-114816071D01*
X84224761Y-114720833D01*
X84177142Y-114673214D01*
X84081904Y-114625595D01*
X83843809Y-114625595D01*
X83748571Y-114673214D01*
X83700952Y-114720833D01*
X83653333Y-114816071D01*
X83653333Y-115006547D01*
X83700952Y-115101785D01*
X83748571Y-115149404D01*
X83843809Y-115197023D01*
%TO.C,R15*%
X85542380Y-116530357D02*
X85066190Y-116863690D01*
X85542380Y-117101785D02*
X84542380Y-117101785D01*
X84542380Y-116720833D01*
X84590000Y-116625595D01*
X84637619Y-116577976D01*
X84732857Y-116530357D01*
X84875714Y-116530357D01*
X84970952Y-116577976D01*
X85018571Y-116625595D01*
X85066190Y-116720833D01*
X85066190Y-117101785D01*
X85542380Y-115577976D02*
X85542380Y-116149404D01*
X85542380Y-115863690D02*
X84542380Y-115863690D01*
X84685238Y-115958928D01*
X84780476Y-116054166D01*
X84828095Y-116149404D01*
X84542380Y-114673214D02*
X84542380Y-115149404D01*
X85018571Y-115197023D01*
X84970952Y-115149404D01*
X84923333Y-115054166D01*
X84923333Y-114816071D01*
X84970952Y-114720833D01*
X85018571Y-114673214D01*
X85113809Y-114625595D01*
X85351904Y-114625595D01*
X85447142Y-114673214D01*
X85494761Y-114720833D01*
X85542380Y-114816071D01*
X85542380Y-115054166D01*
X85494761Y-115149404D01*
X85447142Y-115197023D01*
%TO.C,J3*%
X75866666Y-100734880D02*
X75866666Y-101449166D01*
X75819047Y-101592023D01*
X75723809Y-101687261D01*
X75580952Y-101734880D01*
X75485714Y-101734880D01*
X76247619Y-100734880D02*
X76866666Y-100734880D01*
X76533333Y-101115833D01*
X76676190Y-101115833D01*
X76771428Y-101163452D01*
X76819047Y-101211071D01*
X76866666Y-101306309D01*
X76866666Y-101544404D01*
X76819047Y-101639642D01*
X76771428Y-101687261D01*
X76676190Y-101734880D01*
X76390476Y-101734880D01*
X76295238Y-101687261D01*
X76247619Y-101639642D01*
%TO.C,J2*%
X75866666Y-117879880D02*
X75866666Y-118594166D01*
X75819047Y-118737023D01*
X75723809Y-118832261D01*
X75580952Y-118879880D01*
X75485714Y-118879880D01*
X76295238Y-117975119D02*
X76342857Y-117927500D01*
X76438095Y-117879880D01*
X76676190Y-117879880D01*
X76771428Y-117927500D01*
X76819047Y-117975119D01*
X76866666Y-118070357D01*
X76866666Y-118165595D01*
X76819047Y-118308452D01*
X76247619Y-118879880D01*
X76866666Y-118879880D01*
%TO.C,LED1*%
X37615952Y-114117380D02*
X37139761Y-114117380D01*
X37139761Y-113117380D01*
X37949285Y-113593571D02*
X38282619Y-113593571D01*
X38425476Y-114117380D02*
X37949285Y-114117380D01*
X37949285Y-113117380D01*
X38425476Y-113117380D01*
X38854047Y-114117380D02*
X38854047Y-113117380D01*
X39092142Y-113117380D01*
X39235000Y-113165000D01*
X39330238Y-113260238D01*
X39377857Y-113355476D01*
X39425476Y-113545952D01*
X39425476Y-113688809D01*
X39377857Y-113879285D01*
X39330238Y-113974523D01*
X39235000Y-114069761D01*
X39092142Y-114117380D01*
X38854047Y-114117380D01*
X40377857Y-114117380D02*
X39806428Y-114117380D01*
X40092142Y-114117380D02*
X40092142Y-113117380D01*
X39996904Y-113260238D01*
X39901666Y-113355476D01*
X39806428Y-113403095D01*
%TO.C,U7*%
X70993095Y-106576880D02*
X70993095Y-107386404D01*
X71040714Y-107481642D01*
X71088333Y-107529261D01*
X71183571Y-107576880D01*
X71374047Y-107576880D01*
X71469285Y-107529261D01*
X71516904Y-107481642D01*
X71564523Y-107386404D01*
X71564523Y-106576880D01*
X71945476Y-106576880D02*
X72612142Y-106576880D01*
X72183571Y-107576880D01*
%TO.C,SW1*%
D10*
X85610833Y-114814309D02*
X85725119Y-114852404D01*
X85915595Y-114852404D01*
X85991785Y-114814309D01*
X86029880Y-114776214D01*
X86067976Y-114700023D01*
X86067976Y-114623833D01*
X86029880Y-114547642D01*
X85991785Y-114509547D01*
X85915595Y-114471452D01*
X85763214Y-114433357D01*
X85687023Y-114395261D01*
X85648928Y-114357166D01*
X85610833Y-114280976D01*
X85610833Y-114204785D01*
X85648928Y-114128595D01*
X85687023Y-114090500D01*
X85763214Y-114052404D01*
X85953690Y-114052404D01*
X86067976Y-114090500D01*
X86334642Y-114052404D02*
X86525119Y-114852404D01*
X86677500Y-114280976D01*
X86829880Y-114852404D01*
X87020357Y-114052404D01*
X87744166Y-114852404D02*
X87287023Y-114852404D01*
X87515595Y-114852404D02*
X87515595Y-114052404D01*
X87439404Y-114166690D01*
X87363214Y-114242880D01*
X87287023Y-114280976D01*
%TO.C,SW3*%
X64141309Y-119494166D02*
X64179404Y-119379880D01*
X64179404Y-119189404D01*
X64141309Y-119113214D01*
X64103214Y-119075119D01*
X64027023Y-119037023D01*
X63950833Y-119037023D01*
X63874642Y-119075119D01*
X63836547Y-119113214D01*
X63798452Y-119189404D01*
X63760357Y-119341785D01*
X63722261Y-119417976D01*
X63684166Y-119456071D01*
X63607976Y-119494166D01*
X63531785Y-119494166D01*
X63455595Y-119456071D01*
X63417500Y-119417976D01*
X63379404Y-119341785D01*
X63379404Y-119151309D01*
X63417500Y-119037023D01*
X63379404Y-118770357D02*
X64179404Y-118579880D01*
X63607976Y-118427500D01*
X64179404Y-118275119D01*
X63379404Y-118084642D01*
X63379404Y-117856071D02*
X63379404Y-117360833D01*
X63684166Y-117627500D01*
X63684166Y-117513214D01*
X63722261Y-117437023D01*
X63760357Y-117398928D01*
X63836547Y-117360833D01*
X64027023Y-117360833D01*
X64103214Y-117398928D01*
X64141309Y-117437023D01*
X64179404Y-117513214D01*
X64179404Y-117741785D01*
X64141309Y-117817976D01*
X64103214Y-117856071D01*
%TO.C,C12*%
D12*
X68889642Y-104179642D02*
X68842023Y-104227261D01*
X68699166Y-104274880D01*
X68603928Y-104274880D01*
X68461071Y-104227261D01*
X68365833Y-104132023D01*
X68318214Y-104036785D01*
X68270595Y-103846309D01*
X68270595Y-103703452D01*
X68318214Y-103512976D01*
X68365833Y-103417738D01*
X68461071Y-103322500D01*
X68603928Y-103274880D01*
X68699166Y-103274880D01*
X68842023Y-103322500D01*
X68889642Y-103370119D01*
X69842023Y-104274880D02*
X69270595Y-104274880D01*
X69556309Y-104274880D02*
X69556309Y-103274880D01*
X69461071Y-103417738D01*
X69365833Y-103512976D01*
X69270595Y-103560595D01*
X70222976Y-103370119D02*
X70270595Y-103322500D01*
X70365833Y-103274880D01*
X70603928Y-103274880D01*
X70699166Y-103322500D01*
X70746785Y-103370119D01*
X70794404Y-103465357D01*
X70794404Y-103560595D01*
X70746785Y-103703452D01*
X70175357Y-104274880D01*
X70794404Y-104274880D01*
%TO.C,C11*%
X69207142Y-105767142D02*
X69159523Y-105814761D01*
X69016666Y-105862380D01*
X68921428Y-105862380D01*
X68778571Y-105814761D01*
X68683333Y-105719523D01*
X68635714Y-105624285D01*
X68588095Y-105433809D01*
X68588095Y-105290952D01*
X68635714Y-105100476D01*
X68683333Y-105005238D01*
X68778571Y-104910000D01*
X68921428Y-104862380D01*
X69016666Y-104862380D01*
X69159523Y-104910000D01*
X69207142Y-104957619D01*
X70159523Y-105862380D02*
X69588095Y-105862380D01*
X69873809Y-105862380D02*
X69873809Y-104862380D01*
X69778571Y-105005238D01*
X69683333Y-105100476D01*
X69588095Y-105148095D01*
X71111904Y-105862380D02*
X70540476Y-105862380D01*
X70826190Y-105862380D02*
X70826190Y-104862380D01*
X70730952Y-105005238D01*
X70635714Y-105100476D01*
X70540476Y-105148095D01*
%TO.C,C10*%
X81002142Y-114180857D02*
X81049761Y-114228476D01*
X81097380Y-114371333D01*
X81097380Y-114466571D01*
X81049761Y-114609428D01*
X80954523Y-114704666D01*
X80859285Y-114752285D01*
X80668809Y-114799904D01*
X80525952Y-114799904D01*
X80335476Y-114752285D01*
X80240238Y-114704666D01*
X80145000Y-114609428D01*
X80097380Y-114466571D01*
X80097380Y-114371333D01*
X80145000Y-114228476D01*
X80192619Y-114180857D01*
X81097380Y-113228476D02*
X81097380Y-113799904D01*
X81097380Y-113514190D02*
X80097380Y-113514190D01*
X80240238Y-113609428D01*
X80335476Y-113704666D01*
X80383095Y-113799904D01*
X80097380Y-112609428D02*
X80097380Y-112514190D01*
X80145000Y-112418952D01*
X80192619Y-112371333D01*
X80287857Y-112323714D01*
X80478333Y-112276095D01*
X80716428Y-112276095D01*
X80906904Y-112323714D01*
X81002142Y-112371333D01*
X81049761Y-112418952D01*
X81097380Y-112514190D01*
X81097380Y-112609428D01*
X81049761Y-112704666D01*
X81002142Y-112752285D01*
X80906904Y-112799904D01*
X80716428Y-112847523D01*
X80478333Y-112847523D01*
X80287857Y-112799904D01*
X80192619Y-112752285D01*
X80145000Y-112704666D01*
X80097380Y-112609428D01*
%TO.C,C6*%
X61555333Y-109450142D02*
X61507714Y-109497761D01*
X61364857Y-109545380D01*
X61269619Y-109545380D01*
X61126761Y-109497761D01*
X61031523Y-109402523D01*
X60983904Y-109307285D01*
X60936285Y-109116809D01*
X60936285Y-108973952D01*
X60983904Y-108783476D01*
X61031523Y-108688238D01*
X61126761Y-108593000D01*
X61269619Y-108545380D01*
X61364857Y-108545380D01*
X61507714Y-108593000D01*
X61555333Y-108640619D01*
X62412476Y-108545380D02*
X62222000Y-108545380D01*
X62126761Y-108593000D01*
X62079142Y-108640619D01*
X61983904Y-108783476D01*
X61936285Y-108973952D01*
X61936285Y-109354904D01*
X61983904Y-109450142D01*
X62031523Y-109497761D01*
X62126761Y-109545380D01*
X62317238Y-109545380D01*
X62412476Y-109497761D01*
X62460095Y-109450142D01*
X62507714Y-109354904D01*
X62507714Y-109116809D01*
X62460095Y-109021571D01*
X62412476Y-108973952D01*
X62317238Y-108926333D01*
X62126761Y-108926333D01*
X62031523Y-108973952D01*
X61983904Y-109021571D01*
X61936285Y-109116809D01*
%TO.C,SW2*%
X29464166Y-118514761D02*
X29607023Y-118562380D01*
X29845119Y-118562380D01*
X29940357Y-118514761D01*
X29987976Y-118467142D01*
X30035595Y-118371904D01*
X30035595Y-118276666D01*
X29987976Y-118181428D01*
X29940357Y-118133809D01*
X29845119Y-118086190D01*
X29654642Y-118038571D01*
X29559404Y-117990952D01*
X29511785Y-117943333D01*
X29464166Y-117848095D01*
X29464166Y-117752857D01*
X29511785Y-117657619D01*
X29559404Y-117610000D01*
X29654642Y-117562380D01*
X29892738Y-117562380D01*
X30035595Y-117610000D01*
X30368928Y-117562380D02*
X30607023Y-118562380D01*
X30797500Y-117848095D01*
X30987976Y-118562380D01*
X31226071Y-117562380D01*
X31559404Y-117657619D02*
X31607023Y-117610000D01*
X31702261Y-117562380D01*
X31940357Y-117562380D01*
X32035595Y-117610000D01*
X32083214Y-117657619D01*
X32130833Y-117752857D01*
X32130833Y-117848095D01*
X32083214Y-117990952D01*
X31511785Y-118562380D01*
X32130833Y-118562380D01*
%TO.C,U1*%
X29702095Y-119065380D02*
X29702095Y-119874904D01*
X29749714Y-119970142D01*
X29797333Y-120017761D01*
X29892571Y-120065380D01*
X30083047Y-120065380D01*
X30178285Y-120017761D01*
X30225904Y-119970142D01*
X30273523Y-119874904D01*
X30273523Y-119065380D01*
X31273523Y-120065380D02*
X30702095Y-120065380D01*
X30987809Y-120065380D02*
X30987809Y-119065380D01*
X30892571Y-119208238D01*
X30797333Y-119303476D01*
X30702095Y-119351095D01*
%TO.C,R10*%
X23169642Y-123515380D02*
X22836309Y-123039190D01*
X22598214Y-123515380D02*
X22598214Y-122515380D01*
X22979166Y-122515380D01*
X23074404Y-122563000D01*
X23122023Y-122610619D01*
X23169642Y-122705857D01*
X23169642Y-122848714D01*
X23122023Y-122943952D01*
X23074404Y-122991571D01*
X22979166Y-123039190D01*
X22598214Y-123039190D01*
X24122023Y-123515380D02*
X23550595Y-123515380D01*
X23836309Y-123515380D02*
X23836309Y-122515380D01*
X23741071Y-122658238D01*
X23645833Y-122753476D01*
X23550595Y-122801095D01*
X24741071Y-122515380D02*
X24836309Y-122515380D01*
X24931547Y-122563000D01*
X24979166Y-122610619D01*
X25026785Y-122705857D01*
X25074404Y-122896333D01*
X25074404Y-123134428D01*
X25026785Y-123324904D01*
X24979166Y-123420142D01*
X24931547Y-123467761D01*
X24836309Y-123515380D01*
X24741071Y-123515380D01*
X24645833Y-123467761D01*
X24598214Y-123420142D01*
X24550595Y-123324904D01*
X24502976Y-123134428D01*
X24502976Y-122896333D01*
X24550595Y-122705857D01*
X24598214Y-122610619D01*
X24645833Y-122563000D01*
X24741071Y-122515380D01*
%TO.C,R5*%
X39822380Y-102211666D02*
X39346190Y-102545000D01*
X39822380Y-102783095D02*
X38822380Y-102783095D01*
X38822380Y-102402142D01*
X38870000Y-102306904D01*
X38917619Y-102259285D01*
X39012857Y-102211666D01*
X39155714Y-102211666D01*
X39250952Y-102259285D01*
X39298571Y-102306904D01*
X39346190Y-102402142D01*
X39346190Y-102783095D01*
X38822380Y-101306904D02*
X38822380Y-101783095D01*
X39298571Y-101830714D01*
X39250952Y-101783095D01*
X39203333Y-101687857D01*
X39203333Y-101449761D01*
X39250952Y-101354523D01*
X39298571Y-101306904D01*
X39393809Y-101259285D01*
X39631904Y-101259285D01*
X39727142Y-101306904D01*
X39774761Y-101354523D01*
X39822380Y-101449761D01*
X39822380Y-101687857D01*
X39774761Y-101783095D01*
X39727142Y-101830714D01*
%TO.C,R13*%
X39822380Y-107640357D02*
X39346190Y-107973690D01*
X39822380Y-108211785D02*
X38822380Y-108211785D01*
X38822380Y-107830833D01*
X38870000Y-107735595D01*
X38917619Y-107687976D01*
X39012857Y-107640357D01*
X39155714Y-107640357D01*
X39250952Y-107687976D01*
X39298571Y-107735595D01*
X39346190Y-107830833D01*
X39346190Y-108211785D01*
X39822380Y-106687976D02*
X39822380Y-107259404D01*
X39822380Y-106973690D02*
X38822380Y-106973690D01*
X38965238Y-107068928D01*
X39060476Y-107164166D01*
X39108095Y-107259404D01*
X38822380Y-106354642D02*
X38822380Y-105735595D01*
X39203333Y-106068928D01*
X39203333Y-105926071D01*
X39250952Y-105830833D01*
X39298571Y-105783214D01*
X39393809Y-105735595D01*
X39631904Y-105735595D01*
X39727142Y-105783214D01*
X39774761Y-105830833D01*
X39822380Y-105926071D01*
X39822380Y-106211785D01*
X39774761Y-106307023D01*
X39727142Y-106354642D01*
%TO.C,C5*%
X82589642Y-114784166D02*
X82637261Y-114831785D01*
X82684880Y-114974642D01*
X82684880Y-115069880D01*
X82637261Y-115212738D01*
X82542023Y-115307976D01*
X82446785Y-115355595D01*
X82256309Y-115403214D01*
X82113452Y-115403214D01*
X81922976Y-115355595D01*
X81827738Y-115307976D01*
X81732500Y-115212738D01*
X81684880Y-115069880D01*
X81684880Y-114974642D01*
X81732500Y-114831785D01*
X81780119Y-114784166D01*
X81684880Y-113879404D02*
X81684880Y-114355595D01*
X82161071Y-114403214D01*
X82113452Y-114355595D01*
X82065833Y-114260357D01*
X82065833Y-114022261D01*
X82113452Y-113927023D01*
X82161071Y-113879404D01*
X82256309Y-113831785D01*
X82494404Y-113831785D01*
X82589642Y-113879404D01*
X82637261Y-113927023D01*
X82684880Y-114022261D01*
X82684880Y-114260357D01*
X82637261Y-114355595D01*
X82589642Y-114403214D01*
%TO.C,C4*%
X71461333Y-116435142D02*
X71413714Y-116482761D01*
X71270857Y-116530380D01*
X71175619Y-116530380D01*
X71032761Y-116482761D01*
X70937523Y-116387523D01*
X70889904Y-116292285D01*
X70842285Y-116101809D01*
X70842285Y-115958952D01*
X70889904Y-115768476D01*
X70937523Y-115673238D01*
X71032761Y-115578000D01*
X71175619Y-115530380D01*
X71270857Y-115530380D01*
X71413714Y-115578000D01*
X71461333Y-115625619D01*
X72318476Y-115863714D02*
X72318476Y-116530380D01*
X72080380Y-115482761D02*
X71842285Y-116197047D01*
X72461333Y-116197047D01*
%TO.C,L1*%
X92543333Y-96972380D02*
X92067142Y-96972380D01*
X92067142Y-95972380D01*
X93400476Y-96972380D02*
X92829047Y-96972380D01*
X93114761Y-96972380D02*
X93114761Y-95972380D01*
X93019523Y-96115238D01*
X92924285Y-96210476D01*
X92829047Y-96258095D01*
%TO.C,F1*%
X93329166Y-99941071D02*
X92995833Y-99941071D01*
X92995833Y-100464880D02*
X92995833Y-99464880D01*
X93472023Y-99464880D01*
X94376785Y-100464880D02*
X93805357Y-100464880D01*
X94091071Y-100464880D02*
X94091071Y-99464880D01*
X93995833Y-99607738D01*
X93900595Y-99702976D01*
X93805357Y-99750595D01*
%TO.C,D3*%
D10*
X80625904Y-104412976D02*
X79825904Y-104412976D01*
X79825904Y-104222500D01*
X79864000Y-104108214D01*
X79940190Y-104032023D01*
X80016380Y-103993928D01*
X80168761Y-103955833D01*
X80283047Y-103955833D01*
X80435428Y-103993928D01*
X80511619Y-104032023D01*
X80587809Y-104108214D01*
X80625904Y-104222500D01*
X80625904Y-104412976D01*
X79825904Y-103689166D02*
X79825904Y-103193928D01*
X80130666Y-103460595D01*
X80130666Y-103346309D01*
X80168761Y-103270119D01*
X80206857Y-103232023D01*
X80283047Y-103193928D01*
X80473523Y-103193928D01*
X80549714Y-103232023D01*
X80587809Y-103270119D01*
X80625904Y-103346309D01*
X80625904Y-103574880D01*
X80587809Y-103651071D01*
X80549714Y-103689166D01*
%TO.C,U4*%
D12*
X65913095Y-103274880D02*
X65913095Y-104084404D01*
X65960714Y-104179642D01*
X66008333Y-104227261D01*
X66103571Y-104274880D01*
X66294047Y-104274880D01*
X66389285Y-104227261D01*
X66436904Y-104179642D01*
X66484523Y-104084404D01*
X66484523Y-103274880D01*
X67389285Y-103608214D02*
X67389285Y-104274880D01*
X67151190Y-103227261D02*
X66913095Y-103941547D01*
X67532142Y-103941547D01*
%TO.C,U2*%
X36068095Y-108989880D02*
X36068095Y-109799404D01*
X36115714Y-109894642D01*
X36163333Y-109942261D01*
X36258571Y-109989880D01*
X36449047Y-109989880D01*
X36544285Y-109942261D01*
X36591904Y-109894642D01*
X36639523Y-109799404D01*
X36639523Y-108989880D01*
X37068095Y-109085119D02*
X37115714Y-109037500D01*
X37210952Y-108989880D01*
X37449047Y-108989880D01*
X37544285Y-109037500D01*
X37591904Y-109085119D01*
X37639523Y-109180357D01*
X37639523Y-109275595D01*
X37591904Y-109418452D01*
X37020476Y-109989880D01*
X37639523Y-109989880D01*
%TO.C,R20*%
D10*
X94341904Y-109416785D02*
X93960952Y-109683452D01*
X94341904Y-109873928D02*
X93541904Y-109873928D01*
X93541904Y-109569166D01*
X93580000Y-109492976D01*
X93618095Y-109454880D01*
X93694285Y-109416785D01*
X93808571Y-109416785D01*
X93884761Y-109454880D01*
X93922857Y-109492976D01*
X93960952Y-109569166D01*
X93960952Y-109873928D01*
X93618095Y-109112023D02*
X93580000Y-109073928D01*
X93541904Y-108997738D01*
X93541904Y-108807261D01*
X93580000Y-108731071D01*
X93618095Y-108692976D01*
X93694285Y-108654880D01*
X93770476Y-108654880D01*
X93884761Y-108692976D01*
X94341904Y-109150119D01*
X94341904Y-108654880D01*
X93541904Y-108159642D02*
X93541904Y-108083452D01*
X93580000Y-108007261D01*
X93618095Y-107969166D01*
X93694285Y-107931071D01*
X93846666Y-107892976D01*
X94037142Y-107892976D01*
X94189523Y-107931071D01*
X94265714Y-107969166D01*
X94303809Y-108007261D01*
X94341904Y-108083452D01*
X94341904Y-108159642D01*
X94303809Y-108235833D01*
X94265714Y-108273928D01*
X94189523Y-108312023D01*
X94037142Y-108350119D01*
X93846666Y-108350119D01*
X93694285Y-108312023D01*
X93618095Y-108273928D01*
X93580000Y-108235833D01*
X93541904Y-108159642D01*
%TO.C,R19*%
D12*
X89082142Y-96972380D02*
X88748809Y-96496190D01*
X88510714Y-96972380D02*
X88510714Y-95972380D01*
X88891666Y-95972380D01*
X88986904Y-96020000D01*
X89034523Y-96067619D01*
X89082142Y-96162857D01*
X89082142Y-96305714D01*
X89034523Y-96400952D01*
X88986904Y-96448571D01*
X88891666Y-96496190D01*
X88510714Y-96496190D01*
X90034523Y-96972380D02*
X89463095Y-96972380D01*
X89748809Y-96972380D02*
X89748809Y-95972380D01*
X89653571Y-96115238D01*
X89558333Y-96210476D01*
X89463095Y-96258095D01*
X90510714Y-96972380D02*
X90701190Y-96972380D01*
X90796428Y-96924761D01*
X90844047Y-96877142D01*
X90939285Y-96734285D01*
X90986904Y-96543809D01*
X90986904Y-96162857D01*
X90939285Y-96067619D01*
X90891666Y-96020000D01*
X90796428Y-95972380D01*
X90605952Y-95972380D01*
X90510714Y-96020000D01*
X90463095Y-96067619D01*
X90415476Y-96162857D01*
X90415476Y-96400952D01*
X90463095Y-96496190D01*
X90510714Y-96543809D01*
X90605952Y-96591428D01*
X90796428Y-96591428D01*
X90891666Y-96543809D01*
X90939285Y-96496190D01*
X90986904Y-96400952D01*
%TO.C,R18*%
D10*
X90849404Y-105924285D02*
X90468452Y-106190952D01*
X90849404Y-106381428D02*
X90049404Y-106381428D01*
X90049404Y-106076666D01*
X90087500Y-106000476D01*
X90125595Y-105962380D01*
X90201785Y-105924285D01*
X90316071Y-105924285D01*
X90392261Y-105962380D01*
X90430357Y-106000476D01*
X90468452Y-106076666D01*
X90468452Y-106381428D01*
X90849404Y-105162380D02*
X90849404Y-105619523D01*
X90849404Y-105390952D02*
X90049404Y-105390952D01*
X90163690Y-105467142D01*
X90239880Y-105543333D01*
X90277976Y-105619523D01*
X90392261Y-104705238D02*
X90354166Y-104781428D01*
X90316071Y-104819523D01*
X90239880Y-104857619D01*
X90201785Y-104857619D01*
X90125595Y-104819523D01*
X90087500Y-104781428D01*
X90049404Y-104705238D01*
X90049404Y-104552857D01*
X90087500Y-104476666D01*
X90125595Y-104438571D01*
X90201785Y-104400476D01*
X90239880Y-104400476D01*
X90316071Y-104438571D01*
X90354166Y-104476666D01*
X90392261Y-104552857D01*
X90392261Y-104705238D01*
X90430357Y-104781428D01*
X90468452Y-104819523D01*
X90544642Y-104857619D01*
X90697023Y-104857619D01*
X90773214Y-104819523D01*
X90811309Y-104781428D01*
X90849404Y-104705238D01*
X90849404Y-104552857D01*
X90811309Y-104476666D01*
X90773214Y-104438571D01*
X90697023Y-104400476D01*
X90544642Y-104400476D01*
X90468452Y-104438571D01*
X90430357Y-104476666D01*
X90392261Y-104552857D01*
%TO.C,R17*%
X94735714Y-106089404D02*
X94469047Y-105708452D01*
X94278571Y-106089404D02*
X94278571Y-105289404D01*
X94583333Y-105289404D01*
X94659523Y-105327500D01*
X94697619Y-105365595D01*
X94735714Y-105441785D01*
X94735714Y-105556071D01*
X94697619Y-105632261D01*
X94659523Y-105670357D01*
X94583333Y-105708452D01*
X94278571Y-105708452D01*
X95497619Y-106089404D02*
X95040476Y-106089404D01*
X95269047Y-106089404D02*
X95269047Y-105289404D01*
X95192857Y-105403690D01*
X95116666Y-105479880D01*
X95040476Y-105517976D01*
X95764285Y-105289404D02*
X96297619Y-105289404D01*
X95954761Y-106089404D01*
%TO.C,R14*%
D12*
X64269880Y-101925357D02*
X63793690Y-102258690D01*
X64269880Y-102496785D02*
X63269880Y-102496785D01*
X63269880Y-102115833D01*
X63317500Y-102020595D01*
X63365119Y-101972976D01*
X63460357Y-101925357D01*
X63603214Y-101925357D01*
X63698452Y-101972976D01*
X63746071Y-102020595D01*
X63793690Y-102115833D01*
X63793690Y-102496785D01*
X64269880Y-100972976D02*
X64269880Y-101544404D01*
X64269880Y-101258690D02*
X63269880Y-101258690D01*
X63412738Y-101353928D01*
X63507976Y-101449166D01*
X63555595Y-101544404D01*
X63603214Y-100115833D02*
X64269880Y-100115833D01*
X63222261Y-100353928D02*
X63936547Y-100592023D01*
X63936547Y-99972976D01*
%TO.C,R9*%
X23963333Y-120149880D02*
X23630000Y-119673690D01*
X23391904Y-120149880D02*
X23391904Y-119149880D01*
X23772857Y-119149880D01*
X23868095Y-119197500D01*
X23915714Y-119245119D01*
X23963333Y-119340357D01*
X23963333Y-119483214D01*
X23915714Y-119578452D01*
X23868095Y-119626071D01*
X23772857Y-119673690D01*
X23391904Y-119673690D01*
X24439523Y-120149880D02*
X24630000Y-120149880D01*
X24725238Y-120102261D01*
X24772857Y-120054642D01*
X24868095Y-119911785D01*
X24915714Y-119721309D01*
X24915714Y-119340357D01*
X24868095Y-119245119D01*
X24820476Y-119197500D01*
X24725238Y-119149880D01*
X24534761Y-119149880D01*
X24439523Y-119197500D01*
X24391904Y-119245119D01*
X24344285Y-119340357D01*
X24344285Y-119578452D01*
X24391904Y-119673690D01*
X24439523Y-119721309D01*
X24534761Y-119768928D01*
X24725238Y-119768928D01*
X24820476Y-119721309D01*
X24868095Y-119673690D01*
X24915714Y-119578452D01*
%TO.C,R8*%
X80795833Y-119514880D02*
X80462500Y-119038690D01*
X80224404Y-119514880D02*
X80224404Y-118514880D01*
X80605357Y-118514880D01*
X80700595Y-118562500D01*
X80748214Y-118610119D01*
X80795833Y-118705357D01*
X80795833Y-118848214D01*
X80748214Y-118943452D01*
X80700595Y-118991071D01*
X80605357Y-119038690D01*
X80224404Y-119038690D01*
X81367261Y-118943452D02*
X81272023Y-118895833D01*
X81224404Y-118848214D01*
X81176785Y-118752976D01*
X81176785Y-118705357D01*
X81224404Y-118610119D01*
X81272023Y-118562500D01*
X81367261Y-118514880D01*
X81557738Y-118514880D01*
X81652976Y-118562500D01*
X81700595Y-118610119D01*
X81748214Y-118705357D01*
X81748214Y-118752976D01*
X81700595Y-118848214D01*
X81652976Y-118895833D01*
X81557738Y-118943452D01*
X81367261Y-118943452D01*
X81272023Y-118991071D01*
X81224404Y-119038690D01*
X81176785Y-119133928D01*
X81176785Y-119324404D01*
X81224404Y-119419642D01*
X81272023Y-119467261D01*
X81367261Y-119514880D01*
X81557738Y-119514880D01*
X81652976Y-119467261D01*
X81700595Y-119419642D01*
X81748214Y-119324404D01*
X81748214Y-119133928D01*
X81700595Y-119038690D01*
X81652976Y-118991071D01*
X81557738Y-118943452D01*
%TO.C,Q2*%
X79914761Y-122150119D02*
X79819523Y-122102500D01*
X79724285Y-122007261D01*
X79581428Y-121864404D01*
X79486190Y-121816785D01*
X79390952Y-121816785D01*
X79438571Y-122054880D02*
X79343333Y-122007261D01*
X79248095Y-121912023D01*
X79200476Y-121721547D01*
X79200476Y-121388214D01*
X79248095Y-121197738D01*
X79343333Y-121102500D01*
X79438571Y-121054880D01*
X79629047Y-121054880D01*
X79724285Y-121102500D01*
X79819523Y-121197738D01*
X79867142Y-121388214D01*
X79867142Y-121721547D01*
X79819523Y-121912023D01*
X79724285Y-122007261D01*
X79629047Y-122054880D01*
X79438571Y-122054880D01*
X80248095Y-121150119D02*
X80295714Y-121102500D01*
X80390952Y-121054880D01*
X80629047Y-121054880D01*
X80724285Y-121102500D01*
X80771904Y-121150119D01*
X80819523Y-121245357D01*
X80819523Y-121340595D01*
X80771904Y-121483452D01*
X80200476Y-122054880D01*
X80819523Y-122054880D01*
%TO.C,L2*%
D10*
X88068166Y-109645404D02*
X87687214Y-109645404D01*
X87687214Y-108845404D01*
X88296738Y-108921595D02*
X88334833Y-108883500D01*
X88411023Y-108845404D01*
X88601500Y-108845404D01*
X88677690Y-108883500D01*
X88715785Y-108921595D01*
X88753880Y-108997785D01*
X88753880Y-109073976D01*
X88715785Y-109188261D01*
X88258642Y-109645404D01*
X88753880Y-109645404D01*
%TO.C,D2*%
X93072023Y-102914404D02*
X93072023Y-102114404D01*
X93262500Y-102114404D01*
X93376785Y-102152500D01*
X93452976Y-102228690D01*
X93491071Y-102304880D01*
X93529166Y-102457261D01*
X93529166Y-102571547D01*
X93491071Y-102723928D01*
X93452976Y-102800119D01*
X93376785Y-102876309D01*
X93262500Y-102914404D01*
X93072023Y-102914404D01*
X93833928Y-102190595D02*
X93872023Y-102152500D01*
X93948214Y-102114404D01*
X94138690Y-102114404D01*
X94214880Y-102152500D01*
X94252976Y-102190595D01*
X94291071Y-102266785D01*
X94291071Y-102342976D01*
X94252976Y-102457261D01*
X93795833Y-102914404D01*
X94291071Y-102914404D01*
%TO.C,D1*%
D12*
X94829404Y-121419880D02*
X94829404Y-120419880D01*
X95067500Y-120419880D01*
X95210357Y-120467500D01*
X95305595Y-120562738D01*
X95353214Y-120657976D01*
X95400833Y-120848452D01*
X95400833Y-120991309D01*
X95353214Y-121181785D01*
X95305595Y-121277023D01*
X95210357Y-121372261D01*
X95067500Y-121419880D01*
X94829404Y-121419880D01*
X96353214Y-121419880D02*
X95781785Y-121419880D01*
X96067500Y-121419880D02*
X96067500Y-120419880D01*
X95972261Y-120562738D01*
X95877023Y-120657976D01*
X95781785Y-120705595D01*
%TO.C,C13*%
D10*
X88614214Y-107892785D02*
X88652309Y-107930880D01*
X88690404Y-108045166D01*
X88690404Y-108121357D01*
X88652309Y-108235642D01*
X88576119Y-108311833D01*
X88499928Y-108349928D01*
X88347547Y-108388023D01*
X88233261Y-108388023D01*
X88080880Y-108349928D01*
X88004690Y-108311833D01*
X87928500Y-108235642D01*
X87890404Y-108121357D01*
X87890404Y-108045166D01*
X87928500Y-107930880D01*
X87966595Y-107892785D01*
X88690404Y-107130880D02*
X88690404Y-107588023D01*
X88690404Y-107359452D02*
X87890404Y-107359452D01*
X88004690Y-107435642D01*
X88080880Y-107511833D01*
X88118976Y-107588023D01*
X87890404Y-106864214D02*
X87890404Y-106368976D01*
X88195166Y-106635642D01*
X88195166Y-106521357D01*
X88233261Y-106445166D01*
X88271357Y-106407071D01*
X88347547Y-106368976D01*
X88538023Y-106368976D01*
X88614214Y-106407071D01*
X88652309Y-106445166D01*
X88690404Y-106521357D01*
X88690404Y-106749928D01*
X88652309Y-106826119D01*
X88614214Y-106864214D01*
%TO.C,C9*%
D12*
X81002142Y-110656666D02*
X81049761Y-110704285D01*
X81097380Y-110847142D01*
X81097380Y-110942380D01*
X81049761Y-111085238D01*
X80954523Y-111180476D01*
X80859285Y-111228095D01*
X80668809Y-111275714D01*
X80525952Y-111275714D01*
X80335476Y-111228095D01*
X80240238Y-111180476D01*
X80145000Y-111085238D01*
X80097380Y-110942380D01*
X80097380Y-110847142D01*
X80145000Y-110704285D01*
X80192619Y-110656666D01*
X81097380Y-110180476D02*
X81097380Y-109990000D01*
X81049761Y-109894761D01*
X81002142Y-109847142D01*
X80859285Y-109751904D01*
X80668809Y-109704285D01*
X80287857Y-109704285D01*
X80192619Y-109751904D01*
X80145000Y-109799523D01*
X80097380Y-109894761D01*
X80097380Y-110085238D01*
X80145000Y-110180476D01*
X80192619Y-110228095D01*
X80287857Y-110275714D01*
X80525952Y-110275714D01*
X80621190Y-110228095D01*
X80668809Y-110180476D01*
X80716428Y-110085238D01*
X80716428Y-109894761D01*
X80668809Y-109799523D01*
X80621190Y-109751904D01*
X80525952Y-109704285D01*
%TO.C,C8*%
X83224642Y-100674166D02*
X83272261Y-100721785D01*
X83319880Y-100864642D01*
X83319880Y-100959880D01*
X83272261Y-101102738D01*
X83177023Y-101197976D01*
X83081785Y-101245595D01*
X82891309Y-101293214D01*
X82748452Y-101293214D01*
X82557976Y-101245595D01*
X82462738Y-101197976D01*
X82367500Y-101102738D01*
X82319880Y-100959880D01*
X82319880Y-100864642D01*
X82367500Y-100721785D01*
X82415119Y-100674166D01*
X82748452Y-100102738D02*
X82700833Y-100197976D01*
X82653214Y-100245595D01*
X82557976Y-100293214D01*
X82510357Y-100293214D01*
X82415119Y-100245595D01*
X82367500Y-100197976D01*
X82319880Y-100102738D01*
X82319880Y-99912261D01*
X82367500Y-99817023D01*
X82415119Y-99769404D01*
X82510357Y-99721785D01*
X82557976Y-99721785D01*
X82653214Y-99769404D01*
X82700833Y-99817023D01*
X82748452Y-99912261D01*
X82748452Y-100102738D01*
X82796071Y-100197976D01*
X82843690Y-100245595D01*
X82938928Y-100293214D01*
X83129404Y-100293214D01*
X83224642Y-100245595D01*
X83272261Y-100197976D01*
X83319880Y-100102738D01*
X83319880Y-99912261D01*
X83272261Y-99817023D01*
X83224642Y-99769404D01*
X83129404Y-99721785D01*
X82938928Y-99721785D01*
X82843690Y-99769404D01*
X82796071Y-99817023D01*
X82748452Y-99912261D01*
%TO.C,C7*%
X78700333Y-97131142D02*
X78652714Y-97178761D01*
X78509857Y-97226380D01*
X78414619Y-97226380D01*
X78271761Y-97178761D01*
X78176523Y-97083523D01*
X78128904Y-96988285D01*
X78081285Y-96797809D01*
X78081285Y-96654952D01*
X78128904Y-96464476D01*
X78176523Y-96369238D01*
X78271761Y-96274000D01*
X78414619Y-96226380D01*
X78509857Y-96226380D01*
X78652714Y-96274000D01*
X78700333Y-96321619D01*
X79033666Y-96226380D02*
X79700333Y-96226380D01*
X79271761Y-97226380D01*
%TO.C,C3*%
X23963333Y-121769142D02*
X23915714Y-121816761D01*
X23772857Y-121864380D01*
X23677619Y-121864380D01*
X23534761Y-121816761D01*
X23439523Y-121721523D01*
X23391904Y-121626285D01*
X23344285Y-121435809D01*
X23344285Y-121292952D01*
X23391904Y-121102476D01*
X23439523Y-121007238D01*
X23534761Y-120912000D01*
X23677619Y-120864380D01*
X23772857Y-120864380D01*
X23915714Y-120912000D01*
X23963333Y-120959619D01*
X24296666Y-120864380D02*
X24915714Y-120864380D01*
X24582380Y-121245333D01*
X24725238Y-121245333D01*
X24820476Y-121292952D01*
X24868095Y-121340571D01*
X24915714Y-121435809D01*
X24915714Y-121673904D01*
X24868095Y-121769142D01*
X24820476Y-121816761D01*
X24725238Y-121864380D01*
X24439523Y-121864380D01*
X24344285Y-121816761D01*
X24296666Y-121769142D01*
%TO.C,C2*%
X58253333Y-101639642D02*
X58205714Y-101687261D01*
X58062857Y-101734880D01*
X57967619Y-101734880D01*
X57824761Y-101687261D01*
X57729523Y-101592023D01*
X57681904Y-101496785D01*
X57634285Y-101306309D01*
X57634285Y-101163452D01*
X57681904Y-100972976D01*
X57729523Y-100877738D01*
X57824761Y-100782500D01*
X57967619Y-100734880D01*
X58062857Y-100734880D01*
X58205714Y-100782500D01*
X58253333Y-100830119D01*
X58634285Y-100830119D02*
X58681904Y-100782500D01*
X58777142Y-100734880D01*
X59015238Y-100734880D01*
X59110476Y-100782500D01*
X59158095Y-100830119D01*
X59205714Y-100925357D01*
X59205714Y-101020595D01*
X59158095Y-101163452D01*
X58586666Y-101734880D01*
X59205714Y-101734880D01*
%TO.C,C1*%
X23963333Y-118467142D02*
X23915714Y-118514761D01*
X23772857Y-118562380D01*
X23677619Y-118562380D01*
X23534761Y-118514761D01*
X23439523Y-118419523D01*
X23391904Y-118324285D01*
X23344285Y-118133809D01*
X23344285Y-117990952D01*
X23391904Y-117800476D01*
X23439523Y-117705238D01*
X23534761Y-117610000D01*
X23677619Y-117562380D01*
X23772857Y-117562380D01*
X23915714Y-117610000D01*
X23963333Y-117657619D01*
X24915714Y-118562380D02*
X24344285Y-118562380D01*
X24630000Y-118562380D02*
X24630000Y-117562380D01*
X24534761Y-117705238D01*
X24439523Y-117800476D01*
X24344285Y-117848095D01*
%TD*%
D18*
X104648000Y-119888000D02*
X96964500Y-119888000D01*
X96964500Y-118872000D01*
X104648000Y-118872000D01*
X104648000Y-119888000D01*
D15*
G36*
X104648000Y-119888000D02*
G01*
X96964500Y-119888000D01*
X96964500Y-118872000D01*
X104648000Y-118872000D01*
X104648000Y-119888000D01*
G37*
D18*
X98933000Y-123698000D02*
X96964500Y-123698000D01*
X96964500Y-120142000D01*
X98933000Y-120142000D01*
X98933000Y-123698000D01*
D15*
G36*
X98933000Y-123698000D02*
G01*
X96964500Y-123698000D01*
X96964500Y-120142000D01*
X98933000Y-120142000D01*
X98933000Y-123698000D01*
G37*
D18*
X56070500Y-121158000D02*
X46355000Y-121158000D01*
X46330224Y-121160440D01*
X46306399Y-121167667D01*
X46284443Y-121179403D01*
X46265197Y-121195197D01*
X46249403Y-121214443D01*
X46237667Y-121236399D01*
X46230440Y-121260224D01*
X46228000Y-121285000D01*
X46228000Y-123698000D01*
X44259500Y-123698000D01*
X44259500Y-120142000D01*
X56070500Y-120142000D01*
X56070500Y-121158000D01*
D15*
G36*
X56070500Y-121158000D02*
G01*
X46355000Y-121158000D01*
X46330224Y-121160440D01*
X46306399Y-121167667D01*
X46284443Y-121179403D01*
X46265197Y-121195197D01*
X46249403Y-121214443D01*
X46237667Y-121236399D01*
X46230440Y-121260224D01*
X46228000Y-121285000D01*
X46228000Y-123698000D01*
X44259500Y-123698000D01*
X44259500Y-120142000D01*
X56070500Y-120142000D01*
X56070500Y-121158000D01*
G37*
D18*
X64643000Y-99250500D02*
X41084500Y-99250500D01*
X41084500Y-96012000D01*
X64643000Y-96012000D01*
X64643000Y-99250500D01*
D15*
G36*
X64643000Y-99250500D02*
G01*
X41084500Y-99250500D01*
X41084500Y-96012000D01*
X64643000Y-96012000D01*
X64643000Y-99250500D01*
G37*
D18*
X67183000Y-121158000D02*
X63627000Y-121158000D01*
X63627000Y-120142000D01*
X67183000Y-120142000D01*
X67183000Y-121158000D01*
D15*
G36*
X67183000Y-121158000D02*
G01*
X63627000Y-121158000D01*
X63627000Y-120142000D01*
X67183000Y-120142000D01*
X67183000Y-121158000D01*
G37*
%LPC*%
D10*
X66509880Y-120478571D02*
X66509880Y-121011904D01*
X66319404Y-120173809D02*
X66128928Y-120745238D01*
X66624166Y-120745238D01*
X64185833Y-120211904D02*
X64681071Y-120211904D01*
X64414404Y-120516666D01*
X64528690Y-120516666D01*
X64604880Y-120554761D01*
X64642976Y-120592857D01*
X64681071Y-120669047D01*
X64681071Y-120859523D01*
X64642976Y-120935714D01*
X64604880Y-120973809D01*
X64528690Y-121011904D01*
X64300119Y-121011904D01*
X64223928Y-120973809D01*
X64185833Y-120935714D01*
X54762380Y-120542071D02*
X54762380Y-121075404D01*
X54571904Y-120237309D02*
X54381428Y-120808738D01*
X54876666Y-120808738D01*
D12*
X41245476Y-96814166D02*
X41721666Y-96814166D01*
X41150238Y-97099880D02*
X41483571Y-96099880D01*
X41816904Y-97099880D01*
X42578809Y-97099880D02*
X42578809Y-96099880D01*
X42578809Y-97052261D02*
X42483571Y-97099880D01*
X42293095Y-97099880D01*
X42197857Y-97052261D01*
X42150238Y-97004642D01*
X42102619Y-96909404D01*
X42102619Y-96623690D01*
X42150238Y-96528452D01*
X42197857Y-96480833D01*
X42293095Y-96433214D01*
X42483571Y-96433214D01*
X42578809Y-96480833D01*
X42959761Y-96433214D02*
X43197857Y-97099880D01*
X43435952Y-96433214D01*
X44245476Y-97099880D02*
X44245476Y-96576071D01*
X44197857Y-96480833D01*
X44102619Y-96433214D01*
X43912142Y-96433214D01*
X43816904Y-96480833D01*
X44245476Y-97052261D02*
X44150238Y-97099880D01*
X43912142Y-97099880D01*
X43816904Y-97052261D01*
X43769285Y-96957023D01*
X43769285Y-96861785D01*
X43816904Y-96766547D01*
X43912142Y-96718928D01*
X44150238Y-96718928D01*
X44245476Y-96671309D01*
X44721666Y-96433214D02*
X44721666Y-97099880D01*
X44721666Y-96528452D02*
X44769285Y-96480833D01*
X44864523Y-96433214D01*
X45007380Y-96433214D01*
X45102619Y-96480833D01*
X45150238Y-96576071D01*
X45150238Y-97099880D01*
X46055000Y-97052261D02*
X45959761Y-97099880D01*
X45769285Y-97099880D01*
X45674047Y-97052261D01*
X45626428Y-97004642D01*
X45578809Y-96909404D01*
X45578809Y-96623690D01*
X45626428Y-96528452D01*
X45674047Y-96480833D01*
X45769285Y-96433214D01*
X45959761Y-96433214D01*
X46055000Y-96480833D01*
X46864523Y-97052261D02*
X46769285Y-97099880D01*
X46578809Y-97099880D01*
X46483571Y-97052261D01*
X46435952Y-96957023D01*
X46435952Y-96576071D01*
X46483571Y-96480833D01*
X46578809Y-96433214D01*
X46769285Y-96433214D01*
X46864523Y-96480833D01*
X46912142Y-96576071D01*
X46912142Y-96671309D01*
X46435952Y-96766547D01*
X47769285Y-97099880D02*
X47769285Y-96099880D01*
X47769285Y-97052261D02*
X47674047Y-97099880D01*
X47483571Y-97099880D01*
X47388333Y-97052261D01*
X47340714Y-97004642D01*
X47293095Y-96909404D01*
X47293095Y-96623690D01*
X47340714Y-96528452D01*
X47388333Y-96480833D01*
X47483571Y-96433214D01*
X47674047Y-96433214D01*
X47769285Y-96480833D01*
X48959761Y-96814166D02*
X49435952Y-96814166D01*
X48864523Y-97099880D02*
X49197857Y-96099880D01*
X49531190Y-97099880D01*
X50293095Y-96433214D02*
X50293095Y-97099880D01*
X49864523Y-96433214D02*
X49864523Y-96957023D01*
X49912142Y-97052261D01*
X50007380Y-97099880D01*
X50150238Y-97099880D01*
X50245476Y-97052261D01*
X50293095Y-97004642D01*
X50626428Y-96433214D02*
X51007380Y-96433214D01*
X50769285Y-96099880D02*
X50769285Y-96957023D01*
X50816904Y-97052261D01*
X50912142Y-97099880D01*
X51007380Y-97099880D01*
X51483571Y-97099880D02*
X51388333Y-97052261D01*
X51340714Y-97004642D01*
X51293095Y-96909404D01*
X51293095Y-96623690D01*
X51340714Y-96528452D01*
X51388333Y-96480833D01*
X51483571Y-96433214D01*
X51626428Y-96433214D01*
X51721666Y-96480833D01*
X51769285Y-96528452D01*
X51816904Y-96623690D01*
X51816904Y-96909404D01*
X51769285Y-97004642D01*
X51721666Y-97052261D01*
X51626428Y-97099880D01*
X51483571Y-97099880D01*
X52245476Y-97099880D02*
X52245476Y-96433214D01*
X52245476Y-96528452D02*
X52293095Y-96480833D01*
X52388333Y-96433214D01*
X52531190Y-96433214D01*
X52626428Y-96480833D01*
X52674047Y-96576071D01*
X52674047Y-97099880D01*
X52674047Y-96576071D02*
X52721666Y-96480833D01*
X52816904Y-96433214D01*
X52959761Y-96433214D01*
X53055000Y-96480833D01*
X53102619Y-96576071D01*
X53102619Y-97099880D01*
X54007380Y-97099880D02*
X54007380Y-96576071D01*
X53959761Y-96480833D01*
X53864523Y-96433214D01*
X53674047Y-96433214D01*
X53578809Y-96480833D01*
X54007380Y-97052261D02*
X53912142Y-97099880D01*
X53674047Y-97099880D01*
X53578809Y-97052261D01*
X53531190Y-96957023D01*
X53531190Y-96861785D01*
X53578809Y-96766547D01*
X53674047Y-96718928D01*
X53912142Y-96718928D01*
X54007380Y-96671309D01*
X54340714Y-96433214D02*
X54721666Y-96433214D01*
X54483571Y-96099880D02*
X54483571Y-96957023D01*
X54531190Y-97052261D01*
X54626428Y-97099880D01*
X54721666Y-97099880D01*
X55055000Y-97099880D02*
X55055000Y-96433214D01*
X55055000Y-96099880D02*
X55007380Y-96147500D01*
X55055000Y-96195119D01*
X55102619Y-96147500D01*
X55055000Y-96099880D01*
X55055000Y-96195119D01*
X55674047Y-97099880D02*
X55578809Y-97052261D01*
X55531190Y-97004642D01*
X55483571Y-96909404D01*
X55483571Y-96623690D01*
X55531190Y-96528452D01*
X55578809Y-96480833D01*
X55674047Y-96433214D01*
X55816904Y-96433214D01*
X55912142Y-96480833D01*
X55959761Y-96528452D01*
X56007380Y-96623690D01*
X56007380Y-96909404D01*
X55959761Y-97004642D01*
X55912142Y-97052261D01*
X55816904Y-97099880D01*
X55674047Y-97099880D01*
X56435952Y-96433214D02*
X56435952Y-97099880D01*
X56435952Y-96528452D02*
X56483571Y-96480833D01*
X56578809Y-96433214D01*
X56721666Y-96433214D01*
X56816904Y-96480833D01*
X56864523Y-96576071D01*
X56864523Y-97099880D01*
X58055000Y-97052261D02*
X58197857Y-97099880D01*
X58435952Y-97099880D01*
X58531190Y-97052261D01*
X58578809Y-97004642D01*
X58626428Y-96909404D01*
X58626428Y-96814166D01*
X58578809Y-96718928D01*
X58531190Y-96671309D01*
X58435952Y-96623690D01*
X58245476Y-96576071D01*
X58150238Y-96528452D01*
X58102619Y-96480833D01*
X58055000Y-96385595D01*
X58055000Y-96290357D01*
X58102619Y-96195119D01*
X58150238Y-96147500D01*
X58245476Y-96099880D01*
X58483571Y-96099880D01*
X58626428Y-96147500D01*
X59197857Y-97099880D02*
X59102619Y-97052261D01*
X59055000Y-97004642D01*
X59007380Y-96909404D01*
X59007380Y-96623690D01*
X59055000Y-96528452D01*
X59102619Y-96480833D01*
X59197857Y-96433214D01*
X59340714Y-96433214D01*
X59435952Y-96480833D01*
X59483571Y-96528452D01*
X59531190Y-96623690D01*
X59531190Y-96909404D01*
X59483571Y-97004642D01*
X59435952Y-97052261D01*
X59340714Y-97099880D01*
X59197857Y-97099880D01*
X60102619Y-97099880D02*
X60007380Y-97052261D01*
X59959761Y-96957023D01*
X59959761Y-96099880D01*
X60912142Y-96433214D02*
X60912142Y-97099880D01*
X60483571Y-96433214D02*
X60483571Y-96957023D01*
X60531190Y-97052261D01*
X60626428Y-97099880D01*
X60769285Y-97099880D01*
X60864523Y-97052261D01*
X60912142Y-97004642D01*
X61245476Y-96433214D02*
X61626428Y-96433214D01*
X61388333Y-96099880D02*
X61388333Y-96957023D01*
X61435952Y-97052261D01*
X61531190Y-97099880D01*
X61626428Y-97099880D01*
X61959761Y-97099880D02*
X61959761Y-96433214D01*
X61959761Y-96099880D02*
X61912142Y-96147500D01*
X61959761Y-96195119D01*
X62007380Y-96147500D01*
X61959761Y-96099880D01*
X61959761Y-96195119D01*
X62578809Y-97099880D02*
X62483571Y-97052261D01*
X62435952Y-97004642D01*
X62388333Y-96909404D01*
X62388333Y-96623690D01*
X62435952Y-96528452D01*
X62483571Y-96480833D01*
X62578809Y-96433214D01*
X62721666Y-96433214D01*
X62816904Y-96480833D01*
X62864523Y-96528452D01*
X62912142Y-96623690D01*
X62912142Y-96909404D01*
X62864523Y-97004642D01*
X62816904Y-97052261D01*
X62721666Y-97099880D01*
X62578809Y-97099880D01*
X63340714Y-96433214D02*
X63340714Y-97099880D01*
X63340714Y-96528452D02*
X63388333Y-96480833D01*
X63483571Y-96433214D01*
X63626428Y-96433214D01*
X63721666Y-96480833D01*
X63769285Y-96576071D01*
X63769285Y-97099880D01*
X64197857Y-97052261D02*
X64293095Y-97099880D01*
X64483571Y-97099880D01*
X64578809Y-97052261D01*
X64626428Y-96957023D01*
X64626428Y-96909404D01*
X64578809Y-96814166D01*
X64483571Y-96766547D01*
X64340714Y-96766547D01*
X64245476Y-96718928D01*
X64197857Y-96623690D01*
X64197857Y-96576071D01*
X64245476Y-96480833D01*
X64340714Y-96433214D01*
X64483571Y-96433214D01*
X64578809Y-96480833D01*
X41293095Y-98749880D02*
X41293095Y-97749880D01*
X41674047Y-97749880D01*
X41769285Y-97797500D01*
X41816904Y-97845119D01*
X41864523Y-97940357D01*
X41864523Y-98083214D01*
X41816904Y-98178452D01*
X41769285Y-98226071D01*
X41674047Y-98273690D01*
X41293095Y-98273690D01*
X42245476Y-97845119D02*
X42293095Y-97797500D01*
X42388333Y-97749880D01*
X42626428Y-97749880D01*
X42721666Y-97797500D01*
X42769285Y-97845119D01*
X42816904Y-97940357D01*
X42816904Y-98035595D01*
X42769285Y-98178452D01*
X42197857Y-98749880D01*
X42816904Y-98749880D01*
X43721666Y-98749880D02*
X43245476Y-98749880D01*
X43245476Y-97749880D01*
X43959761Y-97749880D02*
X44197857Y-98749880D01*
X44388333Y-98035595D01*
X44578809Y-98749880D01*
X44816904Y-97749880D01*
X45197857Y-98749880D02*
X45197857Y-98083214D01*
X45197857Y-97749880D02*
X45150238Y-97797500D01*
X45197857Y-97845119D01*
X45245476Y-97797500D01*
X45197857Y-97749880D01*
X45197857Y-97845119D01*
X46245476Y-98654642D02*
X46197857Y-98702261D01*
X46055000Y-98749880D01*
X45959761Y-98749880D01*
X45816904Y-98702261D01*
X45721666Y-98607023D01*
X45674047Y-98511785D01*
X45626428Y-98321309D01*
X45626428Y-98178452D01*
X45674047Y-97987976D01*
X45721666Y-97892738D01*
X45816904Y-97797500D01*
X45959761Y-97749880D01*
X46055000Y-97749880D01*
X46197857Y-97797500D01*
X46245476Y-97845119D01*
X47102619Y-98749880D02*
X47102619Y-98226071D01*
X47055000Y-98130833D01*
X46959761Y-98083214D01*
X46769285Y-98083214D01*
X46674047Y-98130833D01*
X47102619Y-98702261D02*
X47007380Y-98749880D01*
X46769285Y-98749880D01*
X46674047Y-98702261D01*
X46626428Y-98607023D01*
X46626428Y-98511785D01*
X46674047Y-98416547D01*
X46769285Y-98368928D01*
X47007380Y-98368928D01*
X47102619Y-98321309D01*
X47578809Y-98083214D02*
X47578809Y-98749880D01*
X47578809Y-98178452D02*
X47626428Y-98130833D01*
X47721666Y-98083214D01*
X47864523Y-98083214D01*
X47959761Y-98130833D01*
X48007380Y-98226071D01*
X48007380Y-98749880D01*
X48388333Y-97749880D02*
X49007380Y-97749880D01*
X48674047Y-98130833D01*
X48816904Y-98130833D01*
X48912142Y-98178452D01*
X48959761Y-98226071D01*
X49007380Y-98321309D01*
X49007380Y-98559404D01*
X48959761Y-98654642D01*
X48912142Y-98702261D01*
X48816904Y-98749880D01*
X48531190Y-98749880D01*
X48435952Y-98702261D01*
X48388333Y-98654642D01*
X49388333Y-98702261D02*
X49531190Y-98749880D01*
X49769285Y-98749880D01*
X49864523Y-98702261D01*
X49912142Y-98654642D01*
X49959761Y-98559404D01*
X49959761Y-98464166D01*
X49912142Y-98368928D01*
X49864523Y-98321309D01*
X49769285Y-98273690D01*
X49578809Y-98226071D01*
X49483571Y-98178452D01*
X49435952Y-98130833D01*
X49388333Y-98035595D01*
X49388333Y-97940357D01*
X49435952Y-97845119D01*
X49483571Y-97797500D01*
X49578809Y-97749880D01*
X49816904Y-97749880D01*
X49959761Y-97797500D01*
X50769285Y-98702261D02*
X50674047Y-98749880D01*
X50483571Y-98749880D01*
X50388333Y-98702261D01*
X50340714Y-98607023D01*
X50340714Y-98226071D01*
X50388333Y-98130833D01*
X50483571Y-98083214D01*
X50674047Y-98083214D01*
X50769285Y-98130833D01*
X50816904Y-98226071D01*
X50816904Y-98321309D01*
X50340714Y-98416547D01*
X51674047Y-98083214D02*
X51674047Y-98892738D01*
X51626428Y-98987976D01*
X51578809Y-99035595D01*
X51483571Y-99083214D01*
X51340714Y-99083214D01*
X51245476Y-99035595D01*
X51674047Y-98702261D02*
X51578809Y-98749880D01*
X51388333Y-98749880D01*
X51293095Y-98702261D01*
X51245476Y-98654642D01*
X51197857Y-98559404D01*
X51197857Y-98273690D01*
X51245476Y-98178452D01*
X51293095Y-98130833D01*
X51388333Y-98083214D01*
X51578809Y-98083214D01*
X51674047Y-98130833D01*
D10*
X97555476Y-118941904D02*
X98012619Y-118941904D01*
X97784047Y-119741904D02*
X97784047Y-118941904D01*
X98584047Y-119703809D02*
X98507857Y-119741904D01*
X98355476Y-119741904D01*
X98279285Y-119703809D01*
X98241190Y-119627619D01*
X98241190Y-119322857D01*
X98279285Y-119246666D01*
X98355476Y-119208571D01*
X98507857Y-119208571D01*
X98584047Y-119246666D01*
X98622142Y-119322857D01*
X98622142Y-119399047D01*
X98241190Y-119475238D01*
X98965000Y-119741904D02*
X98965000Y-119208571D01*
X98965000Y-119360952D02*
X99003095Y-119284761D01*
X99041190Y-119246666D01*
X99117380Y-119208571D01*
X99193571Y-119208571D01*
X99460238Y-119741904D02*
X99460238Y-119208571D01*
X99460238Y-119284761D02*
X99498333Y-119246666D01*
X99574523Y-119208571D01*
X99688809Y-119208571D01*
X99765000Y-119246666D01*
X99803095Y-119322857D01*
X99803095Y-119741904D01*
X99803095Y-119322857D02*
X99841190Y-119246666D01*
X99917380Y-119208571D01*
X100031666Y-119208571D01*
X100107857Y-119246666D01*
X100145952Y-119322857D01*
X100145952Y-119741904D01*
X100526904Y-119741904D02*
X100526904Y-119208571D01*
X100526904Y-118941904D02*
X100488809Y-118980000D01*
X100526904Y-119018095D01*
X100565000Y-118980000D01*
X100526904Y-118941904D01*
X100526904Y-119018095D01*
X100907857Y-119208571D02*
X100907857Y-119741904D01*
X100907857Y-119284761D02*
X100945952Y-119246666D01*
X101022142Y-119208571D01*
X101136428Y-119208571D01*
X101212619Y-119246666D01*
X101250714Y-119322857D01*
X101250714Y-119741904D01*
X101974523Y-119741904D02*
X101974523Y-119322857D01*
X101936428Y-119246666D01*
X101860238Y-119208571D01*
X101707857Y-119208571D01*
X101631666Y-119246666D01*
X101974523Y-119703809D02*
X101898333Y-119741904D01*
X101707857Y-119741904D01*
X101631666Y-119703809D01*
X101593571Y-119627619D01*
X101593571Y-119551428D01*
X101631666Y-119475238D01*
X101707857Y-119437142D01*
X101898333Y-119437142D01*
X101974523Y-119399047D01*
X102241190Y-119208571D02*
X102545952Y-119208571D01*
X102355476Y-118941904D02*
X102355476Y-119627619D01*
X102393571Y-119703809D01*
X102469761Y-119741904D01*
X102545952Y-119741904D01*
X102812619Y-119741904D02*
X102812619Y-119208571D01*
X102812619Y-118941904D02*
X102774523Y-118980000D01*
X102812619Y-119018095D01*
X102850714Y-118980000D01*
X102812619Y-118941904D01*
X102812619Y-119018095D01*
X103307857Y-119741904D02*
X103231666Y-119703809D01*
X103193571Y-119665714D01*
X103155476Y-119589523D01*
X103155476Y-119360952D01*
X103193571Y-119284761D01*
X103231666Y-119246666D01*
X103307857Y-119208571D01*
X103422142Y-119208571D01*
X103498333Y-119246666D01*
X103536428Y-119284761D01*
X103574523Y-119360952D01*
X103574523Y-119589523D01*
X103536428Y-119665714D01*
X103498333Y-119703809D01*
X103422142Y-119741904D01*
X103307857Y-119741904D01*
X103917380Y-119208571D02*
X103917380Y-119741904D01*
X103917380Y-119284761D02*
X103955476Y-119246666D01*
X104031666Y-119208571D01*
X104145952Y-119208571D01*
X104222142Y-119246666D01*
X104260238Y-119322857D01*
X104260238Y-119741904D01*
X97021761Y-121011904D02*
X97021761Y-120211904D01*
X97326523Y-120211904D01*
X97402714Y-120250000D01*
X97440809Y-120288095D01*
X97478904Y-120364285D01*
X97478904Y-120478571D01*
X97440809Y-120554761D01*
X97402714Y-120592857D01*
X97326523Y-120630952D01*
X97021761Y-120630952D01*
X97936047Y-121011904D02*
X97859857Y-120973809D01*
X97821761Y-120935714D01*
X97783666Y-120859523D01*
X97783666Y-120630952D01*
X97821761Y-120554761D01*
X97859857Y-120516666D01*
X97936047Y-120478571D01*
X98050333Y-120478571D01*
X98126523Y-120516666D01*
X98164619Y-120554761D01*
X98202714Y-120630952D01*
X98202714Y-120859523D01*
X98164619Y-120935714D01*
X98126523Y-120973809D01*
X98050333Y-121011904D01*
X97936047Y-121011904D01*
X98507476Y-120973809D02*
X98583666Y-121011904D01*
X98736047Y-121011904D01*
X98812238Y-120973809D01*
X98850333Y-120897619D01*
X98850333Y-120859523D01*
X98812238Y-120783333D01*
X98736047Y-120745238D01*
X98621761Y-120745238D01*
X98545571Y-120707142D01*
X98507476Y-120630952D01*
X98507476Y-120592857D01*
X98545571Y-120516666D01*
X98621761Y-120478571D01*
X98736047Y-120478571D01*
X98812238Y-120516666D01*
X97383666Y-121481904D02*
X97536047Y-121481904D01*
X97612238Y-121520000D01*
X97688428Y-121596190D01*
X97726523Y-121748571D01*
X97726523Y-122015238D01*
X97688428Y-122167619D01*
X97612238Y-122243809D01*
X97536047Y-122281904D01*
X97383666Y-122281904D01*
X97307476Y-122243809D01*
X97231285Y-122167619D01*
X97193190Y-122015238D01*
X97193190Y-121748571D01*
X97231285Y-121596190D01*
X97307476Y-121520000D01*
X97383666Y-121481904D01*
X97955095Y-121748571D02*
X98259857Y-121748571D01*
X98069380Y-122281904D02*
X98069380Y-121596190D01*
X98107476Y-121520000D01*
X98183666Y-121481904D01*
X98259857Y-121481904D01*
X98412238Y-121748571D02*
X98717000Y-121748571D01*
X98526523Y-122281904D02*
X98526523Y-121596190D01*
X98564619Y-121520000D01*
X98640809Y-121481904D01*
X98717000Y-121481904D01*
X97415404Y-122751904D02*
X97567785Y-122751904D01*
X97643976Y-122790000D01*
X97720166Y-122866190D01*
X97758261Y-123018571D01*
X97758261Y-123285238D01*
X97720166Y-123437619D01*
X97643976Y-123513809D01*
X97567785Y-123551904D01*
X97415404Y-123551904D01*
X97339214Y-123513809D01*
X97263023Y-123437619D01*
X97224928Y-123285238D01*
X97224928Y-123018571D01*
X97263023Y-122866190D01*
X97339214Y-122790000D01*
X97415404Y-122751904D01*
X98101119Y-123018571D02*
X98101119Y-123551904D01*
X98101119Y-123094761D02*
X98139214Y-123056666D01*
X98215404Y-123018571D01*
X98329690Y-123018571D01*
X98405880Y-123056666D01*
X98443976Y-123132857D01*
X98443976Y-123551904D01*
X44742166Y-122751904D02*
X44894547Y-122751904D01*
X44970738Y-122790000D01*
X45046928Y-122866190D01*
X45085023Y-123018571D01*
X45085023Y-123285238D01*
X45046928Y-123437619D01*
X44970738Y-123513809D01*
X44894547Y-123551904D01*
X44742166Y-123551904D01*
X44665976Y-123513809D01*
X44589785Y-123437619D01*
X44551690Y-123285238D01*
X44551690Y-123018571D01*
X44589785Y-122866190D01*
X44665976Y-122790000D01*
X44742166Y-122751904D01*
X45313595Y-123018571D02*
X45618357Y-123018571D01*
X45427880Y-123551904D02*
X45427880Y-122866190D01*
X45465976Y-122790000D01*
X45542166Y-122751904D01*
X45618357Y-122751904D01*
X45770738Y-123018571D02*
X46075500Y-123018571D01*
X45885023Y-123551904D02*
X45885023Y-122866190D01*
X45923119Y-122790000D01*
X45999309Y-122751904D01*
X46075500Y-122751904D01*
X44773904Y-121481904D02*
X44926285Y-121481904D01*
X45002476Y-121520000D01*
X45078666Y-121596190D01*
X45116761Y-121748571D01*
X45116761Y-122015238D01*
X45078666Y-122167619D01*
X45002476Y-122243809D01*
X44926285Y-122281904D01*
X44773904Y-122281904D01*
X44697714Y-122243809D01*
X44621523Y-122167619D01*
X44583428Y-122015238D01*
X44583428Y-121748571D01*
X44621523Y-121596190D01*
X44697714Y-121520000D01*
X44773904Y-121481904D01*
X45459619Y-121748571D02*
X45459619Y-122281904D01*
X45459619Y-121824761D02*
X45497714Y-121786666D01*
X45573904Y-121748571D01*
X45688190Y-121748571D01*
X45764380Y-121786666D01*
X45802476Y-121862857D01*
X45802476Y-122281904D01*
X51803333Y-120211904D02*
X52298571Y-120211904D01*
X52031904Y-120516666D01*
X52146190Y-120516666D01*
X52222380Y-120554761D01*
X52260476Y-120592857D01*
X52298571Y-120669047D01*
X52298571Y-120859523D01*
X52260476Y-120935714D01*
X52222380Y-120973809D01*
X52146190Y-121011904D01*
X51917619Y-121011904D01*
X51841428Y-120973809D01*
X51803333Y-120935714D01*
X49809428Y-120288095D02*
X49847523Y-120250000D01*
X49923714Y-120211904D01*
X50114190Y-120211904D01*
X50190380Y-120250000D01*
X50228476Y-120288095D01*
X50266571Y-120364285D01*
X50266571Y-120440476D01*
X50228476Y-120554761D01*
X49771333Y-121011904D01*
X50266571Y-121011904D01*
X47967833Y-121011904D02*
X47510690Y-121011904D01*
X47739261Y-121011904D02*
X47739261Y-120211904D01*
X47663071Y-120326190D01*
X47586880Y-120402380D01*
X47510690Y-120440476D01*
X44316761Y-121011904D02*
X44316761Y-120211904D01*
X44621523Y-120211904D01*
X44697714Y-120250000D01*
X44735809Y-120288095D01*
X44773904Y-120364285D01*
X44773904Y-120478571D01*
X44735809Y-120554761D01*
X44697714Y-120592857D01*
X44621523Y-120630952D01*
X44316761Y-120630952D01*
X45231047Y-121011904D02*
X45154857Y-120973809D01*
X45116761Y-120935714D01*
X45078666Y-120859523D01*
X45078666Y-120630952D01*
X45116761Y-120554761D01*
X45154857Y-120516666D01*
X45231047Y-120478571D01*
X45345333Y-120478571D01*
X45421523Y-120516666D01*
X45459619Y-120554761D01*
X45497714Y-120630952D01*
X45497714Y-120859523D01*
X45459619Y-120935714D01*
X45421523Y-120973809D01*
X45345333Y-121011904D01*
X45231047Y-121011904D01*
X45802476Y-120973809D02*
X45878666Y-121011904D01*
X46031047Y-121011904D01*
X46107238Y-120973809D01*
X46145333Y-120897619D01*
X46145333Y-120859523D01*
X46107238Y-120783333D01*
X46031047Y-120745238D01*
X45916761Y-120745238D01*
X45840571Y-120707142D01*
X45802476Y-120630952D01*
X45802476Y-120592857D01*
X45840571Y-120516666D01*
X45916761Y-120478571D01*
X46031047Y-120478571D01*
X46107238Y-120516666D01*
D19*
%TO.C,U2*%
G36*
X29136500Y-111005000D02*
G01*
X29136500Y-112655000D01*
X28146500Y-112655000D01*
X27486500Y-111995000D01*
X27486500Y-111005000D01*
X29136500Y-111005000D01*
G37*
X29136500Y-111005000D02*
X29136500Y-112655000D01*
X28146500Y-112655000D01*
X27486500Y-111995000D01*
X27486500Y-111005000D01*
X29136500Y-111005000D01*
%TD*%
%TO.C,U3*%
G36*
G01*
X75641300Y-114906000D02*
X75641300Y-112506000D01*
G75*
G02*
X75717500Y-112429800I76200J0D01*
G01*
X77317500Y-112429800D01*
G75*
G02*
X77393700Y-112506000I0J-76200D01*
G01*
X77393700Y-114906000D01*
G75*
G02*
X77317500Y-114982200I-76200J0D01*
G01*
X75717500Y-114982200D01*
G75*
G02*
X75641300Y-114906000I0J76200D01*
G01*
G37*
G36*
G01*
X77541300Y-112844100D02*
X77541300Y-112617900D01*
G75*
G02*
X77654400Y-112504800I113100J0D01*
G01*
X78380600Y-112504800D01*
G75*
G02*
X78493700Y-112617900I0J-113100D01*
G01*
X78493700Y-112844100D01*
G75*
G02*
X78380600Y-112957200I-113100J0D01*
G01*
X77654400Y-112957200D01*
G75*
G02*
X77541300Y-112844100I0J113100D01*
G01*
G37*
G36*
G01*
X77541300Y-113494100D02*
X77541300Y-113267900D01*
G75*
G02*
X77654400Y-113154800I113100J0D01*
G01*
X78380600Y-113154800D01*
G75*
G02*
X78493700Y-113267900I0J-113100D01*
G01*
X78493700Y-113494100D01*
G75*
G02*
X78380600Y-113607200I-113100J0D01*
G01*
X77654400Y-113607200D01*
G75*
G02*
X77541300Y-113494100I0J113100D01*
G01*
G37*
G36*
G01*
X77541300Y-114144100D02*
X77541300Y-113917900D01*
G75*
G02*
X77654400Y-113804800I113100J0D01*
G01*
X78380600Y-113804800D01*
G75*
G02*
X78493700Y-113917900I0J-113100D01*
G01*
X78493700Y-114144100D01*
G75*
G02*
X78380600Y-114257200I-113100J0D01*
G01*
X77654400Y-114257200D01*
G75*
G02*
X77541300Y-114144100I0J113100D01*
G01*
G37*
G36*
G01*
X77541300Y-114794100D02*
X77541300Y-114567900D01*
G75*
G02*
X77654400Y-114454800I113100J0D01*
G01*
X78380600Y-114454800D01*
G75*
G02*
X78493700Y-114567900I0J-113100D01*
G01*
X78493700Y-114794100D01*
G75*
G02*
X78380600Y-114907200I-113100J0D01*
G01*
X77654400Y-114907200D01*
G75*
G02*
X77541300Y-114794100I0J113100D01*
G01*
G37*
G36*
G01*
X74541300Y-114794100D02*
X74541300Y-114567900D01*
G75*
G02*
X74654400Y-114454800I113100J0D01*
G01*
X75380600Y-114454800D01*
G75*
G02*
X75493700Y-114567900I0J-113100D01*
G01*
X75493700Y-114794100D01*
G75*
G02*
X75380600Y-114907200I-113100J0D01*
G01*
X74654400Y-114907200D01*
G75*
G02*
X74541300Y-114794100I0J113100D01*
G01*
G37*
G36*
G01*
X74541300Y-114144100D02*
X74541300Y-113917900D01*
G75*
G02*
X74654400Y-113804800I113100J0D01*
G01*
X75380600Y-113804800D01*
G75*
G02*
X75493700Y-113917900I0J-113100D01*
G01*
X75493700Y-114144100D01*
G75*
G02*
X75380600Y-114257200I-113100J0D01*
G01*
X74654400Y-114257200D01*
G75*
G02*
X74541300Y-114144100I0J113100D01*
G01*
G37*
G36*
G01*
X74541300Y-113494100D02*
X74541300Y-113267900D01*
G75*
G02*
X74654400Y-113154800I113100J0D01*
G01*
X75380600Y-113154800D01*
G75*
G02*
X75493700Y-113267900I0J-113100D01*
G01*
X75493700Y-113494100D01*
G75*
G02*
X75380600Y-113607200I-113100J0D01*
G01*
X74654400Y-113607200D01*
G75*
G02*
X74541300Y-113494100I0J113100D01*
G01*
G37*
G36*
G01*
X74541300Y-112844100D02*
X74541300Y-112617900D01*
G75*
G02*
X74654400Y-112504800I113100J0D01*
G01*
X75380600Y-112504800D01*
G75*
G02*
X75493700Y-112617900I0J-113100D01*
G01*
X75493700Y-112844100D01*
G75*
G02*
X75380600Y-112957200I-113100J0D01*
G01*
X74654400Y-112957200D01*
G75*
G02*
X74541300Y-112844100I0J113100D01*
G01*
G37*
%TD*%
%TO.C,U6*%
G36*
G01*
X88880000Y-103478700D02*
X86380000Y-103478700D01*
G75*
G02*
X86303800Y-103402500I0J76200D01*
G01*
X86303800Y-101702500D01*
G75*
G02*
X86380000Y-101626300I76200J0D01*
G01*
X88880000Y-101626300D01*
G75*
G02*
X88956200Y-101702500I0J-76200D01*
G01*
X88956200Y-103402500D01*
G75*
G02*
X88880000Y-103478700I-76200J0D01*
G01*
G37*
G36*
G01*
X86730600Y-101516200D02*
X86529400Y-101516200D01*
G75*
G02*
X86428800Y-101415600I0J100600D01*
G01*
X86428800Y-100764400D01*
G75*
G02*
X86529400Y-100663800I100600J0D01*
G01*
X86730600Y-100663800D01*
G75*
G02*
X86831200Y-100764400I0J-100600D01*
G01*
X86831200Y-101415600D01*
G75*
G02*
X86730600Y-101516200I-100600J0D01*
G01*
G37*
G36*
G01*
X87230600Y-101516200D02*
X87029400Y-101516200D01*
G75*
G02*
X86928800Y-101415600I0J100600D01*
G01*
X86928800Y-100764400D01*
G75*
G02*
X87029400Y-100663800I100600J0D01*
G01*
X87230600Y-100663800D01*
G75*
G02*
X87331200Y-100764400I0J-100600D01*
G01*
X87331200Y-101415600D01*
G75*
G02*
X87230600Y-101516200I-100600J0D01*
G01*
G37*
G36*
G01*
X87730600Y-101516200D02*
X87529400Y-101516200D01*
G75*
G02*
X87428800Y-101415600I0J100600D01*
G01*
X87428800Y-100764400D01*
G75*
G02*
X87529400Y-100663800I100600J0D01*
G01*
X87730600Y-100663800D01*
G75*
G02*
X87831200Y-100764400I0J-100600D01*
G01*
X87831200Y-101415600D01*
G75*
G02*
X87730600Y-101516200I-100600J0D01*
G01*
G37*
G36*
G01*
X88230600Y-101516200D02*
X88029400Y-101516200D01*
G75*
G02*
X87928800Y-101415600I0J100600D01*
G01*
X87928800Y-100764400D01*
G75*
G02*
X88029400Y-100663800I100600J0D01*
G01*
X88230600Y-100663800D01*
G75*
G02*
X88331200Y-100764400I0J-100600D01*
G01*
X88331200Y-101415600D01*
G75*
G02*
X88230600Y-101516200I-100600J0D01*
G01*
G37*
G36*
G01*
X88730600Y-101516200D02*
X88529400Y-101516200D01*
G75*
G02*
X88428800Y-101415600I0J100600D01*
G01*
X88428800Y-100764400D01*
G75*
G02*
X88529400Y-100663800I100600J0D01*
G01*
X88730600Y-100663800D01*
G75*
G02*
X88831200Y-100764400I0J-100600D01*
G01*
X88831200Y-101415600D01*
G75*
G02*
X88730600Y-101516200I-100600J0D01*
G01*
G37*
G36*
G01*
X88730600Y-104441200D02*
X88529400Y-104441200D01*
G75*
G02*
X88428800Y-104340600I0J100600D01*
G01*
X88428800Y-103689400D01*
G75*
G02*
X88529400Y-103588800I100600J0D01*
G01*
X88730600Y-103588800D01*
G75*
G02*
X88831200Y-103689400I0J-100600D01*
G01*
X88831200Y-104340600D01*
G75*
G02*
X88730600Y-104441200I-100600J0D01*
G01*
G37*
G36*
G01*
X88230600Y-104441200D02*
X88029400Y-104441200D01*
G75*
G02*
X87928800Y-104340600I0J100600D01*
G01*
X87928800Y-103689400D01*
G75*
G02*
X88029400Y-103588800I100600J0D01*
G01*
X88230600Y-103588800D01*
G75*
G02*
X88331200Y-103689400I0J-100600D01*
G01*
X88331200Y-104340600D01*
G75*
G02*
X88230600Y-104441200I-100600J0D01*
G01*
G37*
G36*
G01*
X87730600Y-104441200D02*
X87529400Y-104441200D01*
G75*
G02*
X87428800Y-104340600I0J100600D01*
G01*
X87428800Y-103689400D01*
G75*
G02*
X87529400Y-103588800I100600J0D01*
G01*
X87730600Y-103588800D01*
G75*
G02*
X87831200Y-103689400I0J-100600D01*
G01*
X87831200Y-104340600D01*
G75*
G02*
X87730600Y-104441200I-100600J0D01*
G01*
G37*
G36*
G01*
X87230600Y-104441200D02*
X87029400Y-104441200D01*
G75*
G02*
X86928800Y-104340600I0J100600D01*
G01*
X86928800Y-103689400D01*
G75*
G02*
X87029400Y-103588800I100600J0D01*
G01*
X87230600Y-103588800D01*
G75*
G02*
X87331200Y-103689400I0J-100600D01*
G01*
X87331200Y-104340600D01*
G75*
G02*
X87230600Y-104441200I-100600J0D01*
G01*
G37*
G36*
G01*
X86730600Y-104441200D02*
X86529400Y-104441200D01*
G75*
G02*
X86428800Y-104340600I0J100600D01*
G01*
X86428800Y-103689400D01*
G75*
G02*
X86529400Y-103588800I100600J0D01*
G01*
X86730600Y-103588800D01*
G75*
G02*
X86831200Y-103689400I0J-100600D01*
G01*
X86831200Y-104340600D01*
G75*
G02*
X86730600Y-104441200I-100600J0D01*
G01*
G37*
%TD*%
%TO.C,U5*%
G36*
G01*
X61328300Y-112935700D02*
X60515500Y-112935700D01*
G75*
G02*
X60439300Y-112859500I0J76200D01*
G01*
X60439300Y-112605500D01*
G75*
G02*
X60515500Y-112529300I76200J0D01*
G01*
X61328300Y-112529300D01*
G75*
G02*
X61404500Y-112605500I0J-76200D01*
G01*
X61404500Y-112859500D01*
G75*
G02*
X61328300Y-112935700I-76200J0D01*
G01*
G37*
G36*
G01*
X61328300Y-113435699D02*
X60515500Y-113435699D01*
G75*
G02*
X60439300Y-113359499I0J76200D01*
G01*
X60439300Y-113105499D01*
G75*
G02*
X60515500Y-113029299I76200J0D01*
G01*
X61328300Y-113029299D01*
G75*
G02*
X61404500Y-113105499I0J-76200D01*
G01*
X61404500Y-113359499D01*
G75*
G02*
X61328300Y-113435699I-76200J0D01*
G01*
G37*
G36*
G01*
X61328300Y-113935700D02*
X60515500Y-113935700D01*
G75*
G02*
X60439300Y-113859500I0J76200D01*
G01*
X60439300Y-113605500D01*
G75*
G02*
X60515500Y-113529300I76200J0D01*
G01*
X61328300Y-113529300D01*
G75*
G02*
X61404500Y-113605500I0J-76200D01*
G01*
X61404500Y-113859500D01*
G75*
G02*
X61328300Y-113935700I-76200J0D01*
G01*
G37*
G36*
G01*
X61328300Y-114435700D02*
X60515500Y-114435700D01*
G75*
G02*
X60439300Y-114359500I0J76200D01*
G01*
X60439300Y-114105500D01*
G75*
G02*
X60515500Y-114029300I76200J0D01*
G01*
X61328300Y-114029300D01*
G75*
G02*
X61404500Y-114105500I0J-76200D01*
G01*
X61404500Y-114359500D01*
G75*
G02*
X61328300Y-114435700I-76200J0D01*
G01*
G37*
G36*
G01*
X61328300Y-114935701D02*
X60515500Y-114935701D01*
G75*
G02*
X60439300Y-114859501I0J76200D01*
G01*
X60439300Y-114605501D01*
G75*
G02*
X60515500Y-114529301I76200J0D01*
G01*
X61328300Y-114529301D01*
G75*
G02*
X61404500Y-114605501I0J-76200D01*
G01*
X61404500Y-114859501D01*
G75*
G02*
X61328300Y-114935701I-76200J0D01*
G01*
G37*
G36*
G01*
X61328300Y-115435700D02*
X60515500Y-115435700D01*
G75*
G02*
X60439300Y-115359500I0J76200D01*
G01*
X60439300Y-115105500D01*
G75*
G02*
X60515500Y-115029300I76200J0D01*
G01*
X61328300Y-115029300D01*
G75*
G02*
X61404500Y-115105500I0J-76200D01*
G01*
X61404500Y-115359500D01*
G75*
G02*
X61328300Y-115435700I-76200J0D01*
G01*
G37*
G36*
G01*
X61411800Y-116332000D02*
X61411800Y-115519200D01*
G75*
G02*
X61488000Y-115443000I76200J0D01*
G01*
X61742000Y-115443000D01*
G75*
G02*
X61818200Y-115519200I0J-76200D01*
G01*
X61818200Y-116332000D01*
G75*
G02*
X61742000Y-116408200I-76200J0D01*
G01*
X61488000Y-116408200D01*
G75*
G02*
X61411800Y-116332000I0J76200D01*
G01*
G37*
G36*
G01*
X61911799Y-116332000D02*
X61911799Y-115519200D01*
G75*
G02*
X61987999Y-115443000I76200J0D01*
G01*
X62241999Y-115443000D01*
G75*
G02*
X62318199Y-115519200I0J-76200D01*
G01*
X62318199Y-116332000D01*
G75*
G02*
X62241999Y-116408200I-76200J0D01*
G01*
X61987999Y-116408200D01*
G75*
G02*
X61911799Y-116332000I0J76200D01*
G01*
G37*
G36*
G01*
X62411800Y-116332000D02*
X62411800Y-115519200D01*
G75*
G02*
X62488000Y-115443000I76200J0D01*
G01*
X62742000Y-115443000D01*
G75*
G02*
X62818200Y-115519200I0J-76200D01*
G01*
X62818200Y-116332000D01*
G75*
G02*
X62742000Y-116408200I-76200J0D01*
G01*
X62488000Y-116408200D01*
G75*
G02*
X62411800Y-116332000I0J76200D01*
G01*
G37*
G36*
G01*
X62911800Y-116332000D02*
X62911800Y-115519200D01*
G75*
G02*
X62988000Y-115443000I76200J0D01*
G01*
X63242000Y-115443000D01*
G75*
G02*
X63318200Y-115519200I0J-76200D01*
G01*
X63318200Y-116332000D01*
G75*
G02*
X63242000Y-116408200I-76200J0D01*
G01*
X62988000Y-116408200D01*
G75*
G02*
X62911800Y-116332000I0J76200D01*
G01*
G37*
G36*
G01*
X63411801Y-116332000D02*
X63411801Y-115519200D01*
G75*
G02*
X63488001Y-115443000I76200J0D01*
G01*
X63742001Y-115443000D01*
G75*
G02*
X63818201Y-115519200I0J-76200D01*
G01*
X63818201Y-116332000D01*
G75*
G02*
X63742001Y-116408200I-76200J0D01*
G01*
X63488001Y-116408200D01*
G75*
G02*
X63411801Y-116332000I0J76200D01*
G01*
G37*
G36*
G01*
X63911800Y-116332000D02*
X63911800Y-115519200D01*
G75*
G02*
X63988000Y-115443000I76200J0D01*
G01*
X64242000Y-115443000D01*
G75*
G02*
X64318200Y-115519200I0J-76200D01*
G01*
X64318200Y-116332000D01*
G75*
G02*
X64242000Y-116408200I-76200J0D01*
G01*
X63988000Y-116408200D01*
G75*
G02*
X63911800Y-116332000I0J76200D01*
G01*
G37*
G36*
G01*
X65214500Y-115435700D02*
X64401700Y-115435700D01*
G75*
G02*
X64325500Y-115359500I0J76200D01*
G01*
X64325500Y-115105500D01*
G75*
G02*
X64401700Y-115029300I76200J0D01*
G01*
X65214500Y-115029300D01*
G75*
G02*
X65290700Y-115105500I0J-76200D01*
G01*
X65290700Y-115359500D01*
G75*
G02*
X65214500Y-115435700I-76200J0D01*
G01*
G37*
G36*
G01*
X65214500Y-114935701D02*
X64401700Y-114935701D01*
G75*
G02*
X64325500Y-114859501I0J76200D01*
G01*
X64325500Y-114605501D01*
G75*
G02*
X64401700Y-114529301I76200J0D01*
G01*
X65214500Y-114529301D01*
G75*
G02*
X65290700Y-114605501I0J-76200D01*
G01*
X65290700Y-114859501D01*
G75*
G02*
X65214500Y-114935701I-76200J0D01*
G01*
G37*
G36*
G01*
X65214500Y-114435700D02*
X64401700Y-114435700D01*
G75*
G02*
X64325500Y-114359500I0J76200D01*
G01*
X64325500Y-114105500D01*
G75*
G02*
X64401700Y-114029300I76200J0D01*
G01*
X65214500Y-114029300D01*
G75*
G02*
X65290700Y-114105500I0J-76200D01*
G01*
X65290700Y-114359500D01*
G75*
G02*
X65214500Y-114435700I-76200J0D01*
G01*
G37*
G36*
G01*
X65214500Y-113935700D02*
X64401700Y-113935700D01*
G75*
G02*
X64325500Y-113859500I0J76200D01*
G01*
X64325500Y-113605500D01*
G75*
G02*
X64401700Y-113529300I76200J0D01*
G01*
X65214500Y-113529300D01*
G75*
G02*
X65290700Y-113605500I0J-76200D01*
G01*
X65290700Y-113859500D01*
G75*
G02*
X65214500Y-113935700I-76200J0D01*
G01*
G37*
G36*
G01*
X65214500Y-113435699D02*
X64401700Y-113435699D01*
G75*
G02*
X64325500Y-113359499I0J76200D01*
G01*
X64325500Y-113105499D01*
G75*
G02*
X64401700Y-113029299I76200J0D01*
G01*
X65214500Y-113029299D01*
G75*
G02*
X65290700Y-113105499I0J-76200D01*
G01*
X65290700Y-113359499D01*
G75*
G02*
X65214500Y-113435699I-76200J0D01*
G01*
G37*
G36*
G01*
X65214500Y-112935700D02*
X64401700Y-112935700D01*
G75*
G02*
X64325500Y-112859500I0J76200D01*
G01*
X64325500Y-112605500D01*
G75*
G02*
X64401700Y-112529300I76200J0D01*
G01*
X65214500Y-112529300D01*
G75*
G02*
X65290700Y-112605500I0J-76200D01*
G01*
X65290700Y-112859500D01*
G75*
G02*
X65214500Y-112935700I-76200J0D01*
G01*
G37*
G36*
G01*
X63911800Y-112445800D02*
X63911800Y-111633000D01*
G75*
G02*
X63988000Y-111556800I76200J0D01*
G01*
X64242000Y-111556800D01*
G75*
G02*
X64318200Y-111633000I0J-76200D01*
G01*
X64318200Y-112445800D01*
G75*
G02*
X64242000Y-112522000I-76200J0D01*
G01*
X63988000Y-112522000D01*
G75*
G02*
X63911800Y-112445800I0J76200D01*
G01*
G37*
G36*
G01*
X63411801Y-112445800D02*
X63411801Y-111633000D01*
G75*
G02*
X63488001Y-111556800I76200J0D01*
G01*
X63742001Y-111556800D01*
G75*
G02*
X63818201Y-111633000I0J-76200D01*
G01*
X63818201Y-112445800D01*
G75*
G02*
X63742001Y-112522000I-76200J0D01*
G01*
X63488001Y-112522000D01*
G75*
G02*
X63411801Y-112445800I0J76200D01*
G01*
G37*
G36*
G01*
X62911800Y-112445800D02*
X62911800Y-111633000D01*
G75*
G02*
X62988000Y-111556800I76200J0D01*
G01*
X63242000Y-111556800D01*
G75*
G02*
X63318200Y-111633000I0J-76200D01*
G01*
X63318200Y-112445800D01*
G75*
G02*
X63242000Y-112522000I-76200J0D01*
G01*
X62988000Y-112522000D01*
G75*
G02*
X62911800Y-112445800I0J76200D01*
G01*
G37*
G36*
G01*
X62411800Y-112445800D02*
X62411800Y-111633000D01*
G75*
G02*
X62488000Y-111556800I76200J0D01*
G01*
X62742000Y-111556800D01*
G75*
G02*
X62818200Y-111633000I0J-76200D01*
G01*
X62818200Y-112445800D01*
G75*
G02*
X62742000Y-112522000I-76200J0D01*
G01*
X62488000Y-112522000D01*
G75*
G02*
X62411800Y-112445800I0J76200D01*
G01*
G37*
G36*
G01*
X61911799Y-112445800D02*
X61911799Y-111633000D01*
G75*
G02*
X61987999Y-111556800I76200J0D01*
G01*
X62241999Y-111556800D01*
G75*
G02*
X62318199Y-111633000I0J-76200D01*
G01*
X62318199Y-112445800D01*
G75*
G02*
X62241999Y-112522000I-76200J0D01*
G01*
X61987999Y-112522000D01*
G75*
G02*
X61911799Y-112445800I0J76200D01*
G01*
G37*
G36*
G01*
X61411800Y-112445800D02*
X61411800Y-111633000D01*
G75*
G02*
X61488000Y-111556800I76200J0D01*
G01*
X61742000Y-111556800D01*
G75*
G02*
X61818200Y-111633000I0J-76200D01*
G01*
X61818200Y-112445800D01*
G75*
G02*
X61742000Y-112522000I-76200J0D01*
G01*
X61488000Y-112522000D01*
G75*
G02*
X61411800Y-112445800I0J76200D01*
G01*
G37*
G36*
G01*
X61493400Y-115277900D02*
X61493400Y-112687100D01*
G75*
G02*
X61569600Y-112610900I76200J0D01*
G01*
X64160400Y-112610900D01*
G75*
G02*
X64236600Y-112687100I0J-76200D01*
G01*
X64236600Y-115277900D01*
G75*
G02*
X64160400Y-115354100I-76200J0D01*
G01*
X61569600Y-115354100D01*
G75*
G02*
X61493400Y-115277900I0J76200D01*
G01*
G37*
%TD*%
%TO.C,U8*%
G36*
G01*
X66545600Y-109953700D02*
X66169400Y-109953700D01*
G75*
G02*
X65981300Y-109765600I0J188100D01*
G01*
X65981300Y-108039400D01*
G75*
G02*
X66169400Y-107851300I188100J0D01*
G01*
X66545600Y-107851300D01*
G75*
G02*
X66733700Y-108039400I0J-188100D01*
G01*
X66733700Y-109765600D01*
G75*
G02*
X66545600Y-109953700I-188100J0D01*
G01*
G37*
G36*
G01*
X67815600Y-109953700D02*
X67439400Y-109953700D01*
G75*
G02*
X67251300Y-109765600I0J188100D01*
G01*
X67251300Y-108039400D01*
G75*
G02*
X67439400Y-107851300I188100J0D01*
G01*
X67815600Y-107851300D01*
G75*
G02*
X68003700Y-108039400I0J-188100D01*
G01*
X68003700Y-109765600D01*
G75*
G02*
X67815600Y-109953700I-188100J0D01*
G01*
G37*
G36*
G01*
X69085600Y-109953700D02*
X68709400Y-109953700D01*
G75*
G02*
X68521300Y-109765600I0J188100D01*
G01*
X68521300Y-108039400D01*
G75*
G02*
X68709400Y-107851300I188100J0D01*
G01*
X69085600Y-107851300D01*
G75*
G02*
X69273700Y-108039400I0J-188100D01*
G01*
X69273700Y-109765600D01*
G75*
G02*
X69085600Y-109953700I-188100J0D01*
G01*
G37*
G36*
G01*
X70355600Y-109953700D02*
X69979400Y-109953700D01*
G75*
G02*
X69791300Y-109765600I0J188100D01*
G01*
X69791300Y-108039400D01*
G75*
G02*
X69979400Y-107851300I188100J0D01*
G01*
X70355600Y-107851300D01*
G75*
G02*
X70543700Y-108039400I0J-188100D01*
G01*
X70543700Y-109765600D01*
G75*
G02*
X70355600Y-109953700I-188100J0D01*
G01*
G37*
G36*
G01*
X70355600Y-114903700D02*
X69979400Y-114903700D01*
G75*
G02*
X69791300Y-114715600I0J188100D01*
G01*
X69791300Y-112989400D01*
G75*
G02*
X69979400Y-112801300I188100J0D01*
G01*
X70355600Y-112801300D01*
G75*
G02*
X70543700Y-112989400I0J-188100D01*
G01*
X70543700Y-114715600D01*
G75*
G02*
X70355600Y-114903700I-188100J0D01*
G01*
G37*
G36*
G01*
X69085600Y-114903700D02*
X68709400Y-114903700D01*
G75*
G02*
X68521300Y-114715600I0J188100D01*
G01*
X68521300Y-112989400D01*
G75*
G02*
X68709400Y-112801300I188100J0D01*
G01*
X69085600Y-112801300D01*
G75*
G02*
X69273700Y-112989400I0J-188100D01*
G01*
X69273700Y-114715600D01*
G75*
G02*
X69085600Y-114903700I-188100J0D01*
G01*
G37*
G36*
G01*
X67815600Y-114903700D02*
X67439400Y-114903700D01*
G75*
G02*
X67251300Y-114715600I0J188100D01*
G01*
X67251300Y-112989400D01*
G75*
G02*
X67439400Y-112801300I188100J0D01*
G01*
X67815600Y-112801300D01*
G75*
G02*
X68003700Y-112989400I0J-188100D01*
G01*
X68003700Y-114715600D01*
G75*
G02*
X67815600Y-114903700I-188100J0D01*
G01*
G37*
G36*
G01*
X66545600Y-114903700D02*
X66169400Y-114903700D01*
G75*
G02*
X65981300Y-114715600I0J188100D01*
G01*
X65981300Y-112989400D01*
G75*
G02*
X66169400Y-112801300I188100J0D01*
G01*
X66545600Y-112801300D01*
G75*
G02*
X66733700Y-112989400I0J-188100D01*
G01*
X66733700Y-114715600D01*
G75*
G02*
X66545600Y-114903700I-188100J0D01*
G01*
G37*
%TD*%
%TO.C,C14*%
G36*
G01*
X67381300Y-106968100D02*
X67381300Y-106391900D01*
G75*
G02*
X67644400Y-106128800I263100J0D01*
G01*
X68170600Y-106128800D01*
G75*
G02*
X68433700Y-106391900I0J-263100D01*
G01*
X68433700Y-106968100D01*
G75*
G02*
X68170600Y-107231200I-263100J0D01*
G01*
X67644400Y-107231200D01*
G75*
G02*
X67381300Y-106968100I0J263100D01*
G01*
G37*
G36*
G01*
X65831300Y-106968100D02*
X65831300Y-106391900D01*
G75*
G02*
X66094400Y-106128800I263100J0D01*
G01*
X66620600Y-106128800D01*
G75*
G02*
X66883700Y-106391900I0J-263100D01*
G01*
X66883700Y-106968100D01*
G75*
G02*
X66620600Y-107231200I-263100J0D01*
G01*
X66094400Y-107231200D01*
G75*
G02*
X65831300Y-106968100I0J263100D01*
G01*
G37*
%TD*%
%TO.C,R21*%
G36*
G01*
X69056200Y-120971900D02*
X69056200Y-121598100D01*
G75*
G02*
X68818100Y-121836200I-238100J0D01*
G01*
X68341900Y-121836200D01*
G75*
G02*
X68103800Y-121598100I0J238100D01*
G01*
X68103800Y-120971900D01*
G75*
G02*
X68341900Y-120733800I238100J0D01*
G01*
X68818100Y-120733800D01*
G75*
G02*
X69056200Y-120971900I0J-238100D01*
G01*
G37*
G36*
G01*
X70706200Y-120971900D02*
X70706200Y-121598100D01*
G75*
G02*
X70468100Y-121836200I-238100J0D01*
G01*
X69991900Y-121836200D01*
G75*
G02*
X69753800Y-121598100I0J238100D01*
G01*
X69753800Y-120971900D01*
G75*
G02*
X69991900Y-120733800I238100J0D01*
G01*
X70468100Y-120733800D01*
G75*
G02*
X70706200Y-120971900I0J-238100D01*
G01*
G37*
%TD*%
D20*
%TO.C,J1*%
X29210000Y-99695000D03*
X29210000Y-98425000D03*
X30480000Y-99695000D03*
X30480000Y-98425000D03*
X31750000Y-99695000D03*
X31750000Y-98425000D03*
%TD*%
D21*
%TO.C,BZ1*%
X90170000Y-120840000D03*
X90170000Y-116840000D03*
%TD*%
D22*
%TO.C,J10*%
X99060000Y-114935000D03*
X99060000Y-109855000D03*
X99060000Y-104775000D03*
X99060000Y-99695000D03*
%TD*%
%TO.C,D9*%
G36*
G01*
X94641300Y-116870000D02*
X94641300Y-116370000D01*
G75*
G02*
X94717500Y-116293800I76200J0D01*
G01*
X95117500Y-116293800D01*
G75*
G02*
X95193700Y-116370000I0J-76200D01*
G01*
X95193700Y-116870000D01*
G75*
G02*
X95117500Y-116946200I-76200J0D01*
G01*
X94717500Y-116946200D01*
G75*
G02*
X94641300Y-116870000I0J76200D01*
G01*
G37*
G36*
G01*
X95941300Y-116870000D02*
X95941300Y-116370000D01*
G75*
G02*
X96017500Y-116293800I76200J0D01*
G01*
X96417500Y-116293800D01*
G75*
G02*
X96493700Y-116370000I0J-76200D01*
G01*
X96493700Y-116870000D01*
G75*
G02*
X96417500Y-116946200I-76200J0D01*
G01*
X96017500Y-116946200D01*
G75*
G02*
X95941300Y-116870000I0J76200D01*
G01*
G37*
G36*
G01*
X96367500Y-116196200D02*
X94767500Y-116196200D01*
G75*
G02*
X94691300Y-116120000I0J76200D01*
G01*
X94691300Y-115020000D01*
G75*
G02*
X94767500Y-114943800I76200J0D01*
G01*
X96367500Y-114943800D01*
G75*
G02*
X96443700Y-115020000I0J-76200D01*
G01*
X96443700Y-116120000D01*
G75*
G02*
X96367500Y-116196200I-76200J0D01*
G01*
G37*
G36*
G01*
X95767500Y-115096200D02*
X95367500Y-115096200D01*
G75*
G02*
X95291300Y-115020000I0J76200D01*
G01*
X95291300Y-114670000D01*
G75*
G02*
X95367500Y-114593800I76200J0D01*
G01*
X95767500Y-114593800D01*
G75*
G02*
X95843700Y-114670000I0J-76200D01*
G01*
X95843700Y-115020000D01*
G75*
G02*
X95767500Y-115096200I-76200J0D01*
G01*
G37*
%TD*%
%TO.C,D8*%
G36*
G01*
X96493700Y-106523000D02*
X96493700Y-107023000D01*
G75*
G02*
X96417500Y-107099200I-76200J0D01*
G01*
X96017500Y-107099200D01*
G75*
G02*
X95941300Y-107023000I0J76200D01*
G01*
X95941300Y-106523000D01*
G75*
G02*
X96017500Y-106446800I76200J0D01*
G01*
X96417500Y-106446800D01*
G75*
G02*
X96493700Y-106523000I0J-76200D01*
G01*
G37*
G36*
G01*
X95193700Y-106523000D02*
X95193700Y-107023000D01*
G75*
G02*
X95117500Y-107099200I-76200J0D01*
G01*
X94717500Y-107099200D01*
G75*
G02*
X94641300Y-107023000I0J76200D01*
G01*
X94641300Y-106523000D01*
G75*
G02*
X94717500Y-106446800I76200J0D01*
G01*
X95117500Y-106446800D01*
G75*
G02*
X95193700Y-106523000I0J-76200D01*
G01*
G37*
G36*
G01*
X94767500Y-107196800D02*
X96367500Y-107196800D01*
G75*
G02*
X96443700Y-107273000I0J-76200D01*
G01*
X96443700Y-108373000D01*
G75*
G02*
X96367500Y-108449200I-76200J0D01*
G01*
X94767500Y-108449200D01*
G75*
G02*
X94691300Y-108373000I0J76200D01*
G01*
X94691300Y-107273000D01*
G75*
G02*
X94767500Y-107196800I76200J0D01*
G01*
G37*
G36*
G01*
X95367500Y-108296800D02*
X95767500Y-108296800D01*
G75*
G02*
X95843700Y-108373000I0J-76200D01*
G01*
X95843700Y-108723000D01*
G75*
G02*
X95767500Y-108799200I-76200J0D01*
G01*
X95367500Y-108799200D01*
G75*
G02*
X95291300Y-108723000I0J76200D01*
G01*
X95291300Y-108373000D01*
G75*
G02*
X95367500Y-108296800I76200J0D01*
G01*
G37*
%TD*%
%TO.C,D7*%
G36*
G01*
X96493700Y-99665000D02*
X96493700Y-100165000D01*
G75*
G02*
X96417500Y-100241200I-76200J0D01*
G01*
X96017500Y-100241200D01*
G75*
G02*
X95941300Y-100165000I0J76200D01*
G01*
X95941300Y-99665000D01*
G75*
G02*
X96017500Y-99588800I76200J0D01*
G01*
X96417500Y-99588800D01*
G75*
G02*
X96493700Y-99665000I0J-76200D01*
G01*
G37*
G36*
G01*
X95193700Y-99665000D02*
X95193700Y-100165000D01*
G75*
G02*
X95117500Y-100241200I-76200J0D01*
G01*
X94717500Y-100241200D01*
G75*
G02*
X94641300Y-100165000I0J76200D01*
G01*
X94641300Y-99665000D01*
G75*
G02*
X94717500Y-99588800I76200J0D01*
G01*
X95117500Y-99588800D01*
G75*
G02*
X95193700Y-99665000I0J-76200D01*
G01*
G37*
G36*
G01*
X94767500Y-100338800D02*
X96367500Y-100338800D01*
G75*
G02*
X96443700Y-100415000I0J-76200D01*
G01*
X96443700Y-101515000D01*
G75*
G02*
X96367500Y-101591200I-76200J0D01*
G01*
X94767500Y-101591200D01*
G75*
G02*
X94691300Y-101515000I0J76200D01*
G01*
X94691300Y-100415000D01*
G75*
G02*
X94767500Y-100338800I76200J0D01*
G01*
G37*
G36*
G01*
X95367500Y-101438800D02*
X95767500Y-101438800D01*
G75*
G02*
X95843700Y-101515000I0J-76200D01*
G01*
X95843700Y-101865000D01*
G75*
G02*
X95767500Y-101941200I-76200J0D01*
G01*
X95367500Y-101941200D01*
G75*
G02*
X95291300Y-101865000I0J76200D01*
G01*
X95291300Y-101515000D01*
G75*
G02*
X95367500Y-101438800I76200J0D01*
G01*
G37*
%TD*%
%TO.C,D6*%
G36*
G01*
X96493700Y-112047500D02*
X96493700Y-112547500D01*
G75*
G02*
X96417500Y-112623700I-76200J0D01*
G01*
X96017500Y-112623700D01*
G75*
G02*
X95941300Y-112547500I0J76200D01*
G01*
X95941300Y-112047500D01*
G75*
G02*
X96017500Y-111971300I76200J0D01*
G01*
X96417500Y-111971300D01*
G75*
G02*
X96493700Y-112047500I0J-76200D01*
G01*
G37*
G36*
G01*
X95193700Y-112047500D02*
X95193700Y-112547500D01*
G75*
G02*
X95117500Y-112623700I-76200J0D01*
G01*
X94717500Y-112623700D01*
G75*
G02*
X94641300Y-112547500I0J76200D01*
G01*
X94641300Y-112047500D01*
G75*
G02*
X94717500Y-111971300I76200J0D01*
G01*
X95117500Y-111971300D01*
G75*
G02*
X95193700Y-112047500I0J-76200D01*
G01*
G37*
G36*
G01*
X94767500Y-112721300D02*
X96367500Y-112721300D01*
G75*
G02*
X96443700Y-112797500I0J-76200D01*
G01*
X96443700Y-113897500D01*
G75*
G02*
X96367500Y-113973700I-76200J0D01*
G01*
X94767500Y-113973700D01*
G75*
G02*
X94691300Y-113897500I0J76200D01*
G01*
X94691300Y-112797500D01*
G75*
G02*
X94767500Y-112721300I76200J0D01*
G01*
G37*
G36*
G01*
X95367500Y-113821300D02*
X95767500Y-113821300D01*
G75*
G02*
X95843700Y-113897500I0J-76200D01*
G01*
X95843700Y-114247500D01*
G75*
G02*
X95767500Y-114323700I-76200J0D01*
G01*
X95367500Y-114323700D01*
G75*
G02*
X95291300Y-114247500I0J76200D01*
G01*
X95291300Y-113897500D01*
G75*
G02*
X95367500Y-113821300I76200J0D01*
G01*
G37*
%TD*%
%TO.C,D5*%
G36*
G01*
X94626300Y-111375000D02*
X94626300Y-110875000D01*
G75*
G02*
X94702500Y-110798800I76200J0D01*
G01*
X95102500Y-110798800D01*
G75*
G02*
X95178700Y-110875000I0J-76200D01*
G01*
X95178700Y-111375000D01*
G75*
G02*
X95102500Y-111451200I-76200J0D01*
G01*
X94702500Y-111451200D01*
G75*
G02*
X94626300Y-111375000I0J76200D01*
G01*
G37*
G36*
G01*
X95926300Y-111375000D02*
X95926300Y-110875000D01*
G75*
G02*
X96002500Y-110798800I76200J0D01*
G01*
X96402500Y-110798800D01*
G75*
G02*
X96478700Y-110875000I0J-76200D01*
G01*
X96478700Y-111375000D01*
G75*
G02*
X96402500Y-111451200I-76200J0D01*
G01*
X96002500Y-111451200D01*
G75*
G02*
X95926300Y-111375000I0J76200D01*
G01*
G37*
G36*
G01*
X96352500Y-110701200D02*
X94752500Y-110701200D01*
G75*
G02*
X94676300Y-110625000I0J76200D01*
G01*
X94676300Y-109525000D01*
G75*
G02*
X94752500Y-109448800I76200J0D01*
G01*
X96352500Y-109448800D01*
G75*
G02*
X96428700Y-109525000I0J-76200D01*
G01*
X96428700Y-110625000D01*
G75*
G02*
X96352500Y-110701200I-76200J0D01*
G01*
G37*
G36*
G01*
X95752500Y-109601200D02*
X95352500Y-109601200D01*
G75*
G02*
X95276300Y-109525000I0J76200D01*
G01*
X95276300Y-109175000D01*
G75*
G02*
X95352500Y-109098800I76200J0D01*
G01*
X95752500Y-109098800D01*
G75*
G02*
X95828700Y-109175000I0J-76200D01*
G01*
X95828700Y-109525000D01*
G75*
G02*
X95752500Y-109601200I-76200J0D01*
G01*
G37*
%TD*%
%TO.C,D4*%
G36*
G01*
X94641300Y-104805000D02*
X94641300Y-104305000D01*
G75*
G02*
X94717500Y-104228800I76200J0D01*
G01*
X95117500Y-104228800D01*
G75*
G02*
X95193700Y-104305000I0J-76200D01*
G01*
X95193700Y-104805000D01*
G75*
G02*
X95117500Y-104881200I-76200J0D01*
G01*
X94717500Y-104881200D01*
G75*
G02*
X94641300Y-104805000I0J76200D01*
G01*
G37*
G36*
G01*
X95941300Y-104805000D02*
X95941300Y-104305000D01*
G75*
G02*
X96017500Y-104228800I76200J0D01*
G01*
X96417500Y-104228800D01*
G75*
G02*
X96493700Y-104305000I0J-76200D01*
G01*
X96493700Y-104805000D01*
G75*
G02*
X96417500Y-104881200I-76200J0D01*
G01*
X96017500Y-104881200D01*
G75*
G02*
X95941300Y-104805000I0J76200D01*
G01*
G37*
G36*
G01*
X96367500Y-104131200D02*
X94767500Y-104131200D01*
G75*
G02*
X94691300Y-104055000I0J76200D01*
G01*
X94691300Y-102955000D01*
G75*
G02*
X94767500Y-102878800I76200J0D01*
G01*
X96367500Y-102878800D01*
G75*
G02*
X96443700Y-102955000I0J-76200D01*
G01*
X96443700Y-104055000D01*
G75*
G02*
X96367500Y-104131200I-76200J0D01*
G01*
G37*
G36*
G01*
X95767500Y-103031200D02*
X95367500Y-103031200D01*
G75*
G02*
X95291300Y-102955000I0J76200D01*
G01*
X95291300Y-102605000D01*
G75*
G02*
X95367500Y-102528800I76200J0D01*
G01*
X95767500Y-102528800D01*
G75*
G02*
X95843700Y-102605000I0J-76200D01*
G01*
X95843700Y-102955000D01*
G75*
G02*
X95767500Y-103031200I-76200J0D01*
G01*
G37*
%TD*%
%TO.C,R16*%
G36*
G01*
X85136300Y-111296532D02*
X85136300Y-110318468D01*
G75*
G02*
X85423468Y-110031300I287168J0D01*
G01*
X86026532Y-110031300D01*
G75*
G02*
X86313700Y-110318468I0J-287168D01*
G01*
X86313700Y-111296532D01*
G75*
G02*
X86026532Y-111583700I-287168J0D01*
G01*
X85423468Y-111583700D01*
G75*
G02*
X85136300Y-111296532I0J287168D01*
G01*
G37*
G36*
G01*
X83311300Y-111296532D02*
X83311300Y-110318468D01*
G75*
G02*
X83598468Y-110031300I287168J0D01*
G01*
X84201532Y-110031300D01*
G75*
G02*
X84488700Y-110318468I0J-287168D01*
G01*
X84488700Y-111296532D01*
G75*
G02*
X84201532Y-111583700I-287168J0D01*
G01*
X83598468Y-111583700D01*
G75*
G02*
X83311300Y-111296532I0J287168D01*
G01*
G37*
%TD*%
%TO.C,R15*%
G36*
G01*
X84488700Y-112540968D02*
X84488700Y-113519032D01*
G75*
G02*
X84201532Y-113806200I-287168J0D01*
G01*
X83598468Y-113806200D01*
G75*
G02*
X83311300Y-113519032I0J287168D01*
G01*
X83311300Y-112540968D01*
G75*
G02*
X83598468Y-112253800I287168J0D01*
G01*
X84201532Y-112253800D01*
G75*
G02*
X84488700Y-112540968I0J-287168D01*
G01*
G37*
G36*
G01*
X86313700Y-112540968D02*
X86313700Y-113519032D01*
G75*
G02*
X86026532Y-113806200I-287168J0D01*
G01*
X85423468Y-113806200D01*
G75*
G02*
X85136300Y-113519032I0J287168D01*
G01*
X85136300Y-112540968D01*
G75*
G02*
X85423468Y-112253800I287168J0D01*
G01*
X86026532Y-112253800D01*
G75*
G02*
X86313700Y-112540968I0J-287168D01*
G01*
G37*
%TD*%
D23*
%TO.C,J3*%
X73660000Y-101282500D03*
X71120000Y-101282500D03*
X68580000Y-101282500D03*
G36*
G01*
X66740000Y-102208700D02*
X65340000Y-102208700D01*
G75*
G02*
X65263800Y-102132500I0J76200D01*
G01*
X65263800Y-100432500D01*
G75*
G02*
X65340000Y-100356300I76200J0D01*
G01*
X66740000Y-100356300D01*
G75*
G02*
X66816200Y-100432500I0J-76200D01*
G01*
X66816200Y-102132500D01*
G75*
G02*
X66740000Y-102208700I-76200J0D01*
G01*
G37*
%TD*%
%TO.C,J2*%
X73660000Y-118427500D03*
X71120000Y-118427500D03*
X68580000Y-118427500D03*
G36*
G01*
X66740000Y-119353700D02*
X65340000Y-119353700D01*
G75*
G02*
X65263800Y-119277500I0J76200D01*
G01*
X65263800Y-117577500D01*
G75*
G02*
X65340000Y-117501300I76200J0D01*
G01*
X66740000Y-117501300D01*
G75*
G02*
X66816200Y-117577500I0J-76200D01*
G01*
X66816200Y-119277500D01*
G75*
G02*
X66740000Y-119353700I-76200J0D01*
G01*
G37*
%TD*%
%TO.C,LED1*%
G36*
G01*
X49440100Y-110839999D02*
X49440100Y-111839999D01*
G75*
G02*
X49363900Y-111916199I-76200J0D01*
G01*
X46563900Y-111916199D01*
G75*
G02*
X46487700Y-111839999I0J76200D01*
G01*
X46487700Y-110839999D01*
G75*
G02*
X46563900Y-110763799I76200J0D01*
G01*
X49363900Y-110763799D01*
G75*
G02*
X49440100Y-110839999I0J-76200D01*
G01*
G37*
G36*
G01*
X49440100Y-109340000D02*
X49440100Y-110340000D01*
G75*
G02*
X49363900Y-110416200I-76200J0D01*
G01*
X46563900Y-110416200D01*
G75*
G02*
X46487700Y-110340000I0J76200D01*
G01*
X46487700Y-109340000D01*
G75*
G02*
X46563900Y-109263800I76200J0D01*
G01*
X49363900Y-109263800D01*
G75*
G02*
X49440100Y-109340000I0J-76200D01*
G01*
G37*
G36*
G01*
X49440100Y-107840001D02*
X49440100Y-108840001D01*
G75*
G02*
X49363900Y-108916201I-76200J0D01*
G01*
X46563900Y-108916201D01*
G75*
G02*
X46487700Y-108840001I0J76200D01*
G01*
X46487700Y-107840001D01*
G75*
G02*
X46563900Y-107763801I76200J0D01*
G01*
X49363900Y-107763801D01*
G75*
G02*
X49440100Y-107840001I0J-76200D01*
G01*
G37*
G36*
G01*
X53842300Y-107840001D02*
X53842300Y-108840001D01*
G75*
G02*
X53766100Y-108916201I-76200J0D01*
G01*
X50966100Y-108916201D01*
G75*
G02*
X50889900Y-108840001I0J76200D01*
G01*
X50889900Y-107840001D01*
G75*
G02*
X50966100Y-107763801I76200J0D01*
G01*
X53766100Y-107763801D01*
G75*
G02*
X53842300Y-107840001I0J-76200D01*
G01*
G37*
G36*
G01*
X53842300Y-109340000D02*
X53842300Y-110340000D01*
G75*
G02*
X53766100Y-110416200I-76200J0D01*
G01*
X50966100Y-110416200D01*
G75*
G02*
X50889900Y-110340000I0J76200D01*
G01*
X50889900Y-109340000D01*
G75*
G02*
X50966100Y-109263800I76200J0D01*
G01*
X53766100Y-109263800D01*
G75*
G02*
X53842300Y-109340000I0J-76200D01*
G01*
G37*
G36*
G01*
X53842300Y-110839999D02*
X53842300Y-111839999D01*
G75*
G02*
X53766100Y-111916199I-76200J0D01*
G01*
X50966100Y-111916199D01*
G75*
G02*
X50889900Y-111839999I0J76200D01*
G01*
X50889900Y-110839999D01*
G75*
G02*
X50966100Y-110763799I76200J0D01*
G01*
X53766100Y-110763799D01*
G75*
G02*
X53842300Y-110839999I0J-76200D01*
G01*
G37*
D24*
X50165000Y-116840000D03*
X50165000Y-102840000D03*
%TD*%
%TO.C,U7*%
G36*
G01*
X72961500Y-105968800D02*
X72961500Y-105486200D01*
G75*
G02*
X73037700Y-105410000I76200J0D01*
G01*
X74409300Y-105410000D01*
G75*
G02*
X74485500Y-105486200I0J-76200D01*
G01*
X74485500Y-105968800D01*
G75*
G02*
X74409300Y-106045000I-76200J0D01*
G01*
X73037700Y-106045000D01*
G75*
G02*
X72961500Y-105968800I0J76200D01*
G01*
G37*
G36*
G01*
X72961500Y-107238800D02*
X72961500Y-106756200D01*
G75*
G02*
X73037700Y-106680000I76200J0D01*
G01*
X74409300Y-106680000D01*
G75*
G02*
X74485500Y-106756200I0J-76200D01*
G01*
X74485500Y-107238800D01*
G75*
G02*
X74409300Y-107315000I-76200J0D01*
G01*
X73037700Y-107315000D01*
G75*
G02*
X72961500Y-107238800I0J76200D01*
G01*
G37*
G36*
G01*
X72961500Y-108508800D02*
X72961500Y-108026200D01*
G75*
G02*
X73037700Y-107950000I76200J0D01*
G01*
X74409300Y-107950000D01*
G75*
G02*
X74485500Y-108026200I0J-76200D01*
G01*
X74485500Y-108508800D01*
G75*
G02*
X74409300Y-108585000I-76200J0D01*
G01*
X73037700Y-108585000D01*
G75*
G02*
X72961500Y-108508800I0J76200D01*
G01*
G37*
G36*
G01*
X72961500Y-109778800D02*
X72961500Y-109296200D01*
G75*
G02*
X73037700Y-109220000I76200J0D01*
G01*
X74409300Y-109220000D01*
G75*
G02*
X74485500Y-109296200I0J-76200D01*
G01*
X74485500Y-109778800D01*
G75*
G02*
X74409300Y-109855000I-76200J0D01*
G01*
X73037700Y-109855000D01*
G75*
G02*
X72961500Y-109778800I0J76200D01*
G01*
G37*
G36*
G01*
X78295500Y-109778800D02*
X78295500Y-109296200D01*
G75*
G02*
X78371700Y-109220000I76200J0D01*
G01*
X79743300Y-109220000D01*
G75*
G02*
X79819500Y-109296200I0J-76200D01*
G01*
X79819500Y-109778800D01*
G75*
G02*
X79743300Y-109855000I-76200J0D01*
G01*
X78371700Y-109855000D01*
G75*
G02*
X78295500Y-109778800I0J76200D01*
G01*
G37*
G36*
G01*
X78295500Y-108508800D02*
X78295500Y-108026200D01*
G75*
G02*
X78371700Y-107950000I76200J0D01*
G01*
X79743300Y-107950000D01*
G75*
G02*
X79819500Y-108026200I0J-76200D01*
G01*
X79819500Y-108508800D01*
G75*
G02*
X79743300Y-108585000I-76200J0D01*
G01*
X78371700Y-108585000D01*
G75*
G02*
X78295500Y-108508800I0J76200D01*
G01*
G37*
G36*
G01*
X78295500Y-107238800D02*
X78295500Y-106756200D01*
G75*
G02*
X78371700Y-106680000I76200J0D01*
G01*
X79743300Y-106680000D01*
G75*
G02*
X79819500Y-106756200I0J-76200D01*
G01*
X79819500Y-107238800D01*
G75*
G02*
X79743300Y-107315000I-76200J0D01*
G01*
X78371700Y-107315000D01*
G75*
G02*
X78295500Y-107238800I0J76200D01*
G01*
G37*
G36*
G01*
X78295500Y-105968800D02*
X78295500Y-105486200D01*
G75*
G02*
X78371700Y-105410000I76200J0D01*
G01*
X79743300Y-105410000D01*
G75*
G02*
X79819500Y-105486200I0J-76200D01*
G01*
X79819500Y-105968800D01*
G75*
G02*
X79743300Y-106045000I-76200J0D01*
G01*
X78371700Y-106045000D01*
G75*
G02*
X78295500Y-105968800I0J76200D01*
G01*
G37*
G36*
G01*
X75107800Y-109232700D02*
X75107800Y-106032300D01*
G75*
G02*
X75184000Y-105956100I76200J0D01*
G01*
X77597000Y-105956100D01*
G75*
G02*
X77673200Y-106032300I0J-76200D01*
G01*
X77673200Y-109232700D01*
G75*
G02*
X77597000Y-109308900I-76200J0D01*
G01*
X75184000Y-109308900D01*
G75*
G02*
X75107800Y-109232700I0J76200D01*
G01*
G37*
%TD*%
%TO.C,SW1*%
G36*
G01*
X86693300Y-111531400D02*
X86693300Y-110972600D01*
G75*
G02*
X86769500Y-110896400I76200J0D01*
G01*
X88166500Y-110896400D01*
G75*
G02*
X88242700Y-110972600I0J-76200D01*
G01*
X88242700Y-111531400D01*
G75*
G02*
X88166500Y-111607600I-76200J0D01*
G01*
X86769500Y-111607600D01*
G75*
G02*
X86693300Y-111531400I0J76200D01*
G01*
G37*
G36*
G01*
X86693300Y-112801400D02*
X86693300Y-112242600D01*
G75*
G02*
X86769500Y-112166400I76200J0D01*
G01*
X88166500Y-112166400D01*
G75*
G02*
X88242700Y-112242600I0J-76200D01*
G01*
X88242700Y-112801400D01*
G75*
G02*
X88166500Y-112877600I-76200J0D01*
G01*
X86769500Y-112877600D01*
G75*
G02*
X86693300Y-112801400I0J76200D01*
G01*
G37*
G36*
G01*
X91300300Y-112801400D02*
X91300300Y-112242600D01*
G75*
G02*
X91376500Y-112166400I76200J0D01*
G01*
X92773500Y-112166400D01*
G75*
G02*
X92849700Y-112242600I0J-76200D01*
G01*
X92849700Y-112801400D01*
G75*
G02*
X92773500Y-112877600I-76200J0D01*
G01*
X91376500Y-112877600D01*
G75*
G02*
X91300300Y-112801400I0J76200D01*
G01*
G37*
G36*
G01*
X91300300Y-111531400D02*
X91300300Y-110972600D01*
G75*
G02*
X91376500Y-110896400I76200J0D01*
G01*
X92773500Y-110896400D01*
G75*
G02*
X92849700Y-110972600I0J-76200D01*
G01*
X92849700Y-111531400D01*
G75*
G02*
X92773500Y-111607600I-76200J0D01*
G01*
X91376500Y-111607600D01*
G75*
G02*
X91300300Y-111531400I0J76200D01*
G01*
G37*
%TD*%
%TO.C,SW3*%
G36*
G01*
X58064400Y-123809200D02*
X57505600Y-123809200D01*
G75*
G02*
X57429400Y-123733000I0J76200D01*
G01*
X57429400Y-122336000D01*
G75*
G02*
X57505600Y-122259800I76200J0D01*
G01*
X58064400Y-122259800D01*
G75*
G02*
X58140600Y-122336000I0J-76200D01*
G01*
X58140600Y-123733000D01*
G75*
G02*
X58064400Y-123809200I-76200J0D01*
G01*
G37*
G36*
G01*
X59334400Y-123809200D02*
X58775600Y-123809200D01*
G75*
G02*
X58699400Y-123733000I0J76200D01*
G01*
X58699400Y-122336000D01*
G75*
G02*
X58775600Y-122259800I76200J0D01*
G01*
X59334400Y-122259800D01*
G75*
G02*
X59410600Y-122336000I0J-76200D01*
G01*
X59410600Y-123733000D01*
G75*
G02*
X59334400Y-123809200I-76200J0D01*
G01*
G37*
G36*
G01*
X60604400Y-123809200D02*
X60045600Y-123809200D01*
G75*
G02*
X59969400Y-123733000I0J76200D01*
G01*
X59969400Y-122336000D01*
G75*
G02*
X60045600Y-122259800I76200J0D01*
G01*
X60604400Y-122259800D01*
G75*
G02*
X60680600Y-122336000I0J-76200D01*
G01*
X60680600Y-123733000D01*
G75*
G02*
X60604400Y-123809200I-76200J0D01*
G01*
G37*
G36*
G01*
X61874400Y-123809200D02*
X61315600Y-123809200D01*
G75*
G02*
X61239400Y-123733000I0J76200D01*
G01*
X61239400Y-122336000D01*
G75*
G02*
X61315600Y-122259800I76200J0D01*
G01*
X61874400Y-122259800D01*
G75*
G02*
X61950600Y-122336000I0J-76200D01*
G01*
X61950600Y-123733000D01*
G75*
G02*
X61874400Y-123809200I-76200J0D01*
G01*
G37*
G36*
G01*
X61874400Y-119202200D02*
X61315600Y-119202200D01*
G75*
G02*
X61239400Y-119126000I0J76200D01*
G01*
X61239400Y-117729000D01*
G75*
G02*
X61315600Y-117652800I76200J0D01*
G01*
X61874400Y-117652800D01*
G75*
G02*
X61950600Y-117729000I0J-76200D01*
G01*
X61950600Y-119126000D01*
G75*
G02*
X61874400Y-119202200I-76200J0D01*
G01*
G37*
G36*
G01*
X60604400Y-119202200D02*
X60045600Y-119202200D01*
G75*
G02*
X59969400Y-119126000I0J76200D01*
G01*
X59969400Y-117729000D01*
G75*
G02*
X60045600Y-117652800I76200J0D01*
G01*
X60604400Y-117652800D01*
G75*
G02*
X60680600Y-117729000I0J-76200D01*
G01*
X60680600Y-119126000D01*
G75*
G02*
X60604400Y-119202200I-76200J0D01*
G01*
G37*
G36*
G01*
X59334400Y-119202200D02*
X58775600Y-119202200D01*
G75*
G02*
X58699400Y-119126000I0J76200D01*
G01*
X58699400Y-117729000D01*
G75*
G02*
X58775600Y-117652800I76200J0D01*
G01*
X59334400Y-117652800D01*
G75*
G02*
X59410600Y-117729000I0J-76200D01*
G01*
X59410600Y-119126000D01*
G75*
G02*
X59334400Y-119202200I-76200J0D01*
G01*
G37*
G36*
G01*
X58064400Y-119202200D02*
X57505600Y-119202200D01*
G75*
G02*
X57429400Y-119126000I0J76200D01*
G01*
X57429400Y-117729000D01*
G75*
G02*
X57505600Y-117652800I76200J0D01*
G01*
X58064400Y-117652800D01*
G75*
G02*
X58140600Y-117729000I0J-76200D01*
G01*
X58140600Y-119126000D01*
G75*
G02*
X58064400Y-119202200I-76200J0D01*
G01*
G37*
%TD*%
%TO.C,C12*%
G36*
G01*
X74747300Y-104110600D02*
X74747300Y-103534400D01*
G75*
G02*
X75010400Y-103271300I263100J0D01*
G01*
X75536600Y-103271300D01*
G75*
G02*
X75799700Y-103534400I0J-263100D01*
G01*
X75799700Y-104110600D01*
G75*
G02*
X75536600Y-104373700I-263100J0D01*
G01*
X75010400Y-104373700D01*
G75*
G02*
X74747300Y-104110600I0J263100D01*
G01*
G37*
G36*
G01*
X73197300Y-104110600D02*
X73197300Y-103534400D01*
G75*
G02*
X73460400Y-103271300I263100J0D01*
G01*
X73986600Y-103271300D01*
G75*
G02*
X74249700Y-103534400I0J-263100D01*
G01*
X74249700Y-104110600D01*
G75*
G02*
X73986600Y-104373700I-263100J0D01*
G01*
X73460400Y-104373700D01*
G75*
G02*
X73197300Y-104110600I0J263100D01*
G01*
G37*
%TD*%
%TO.C,C11*%
G36*
G01*
X78033700Y-103534400D02*
X78033700Y-104110600D01*
G75*
G02*
X77770600Y-104373700I-263100J0D01*
G01*
X77244400Y-104373700D01*
G75*
G02*
X76981300Y-104110600I0J263100D01*
G01*
X76981300Y-103534400D01*
G75*
G02*
X77244400Y-103271300I263100J0D01*
G01*
X77770600Y-103271300D01*
G75*
G02*
X78033700Y-103534400I0J-263100D01*
G01*
G37*
G36*
G01*
X79583700Y-103534400D02*
X79583700Y-104110600D01*
G75*
G02*
X79320600Y-104373700I-263100J0D01*
G01*
X78794400Y-104373700D01*
G75*
G02*
X78531300Y-104110600I0J263100D01*
G01*
X78531300Y-103534400D01*
G75*
G02*
X78794400Y-103271300I263100J0D01*
G01*
X79320600Y-103271300D01*
G75*
G02*
X79583700Y-103534400I0J-263100D01*
G01*
G37*
%TD*%
%TO.C,C10*%
G36*
G01*
X84195571Y-106603700D02*
X82809429Y-106603700D01*
G75*
G02*
X82526300Y-106320571I0J283129D01*
G01*
X82526300Y-105584429D01*
G75*
G02*
X82809429Y-105301300I283129J0D01*
G01*
X84195571Y-105301300D01*
G75*
G02*
X84478700Y-105584429I0J-283129D01*
G01*
X84478700Y-106320571D01*
G75*
G02*
X84195571Y-106603700I-283129J0D01*
G01*
G37*
G36*
G01*
X84195571Y-109553700D02*
X82809429Y-109553700D01*
G75*
G02*
X82526300Y-109270571I0J283129D01*
G01*
X82526300Y-108534429D01*
G75*
G02*
X82809429Y-108251300I283129J0D01*
G01*
X84195571Y-108251300D01*
G75*
G02*
X84478700Y-108534429I0J-283129D01*
G01*
X84478700Y-109270571D01*
G75*
G02*
X84195571Y-109553700I-283129J0D01*
G01*
G37*
%TD*%
%TO.C,C6*%
G36*
G01*
X61460200Y-110201900D02*
X61460200Y-110778100D01*
G75*
G02*
X61197100Y-111041200I-263100J0D01*
G01*
X60670900Y-111041200D01*
G75*
G02*
X60407800Y-110778100I0J263100D01*
G01*
X60407800Y-110201900D01*
G75*
G02*
X60670900Y-109938800I263100J0D01*
G01*
X61197100Y-109938800D01*
G75*
G02*
X61460200Y-110201900I0J-263100D01*
G01*
G37*
G36*
G01*
X63010200Y-110201900D02*
X63010200Y-110778100D01*
G75*
G02*
X62747100Y-111041200I-263100J0D01*
G01*
X62220900Y-111041200D01*
G75*
G02*
X61957800Y-110778100I0J263100D01*
G01*
X61957800Y-110201900D01*
G75*
G02*
X62220900Y-109938800I263100J0D01*
G01*
X62747100Y-109938800D01*
G75*
G02*
X63010200Y-110201900I0J-263100D01*
G01*
G37*
%TD*%
%TO.C,SW2*%
G36*
G01*
X33934400Y-123809200D02*
X33375600Y-123809200D01*
G75*
G02*
X33299400Y-123733000I0J76200D01*
G01*
X33299400Y-122336000D01*
G75*
G02*
X33375600Y-122259800I76200J0D01*
G01*
X33934400Y-122259800D01*
G75*
G02*
X34010600Y-122336000I0J-76200D01*
G01*
X34010600Y-123733000D01*
G75*
G02*
X33934400Y-123809200I-76200J0D01*
G01*
G37*
G36*
G01*
X35204400Y-123809200D02*
X34645600Y-123809200D01*
G75*
G02*
X34569400Y-123733000I0J76200D01*
G01*
X34569400Y-122336000D01*
G75*
G02*
X34645600Y-122259800I76200J0D01*
G01*
X35204400Y-122259800D01*
G75*
G02*
X35280600Y-122336000I0J-76200D01*
G01*
X35280600Y-123733000D01*
G75*
G02*
X35204400Y-123809200I-76200J0D01*
G01*
G37*
G36*
G01*
X36474400Y-123809200D02*
X35915600Y-123809200D01*
G75*
G02*
X35839400Y-123733000I0J76200D01*
G01*
X35839400Y-122336000D01*
G75*
G02*
X35915600Y-122259800I76200J0D01*
G01*
X36474400Y-122259800D01*
G75*
G02*
X36550600Y-122336000I0J-76200D01*
G01*
X36550600Y-123733000D01*
G75*
G02*
X36474400Y-123809200I-76200J0D01*
G01*
G37*
G36*
G01*
X37744400Y-123809200D02*
X37185600Y-123809200D01*
G75*
G02*
X37109400Y-123733000I0J76200D01*
G01*
X37109400Y-122336000D01*
G75*
G02*
X37185600Y-122259800I76200J0D01*
G01*
X37744400Y-122259800D01*
G75*
G02*
X37820600Y-122336000I0J-76200D01*
G01*
X37820600Y-123733000D01*
G75*
G02*
X37744400Y-123809200I-76200J0D01*
G01*
G37*
G36*
G01*
X39014400Y-123809200D02*
X38455600Y-123809200D01*
G75*
G02*
X38379400Y-123733000I0J76200D01*
G01*
X38379400Y-122336000D01*
G75*
G02*
X38455600Y-122259800I76200J0D01*
G01*
X39014400Y-122259800D01*
G75*
G02*
X39090600Y-122336000I0J-76200D01*
G01*
X39090600Y-123733000D01*
G75*
G02*
X39014400Y-123809200I-76200J0D01*
G01*
G37*
G36*
G01*
X40284400Y-123809200D02*
X39725600Y-123809200D01*
G75*
G02*
X39649400Y-123733000I0J76200D01*
G01*
X39649400Y-122336000D01*
G75*
G02*
X39725600Y-122259800I76200J0D01*
G01*
X40284400Y-122259800D01*
G75*
G02*
X40360600Y-122336000I0J-76200D01*
G01*
X40360600Y-123733000D01*
G75*
G02*
X40284400Y-123809200I-76200J0D01*
G01*
G37*
G36*
G01*
X41554400Y-123809200D02*
X40995600Y-123809200D01*
G75*
G02*
X40919400Y-123733000I0J76200D01*
G01*
X40919400Y-122336000D01*
G75*
G02*
X40995600Y-122259800I76200J0D01*
G01*
X41554400Y-122259800D01*
G75*
G02*
X41630600Y-122336000I0J-76200D01*
G01*
X41630600Y-123733000D01*
G75*
G02*
X41554400Y-123809200I-76200J0D01*
G01*
G37*
G36*
G01*
X42824400Y-123809200D02*
X42265600Y-123809200D01*
G75*
G02*
X42189400Y-123733000I0J76200D01*
G01*
X42189400Y-122336000D01*
G75*
G02*
X42265600Y-122259800I76200J0D01*
G01*
X42824400Y-122259800D01*
G75*
G02*
X42900600Y-122336000I0J-76200D01*
G01*
X42900600Y-123733000D01*
G75*
G02*
X42824400Y-123809200I-76200J0D01*
G01*
G37*
G36*
G01*
X42824400Y-119202200D02*
X42265600Y-119202200D01*
G75*
G02*
X42189400Y-119126000I0J76200D01*
G01*
X42189400Y-117729000D01*
G75*
G02*
X42265600Y-117652800I76200J0D01*
G01*
X42824400Y-117652800D01*
G75*
G02*
X42900600Y-117729000I0J-76200D01*
G01*
X42900600Y-119126000D01*
G75*
G02*
X42824400Y-119202200I-76200J0D01*
G01*
G37*
G36*
G01*
X41554400Y-119202200D02*
X40995600Y-119202200D01*
G75*
G02*
X40919400Y-119126000I0J76200D01*
G01*
X40919400Y-117729000D01*
G75*
G02*
X40995600Y-117652800I76200J0D01*
G01*
X41554400Y-117652800D01*
G75*
G02*
X41630600Y-117729000I0J-76200D01*
G01*
X41630600Y-119126000D01*
G75*
G02*
X41554400Y-119202200I-76200J0D01*
G01*
G37*
G36*
G01*
X40284400Y-119202200D02*
X39725600Y-119202200D01*
G75*
G02*
X39649400Y-119126000I0J76200D01*
G01*
X39649400Y-117729000D01*
G75*
G02*
X39725600Y-117652800I76200J0D01*
G01*
X40284400Y-117652800D01*
G75*
G02*
X40360600Y-117729000I0J-76200D01*
G01*
X40360600Y-119126000D01*
G75*
G02*
X40284400Y-119202200I-76200J0D01*
G01*
G37*
G36*
G01*
X39014400Y-119202200D02*
X38455600Y-119202200D01*
G75*
G02*
X38379400Y-119126000I0J76200D01*
G01*
X38379400Y-117729000D01*
G75*
G02*
X38455600Y-117652800I76200J0D01*
G01*
X39014400Y-117652800D01*
G75*
G02*
X39090600Y-117729000I0J-76200D01*
G01*
X39090600Y-119126000D01*
G75*
G02*
X39014400Y-119202200I-76200J0D01*
G01*
G37*
G36*
G01*
X37744400Y-119202200D02*
X37185600Y-119202200D01*
G75*
G02*
X37109400Y-119126000I0J76200D01*
G01*
X37109400Y-117729000D01*
G75*
G02*
X37185600Y-117652800I76200J0D01*
G01*
X37744400Y-117652800D01*
G75*
G02*
X37820600Y-117729000I0J-76200D01*
G01*
X37820600Y-119126000D01*
G75*
G02*
X37744400Y-119202200I-76200J0D01*
G01*
G37*
G36*
G01*
X36474400Y-119202200D02*
X35915600Y-119202200D01*
G75*
G02*
X35839400Y-119126000I0J76200D01*
G01*
X35839400Y-117729000D01*
G75*
G02*
X35915600Y-117652800I76200J0D01*
G01*
X36474400Y-117652800D01*
G75*
G02*
X36550600Y-117729000I0J-76200D01*
G01*
X36550600Y-119126000D01*
G75*
G02*
X36474400Y-119202200I-76200J0D01*
G01*
G37*
G36*
G01*
X35204400Y-119202200D02*
X34645600Y-119202200D01*
G75*
G02*
X34569400Y-119126000I0J76200D01*
G01*
X34569400Y-117729000D01*
G75*
G02*
X34645600Y-117652800I76200J0D01*
G01*
X35204400Y-117652800D01*
G75*
G02*
X35280600Y-117729000I0J-76200D01*
G01*
X35280600Y-119126000D01*
G75*
G02*
X35204400Y-119202200I-76200J0D01*
G01*
G37*
G36*
G01*
X33934400Y-119202200D02*
X33375600Y-119202200D01*
G75*
G02*
X33299400Y-119126000I0J76200D01*
G01*
X33299400Y-117729000D01*
G75*
G02*
X33375600Y-117652800I76200J0D01*
G01*
X33934400Y-117652800D01*
G75*
G02*
X34010600Y-117729000I0J-76200D01*
G01*
X34010600Y-119126000D01*
G75*
G02*
X33934400Y-119202200I-76200J0D01*
G01*
G37*
%TD*%
%TO.C,U1*%
G36*
G01*
X30937800Y-122513000D02*
X30937800Y-121713000D01*
G75*
G02*
X31014000Y-121636800I76200J0D01*
G01*
X31914000Y-121636800D01*
G75*
G02*
X31990200Y-121713000I0J-76200D01*
G01*
X31990200Y-122513000D01*
G75*
G02*
X31914000Y-122589200I-76200J0D01*
G01*
X31014000Y-122589200D01*
G75*
G02*
X30937800Y-122513000I0J76200D01*
G01*
G37*
G36*
G01*
X28937800Y-123463000D02*
X28937800Y-122663000D01*
G75*
G02*
X29014000Y-122586800I76200J0D01*
G01*
X29914000Y-122586800D01*
G75*
G02*
X29990200Y-122663000I0J-76200D01*
G01*
X29990200Y-123463000D01*
G75*
G02*
X29914000Y-123539200I-76200J0D01*
G01*
X29014000Y-123539200D01*
G75*
G02*
X28937800Y-123463000I0J76200D01*
G01*
G37*
G36*
G01*
X28937800Y-121563000D02*
X28937800Y-120763000D01*
G75*
G02*
X29014000Y-120686800I76200J0D01*
G01*
X29914000Y-120686800D01*
G75*
G02*
X29990200Y-120763000I0J-76200D01*
G01*
X29990200Y-121563000D01*
G75*
G02*
X29914000Y-121639200I-76200J0D01*
G01*
X29014000Y-121639200D01*
G75*
G02*
X28937800Y-121563000I0J76200D01*
G01*
G37*
%TD*%
%TO.C,R10*%
G36*
G01*
X26765200Y-122749900D02*
X26765200Y-123376100D01*
G75*
G02*
X26527100Y-123614200I-238100J0D01*
G01*
X26050900Y-123614200D01*
G75*
G02*
X25812800Y-123376100I0J238100D01*
G01*
X25812800Y-122749900D01*
G75*
G02*
X26050900Y-122511800I238100J0D01*
G01*
X26527100Y-122511800D01*
G75*
G02*
X26765200Y-122749900I0J-238100D01*
G01*
G37*
G36*
G01*
X28415200Y-122749900D02*
X28415200Y-123376100D01*
G75*
G02*
X28177100Y-123614200I-238100J0D01*
G01*
X27700900Y-123614200D01*
G75*
G02*
X27462800Y-123376100I0J238100D01*
G01*
X27462800Y-122749900D01*
G75*
G02*
X27700900Y-122511800I238100J0D01*
G01*
X28177100Y-122511800D01*
G75*
G02*
X28415200Y-122749900I0J-238100D01*
G01*
G37*
%TD*%
%TO.C,R5*%
G36*
G01*
X38095600Y-101696200D02*
X37469400Y-101696200D01*
G75*
G02*
X37231300Y-101458100I0J238100D01*
G01*
X37231300Y-100981900D01*
G75*
G02*
X37469400Y-100743800I238100J0D01*
G01*
X38095600Y-100743800D01*
G75*
G02*
X38333700Y-100981900I0J-238100D01*
G01*
X38333700Y-101458100D01*
G75*
G02*
X38095600Y-101696200I-238100J0D01*
G01*
G37*
G36*
G01*
X38095600Y-103346200D02*
X37469400Y-103346200D01*
G75*
G02*
X37231300Y-103108100I0J238100D01*
G01*
X37231300Y-102631900D01*
G75*
G02*
X37469400Y-102393800I238100J0D01*
G01*
X38095600Y-102393800D01*
G75*
G02*
X38333700Y-102631900I0J-238100D01*
G01*
X38333700Y-103108100D01*
G75*
G02*
X38095600Y-103346200I-238100J0D01*
G01*
G37*
%TD*%
%TO.C,R13*%
G36*
G01*
X37469400Y-106076300D02*
X38095600Y-106076300D01*
G75*
G02*
X38333700Y-106314400I0J-238100D01*
G01*
X38333700Y-106790600D01*
G75*
G02*
X38095600Y-107028700I-238100J0D01*
G01*
X37469400Y-107028700D01*
G75*
G02*
X37231300Y-106790600I0J238100D01*
G01*
X37231300Y-106314400D01*
G75*
G02*
X37469400Y-106076300I238100J0D01*
G01*
G37*
G36*
G01*
X37469400Y-104426300D02*
X38095600Y-104426300D01*
G75*
G02*
X38333700Y-104664400I0J-238100D01*
G01*
X38333700Y-105140600D01*
G75*
G02*
X38095600Y-105378700I-238100J0D01*
G01*
X37469400Y-105378700D01*
G75*
G02*
X37231300Y-105140600I0J238100D01*
G01*
X37231300Y-104664400D01*
G75*
G02*
X37469400Y-104426300I238100J0D01*
G01*
G37*
%TD*%
%TO.C,C5*%
G36*
G01*
X81944400Y-112148800D02*
X82520600Y-112148800D01*
G75*
G02*
X82783700Y-112411900I0J-263100D01*
G01*
X82783700Y-112938100D01*
G75*
G02*
X82520600Y-113201200I-263100J0D01*
G01*
X81944400Y-113201200D01*
G75*
G02*
X81681300Y-112938100I0J263100D01*
G01*
X81681300Y-112411900D01*
G75*
G02*
X81944400Y-112148800I263100J0D01*
G01*
G37*
G36*
G01*
X81944400Y-110598800D02*
X82520600Y-110598800D01*
G75*
G02*
X82783700Y-110861900I0J-263100D01*
G01*
X82783700Y-111388100D01*
G75*
G02*
X82520600Y-111651200I-263100J0D01*
G01*
X81944400Y-111651200D01*
G75*
G02*
X81681300Y-111388100I0J263100D01*
G01*
X81681300Y-110861900D01*
G75*
G02*
X81944400Y-110598800I263100J0D01*
G01*
G37*
%TD*%
%TO.C,C4*%
G36*
G01*
X72043100Y-113556200D02*
X71466900Y-113556200D01*
G75*
G02*
X71203800Y-113293100I0J263100D01*
G01*
X71203800Y-112766900D01*
G75*
G02*
X71466900Y-112503800I263100J0D01*
G01*
X72043100Y-112503800D01*
G75*
G02*
X72306200Y-112766900I0J-263100D01*
G01*
X72306200Y-113293100D01*
G75*
G02*
X72043100Y-113556200I-263100J0D01*
G01*
G37*
G36*
G01*
X72043100Y-115106200D02*
X71466900Y-115106200D01*
G75*
G02*
X71203800Y-114843100I0J263100D01*
G01*
X71203800Y-114316900D01*
G75*
G02*
X71466900Y-114053800I263100J0D01*
G01*
X72043100Y-114053800D01*
G75*
G02*
X72306200Y-114316900I0J-263100D01*
G01*
X72306200Y-114843100D01*
G75*
G02*
X72043100Y-115106200I-263100J0D01*
G01*
G37*
%TD*%
%TO.C,L1*%
G36*
G01*
X95208700Y-98050000D02*
X95208700Y-98800000D01*
G75*
G02*
X95132500Y-98876200I-76200J0D01*
G01*
X94732500Y-98876200D01*
G75*
G02*
X94656300Y-98800000I0J76200D01*
G01*
X94656300Y-98050000D01*
G75*
G02*
X94732500Y-97973800I76200J0D01*
G01*
X95132500Y-97973800D01*
G75*
G02*
X95208700Y-98050000I0J-76200D01*
G01*
G37*
G36*
G01*
X95208700Y-96175300D02*
X95208700Y-96925300D01*
G75*
G02*
X95132500Y-97001500I-76200J0D01*
G01*
X94732500Y-97001500D01*
G75*
G02*
X94656300Y-96925300I0J76200D01*
G01*
X94656300Y-96175300D01*
G75*
G02*
X94732500Y-96099100I76200J0D01*
G01*
X95132500Y-96099100D01*
G75*
G02*
X95208700Y-96175300I0J-76200D01*
G01*
G37*
G36*
G01*
X94308700Y-96175300D02*
X94308700Y-96925300D01*
G75*
G02*
X94232500Y-97001500I-76200J0D01*
G01*
X93832500Y-97001500D01*
G75*
G02*
X93756300Y-96925300I0J76200D01*
G01*
X93756300Y-96175300D01*
G75*
G02*
X93832500Y-96099100I76200J0D01*
G01*
X94232500Y-96099100D01*
G75*
G02*
X94308700Y-96175300I0J-76200D01*
G01*
G37*
G36*
G01*
X94308700Y-98050000D02*
X94308700Y-98800000D01*
G75*
G02*
X94232500Y-98876200I-76200J0D01*
G01*
X93832500Y-98876200D01*
G75*
G02*
X93756300Y-98800000I0J76200D01*
G01*
X93756300Y-98050000D01*
G75*
G02*
X93832500Y-97973800I76200J0D01*
G01*
X94232500Y-97973800D01*
G75*
G02*
X94308700Y-98050000I0J-76200D01*
G01*
G37*
%TD*%
%TO.C,F1*%
G36*
G01*
X91780650Y-98863800D02*
X92369350Y-98863800D01*
G75*
G02*
X92626200Y-99120650I0J-256850D01*
G01*
X92626200Y-99634350D01*
G75*
G02*
X92369350Y-99891200I-256850J0D01*
G01*
X91780650Y-99891200D01*
G75*
G02*
X91523800Y-99634350I0J256850D01*
G01*
X91523800Y-99120650D01*
G75*
G02*
X91780650Y-98863800I256850J0D01*
G01*
G37*
G36*
G01*
X91780650Y-97288800D02*
X92369350Y-97288800D01*
G75*
G02*
X92626200Y-97545650I0J-256850D01*
G01*
X92626200Y-98059350D01*
G75*
G02*
X92369350Y-98316200I-256850J0D01*
G01*
X91780650Y-98316200D01*
G75*
G02*
X91523800Y-98059350I0J256850D01*
G01*
X91523800Y-97545650D01*
G75*
G02*
X91780650Y-97288800I256850J0D01*
G01*
G37*
%TD*%
%TO.C,D3*%
G36*
G01*
X84905700Y-103122500D02*
X84905700Y-104522500D01*
G75*
G02*
X84829500Y-104598700I-76200J0D01*
G01*
X82429500Y-104598700D01*
G75*
G02*
X82353300Y-104522500I0J76200D01*
G01*
X82353300Y-103122500D01*
G75*
G02*
X82429500Y-103046300I76200J0D01*
G01*
X84829500Y-103046300D01*
G75*
G02*
X84905700Y-103122500I0J-76200D01*
G01*
G37*
G36*
G01*
X81805700Y-103122500D02*
X81805700Y-104522500D01*
G75*
G02*
X81729500Y-104598700I-76200J0D01*
G01*
X80829500Y-104598700D01*
G75*
G02*
X80753300Y-104522500I0J76200D01*
G01*
X80753300Y-103122500D01*
G75*
G02*
X80829500Y-103046300I76200J0D01*
G01*
X81729500Y-103046300D01*
G75*
G02*
X81805700Y-103122500I0J-76200D01*
G01*
G37*
%TD*%
%TO.C,U4*%
G36*
G01*
X61341000Y-104680700D02*
X60579000Y-104680700D01*
G75*
G02*
X60477400Y-104579100I0J101600D01*
G01*
X60477400Y-104375900D01*
G75*
G02*
X60579000Y-104274300I101600J0D01*
G01*
X61341000Y-104274300D01*
G75*
G02*
X61442600Y-104375900I0J-101600D01*
G01*
X61442600Y-104579100D01*
G75*
G02*
X61341000Y-104680700I-101600J0D01*
G01*
G37*
G36*
G01*
X61341000Y-105180699D02*
X60579000Y-105180699D01*
G75*
G02*
X60477400Y-105079099I0J101600D01*
G01*
X60477400Y-104875899D01*
G75*
G02*
X60579000Y-104774299I101600J0D01*
G01*
X61341000Y-104774299D01*
G75*
G02*
X61442600Y-104875899I0J-101600D01*
G01*
X61442600Y-105079099D01*
G75*
G02*
X61341000Y-105180699I-101600J0D01*
G01*
G37*
G36*
G01*
X61341000Y-105680700D02*
X60579000Y-105680700D01*
G75*
G02*
X60477400Y-105579100I0J101600D01*
G01*
X60477400Y-105375900D01*
G75*
G02*
X60579000Y-105274300I101600J0D01*
G01*
X61341000Y-105274300D01*
G75*
G02*
X61442600Y-105375900I0J-101600D01*
G01*
X61442600Y-105579100D01*
G75*
G02*
X61341000Y-105680700I-101600J0D01*
G01*
G37*
G36*
G01*
X61341000Y-106180700D02*
X60579000Y-106180700D01*
G75*
G02*
X60477400Y-106079100I0J101600D01*
G01*
X60477400Y-105875900D01*
G75*
G02*
X60579000Y-105774300I101600J0D01*
G01*
X61341000Y-105774300D01*
G75*
G02*
X61442600Y-105875900I0J-101600D01*
G01*
X61442600Y-106079100D01*
G75*
G02*
X61341000Y-106180700I-101600J0D01*
G01*
G37*
G36*
G01*
X61341000Y-106680701D02*
X60579000Y-106680701D01*
G75*
G02*
X60477400Y-106579101I0J101600D01*
G01*
X60477400Y-106375901D01*
G75*
G02*
X60579000Y-106274301I101600J0D01*
G01*
X61341000Y-106274301D01*
G75*
G02*
X61442600Y-106375901I0J-101600D01*
G01*
X61442600Y-106579101D01*
G75*
G02*
X61341000Y-106680701I-101600J0D01*
G01*
G37*
G36*
G01*
X61341000Y-107180700D02*
X60579000Y-107180700D01*
G75*
G02*
X60477400Y-107079100I0J101600D01*
G01*
X60477400Y-106875900D01*
G75*
G02*
X60579000Y-106774300I101600J0D01*
G01*
X61341000Y-106774300D01*
G75*
G02*
X61442600Y-106875900I0J-101600D01*
G01*
X61442600Y-107079100D01*
G75*
G02*
X61341000Y-107180700I-101600J0D01*
G01*
G37*
G36*
G01*
X61411800Y-108013500D02*
X61411800Y-107251500D01*
G75*
G02*
X61513400Y-107149900I101600J0D01*
G01*
X61716600Y-107149900D01*
G75*
G02*
X61818200Y-107251500I0J-101600D01*
G01*
X61818200Y-108013500D01*
G75*
G02*
X61716600Y-108115100I-101600J0D01*
G01*
X61513400Y-108115100D01*
G75*
G02*
X61411800Y-108013500I0J101600D01*
G01*
G37*
G36*
G01*
X61911799Y-108013500D02*
X61911799Y-107251500D01*
G75*
G02*
X62013399Y-107149900I101600J0D01*
G01*
X62216599Y-107149900D01*
G75*
G02*
X62318199Y-107251500I0J-101600D01*
G01*
X62318199Y-108013500D01*
G75*
G02*
X62216599Y-108115100I-101600J0D01*
G01*
X62013399Y-108115100D01*
G75*
G02*
X61911799Y-108013500I0J101600D01*
G01*
G37*
G36*
G01*
X62411800Y-108013500D02*
X62411800Y-107251500D01*
G75*
G02*
X62513400Y-107149900I101600J0D01*
G01*
X62716600Y-107149900D01*
G75*
G02*
X62818200Y-107251500I0J-101600D01*
G01*
X62818200Y-108013500D01*
G75*
G02*
X62716600Y-108115100I-101600J0D01*
G01*
X62513400Y-108115100D01*
G75*
G02*
X62411800Y-108013500I0J101600D01*
G01*
G37*
G36*
G01*
X62911800Y-108013500D02*
X62911800Y-107251500D01*
G75*
G02*
X63013400Y-107149900I101600J0D01*
G01*
X63216600Y-107149900D01*
G75*
G02*
X63318200Y-107251500I0J-101600D01*
G01*
X63318200Y-108013500D01*
G75*
G02*
X63216600Y-108115100I-101600J0D01*
G01*
X63013400Y-108115100D01*
G75*
G02*
X62911800Y-108013500I0J101600D01*
G01*
G37*
G36*
G01*
X63411801Y-108013500D02*
X63411801Y-107251500D01*
G75*
G02*
X63513401Y-107149900I101600J0D01*
G01*
X63716601Y-107149900D01*
G75*
G02*
X63818201Y-107251500I0J-101600D01*
G01*
X63818201Y-108013500D01*
G75*
G02*
X63716601Y-108115100I-101600J0D01*
G01*
X63513401Y-108115100D01*
G75*
G02*
X63411801Y-108013500I0J101600D01*
G01*
G37*
G36*
G01*
X63911800Y-108013500D02*
X63911800Y-107251500D01*
G75*
G02*
X64013400Y-107149900I101600J0D01*
G01*
X64216600Y-107149900D01*
G75*
G02*
X64318200Y-107251500I0J-101600D01*
G01*
X64318200Y-108013500D01*
G75*
G02*
X64216600Y-108115100I-101600J0D01*
G01*
X64013400Y-108115100D01*
G75*
G02*
X63911800Y-108013500I0J101600D01*
G01*
G37*
G36*
G01*
X65151000Y-107180700D02*
X64389000Y-107180700D01*
G75*
G02*
X64287400Y-107079100I0J101600D01*
G01*
X64287400Y-106875900D01*
G75*
G02*
X64389000Y-106774300I101600J0D01*
G01*
X65151000Y-106774300D01*
G75*
G02*
X65252600Y-106875900I0J-101600D01*
G01*
X65252600Y-107079100D01*
G75*
G02*
X65151000Y-107180700I-101600J0D01*
G01*
G37*
G36*
G01*
X65151000Y-106680701D02*
X64389000Y-106680701D01*
G75*
G02*
X64287400Y-106579101I0J101600D01*
G01*
X64287400Y-106375901D01*
G75*
G02*
X64389000Y-106274301I101600J0D01*
G01*
X65151000Y-106274301D01*
G75*
G02*
X65252600Y-106375901I0J-101600D01*
G01*
X65252600Y-106579101D01*
G75*
G02*
X65151000Y-106680701I-101600J0D01*
G01*
G37*
G36*
G01*
X65151000Y-106180700D02*
X64389000Y-106180700D01*
G75*
G02*
X64287400Y-106079100I0J101600D01*
G01*
X64287400Y-105875900D01*
G75*
G02*
X64389000Y-105774300I101600J0D01*
G01*
X65151000Y-105774300D01*
G75*
G02*
X65252600Y-105875900I0J-101600D01*
G01*
X65252600Y-106079100D01*
G75*
G02*
X65151000Y-106180700I-101600J0D01*
G01*
G37*
G36*
G01*
X65151000Y-105680700D02*
X64389000Y-105680700D01*
G75*
G02*
X64287400Y-105579100I0J101600D01*
G01*
X64287400Y-105375900D01*
G75*
G02*
X64389000Y-105274300I101600J0D01*
G01*
X65151000Y-105274300D01*
G75*
G02*
X65252600Y-105375900I0J-101600D01*
G01*
X65252600Y-105579100D01*
G75*
G02*
X65151000Y-105680700I-101600J0D01*
G01*
G37*
G36*
G01*
X65151000Y-105180699D02*
X64389000Y-105180699D01*
G75*
G02*
X64287400Y-105079099I0J101600D01*
G01*
X64287400Y-104875899D01*
G75*
G02*
X64389000Y-104774299I101600J0D01*
G01*
X65151000Y-104774299D01*
G75*
G02*
X65252600Y-104875899I0J-101600D01*
G01*
X65252600Y-105079099D01*
G75*
G02*
X65151000Y-105180699I-101600J0D01*
G01*
G37*
G36*
G01*
X65151000Y-104680700D02*
X64389000Y-104680700D01*
G75*
G02*
X64287400Y-104579100I0J101600D01*
G01*
X64287400Y-104375900D01*
G75*
G02*
X64389000Y-104274300I101600J0D01*
G01*
X65151000Y-104274300D01*
G75*
G02*
X65252600Y-104375900I0J-101600D01*
G01*
X65252600Y-104579100D01*
G75*
G02*
X65151000Y-104680700I-101600J0D01*
G01*
G37*
G36*
G01*
X63911800Y-104203500D02*
X63911800Y-103441500D01*
G75*
G02*
X64013400Y-103339900I101600J0D01*
G01*
X64216600Y-103339900D01*
G75*
G02*
X64318200Y-103441500I0J-101600D01*
G01*
X64318200Y-104203500D01*
G75*
G02*
X64216600Y-104305100I-101600J0D01*
G01*
X64013400Y-104305100D01*
G75*
G02*
X63911800Y-104203500I0J101600D01*
G01*
G37*
G36*
G01*
X63411801Y-104203500D02*
X63411801Y-103441500D01*
G75*
G02*
X63513401Y-103339900I101600J0D01*
G01*
X63716601Y-103339900D01*
G75*
G02*
X63818201Y-103441500I0J-101600D01*
G01*
X63818201Y-104203500D01*
G75*
G02*
X63716601Y-104305100I-101600J0D01*
G01*
X63513401Y-104305100D01*
G75*
G02*
X63411801Y-104203500I0J101600D01*
G01*
G37*
G36*
G01*
X62911800Y-104203500D02*
X62911800Y-103441500D01*
G75*
G02*
X63013400Y-103339900I101600J0D01*
G01*
X63216600Y-103339900D01*
G75*
G02*
X63318200Y-103441500I0J-101600D01*
G01*
X63318200Y-104203500D01*
G75*
G02*
X63216600Y-104305100I-101600J0D01*
G01*
X63013400Y-104305100D01*
G75*
G02*
X62911800Y-104203500I0J101600D01*
G01*
G37*
G36*
G01*
X62411800Y-104203500D02*
X62411800Y-103441500D01*
G75*
G02*
X62513400Y-103339900I101600J0D01*
G01*
X62716600Y-103339900D01*
G75*
G02*
X62818200Y-103441500I0J-101600D01*
G01*
X62818200Y-104203500D01*
G75*
G02*
X62716600Y-104305100I-101600J0D01*
G01*
X62513400Y-104305100D01*
G75*
G02*
X62411800Y-104203500I0J101600D01*
G01*
G37*
G36*
G01*
X61911799Y-104203500D02*
X61911799Y-103441500D01*
G75*
G02*
X62013399Y-103339900I101600J0D01*
G01*
X62216599Y-103339900D01*
G75*
G02*
X62318199Y-103441500I0J-101600D01*
G01*
X62318199Y-104203500D01*
G75*
G02*
X62216599Y-104305100I-101600J0D01*
G01*
X62013399Y-104305100D01*
G75*
G02*
X61911799Y-104203500I0J101600D01*
G01*
G37*
G36*
G01*
X61411800Y-104203500D02*
X61411800Y-103441500D01*
G75*
G02*
X61513400Y-103339900I101600J0D01*
G01*
X61716600Y-103339900D01*
G75*
G02*
X61818200Y-103441500I0J-101600D01*
G01*
X61818200Y-104203500D01*
G75*
G02*
X61716600Y-104305100I-101600J0D01*
G01*
X61513400Y-104305100D01*
G75*
G02*
X61411800Y-104203500I0J101600D01*
G01*
G37*
G36*
G01*
X61468000Y-107048300D02*
X61468000Y-104406700D01*
G75*
G02*
X61544200Y-104330500I76200J0D01*
G01*
X64185800Y-104330500D01*
G75*
G02*
X64262000Y-104406700I0J-76200D01*
G01*
X64262000Y-107048300D01*
G75*
G02*
X64185800Y-107124500I-76200J0D01*
G01*
X61544200Y-107124500D01*
G75*
G02*
X61468000Y-107048300I0J76200D01*
G01*
G37*
%TD*%
D25*
%TO.C,H1*%
X106680000Y-121920000D03*
%TD*%
%TO.C,U2*%
G36*
G01*
X25686500Y-104331200D02*
X24986500Y-104331200D01*
G75*
G02*
X24910300Y-104255000I0J76200D01*
G01*
X24910300Y-103555000D01*
G75*
G02*
X24986500Y-103478800I76200J0D01*
G01*
X25686500Y-103478800D01*
G75*
G02*
X25762700Y-103555000I0J-76200D01*
G01*
X25762700Y-104255000D01*
G75*
G02*
X25686500Y-104331200I-76200J0D01*
G01*
G37*
G36*
G01*
X35586500Y-104331200D02*
X34886500Y-104331200D01*
G75*
G02*
X34810300Y-104255000I0J76200D01*
G01*
X34810300Y-103555000D01*
G75*
G02*
X34886500Y-103478800I76200J0D01*
G01*
X35586500Y-103478800D01*
G75*
G02*
X35662700Y-103555000I0J-76200D01*
G01*
X35662700Y-104255000D01*
G75*
G02*
X35586500Y-104331200I-76200J0D01*
G01*
G37*
G36*
G01*
X35586500Y-116231200D02*
X34886500Y-116231200D01*
G75*
G02*
X34810300Y-116155000I0J76200D01*
G01*
X34810300Y-115455000D01*
G75*
G02*
X34886500Y-115378800I76200J0D01*
G01*
X35586500Y-115378800D01*
G75*
G02*
X35662700Y-115455000I0J-76200D01*
G01*
X35662700Y-116155000D01*
G75*
G02*
X35586500Y-116231200I-76200J0D01*
G01*
G37*
G36*
G01*
X25686500Y-116231200D02*
X24986500Y-116231200D01*
G75*
G02*
X24910300Y-116155000I0J76200D01*
G01*
X24910300Y-115455000D01*
G75*
G02*
X24986500Y-115378800I76200J0D01*
G01*
X25686500Y-115378800D01*
G75*
G02*
X25762700Y-115455000I0J-76200D01*
G01*
X25762700Y-116155000D01*
G75*
G02*
X25686500Y-116231200I-76200J0D01*
G01*
G37*
G36*
G01*
X31011500Y-108681200D02*
X29561500Y-108681200D01*
G75*
G02*
X29485300Y-108605000I0J76200D01*
G01*
X29485300Y-107155000D01*
G75*
G02*
X29561500Y-107078800I76200J0D01*
G01*
X31011500Y-107078800D01*
G75*
G02*
X31087700Y-107155000I0J-76200D01*
G01*
X31087700Y-108605000D01*
G75*
G02*
X31011500Y-108681200I-76200J0D01*
G01*
G37*
G36*
G01*
X32986500Y-108681200D02*
X31536500Y-108681200D01*
G75*
G02*
X31460300Y-108605000I0J76200D01*
G01*
X31460300Y-107155000D01*
G75*
G02*
X31536500Y-107078800I76200J0D01*
G01*
X32986500Y-107078800D01*
G75*
G02*
X33062700Y-107155000I0J-76200D01*
G01*
X33062700Y-108605000D01*
G75*
G02*
X32986500Y-108681200I-76200J0D01*
G01*
G37*
G36*
G01*
X32986500Y-110656200D02*
X31536500Y-110656200D01*
G75*
G02*
X31460300Y-110580000I0J76200D01*
G01*
X31460300Y-109130000D01*
G75*
G02*
X31536500Y-109053800I76200J0D01*
G01*
X32986500Y-109053800D01*
G75*
G02*
X33062700Y-109130000I0J-76200D01*
G01*
X33062700Y-110580000D01*
G75*
G02*
X32986500Y-110656200I-76200J0D01*
G01*
G37*
G36*
G01*
X32986500Y-112631200D02*
X31536500Y-112631200D01*
G75*
G02*
X31460300Y-112555000I0J76200D01*
G01*
X31460300Y-111105000D01*
G75*
G02*
X31536500Y-111028800I76200J0D01*
G01*
X32986500Y-111028800D01*
G75*
G02*
X33062700Y-111105000I0J-76200D01*
G01*
X33062700Y-112555000D01*
G75*
G02*
X32986500Y-112631200I-76200J0D01*
G01*
G37*
G36*
G01*
X31011500Y-112631200D02*
X29561500Y-112631200D01*
G75*
G02*
X29485300Y-112555000I0J76200D01*
G01*
X29485300Y-111105000D01*
G75*
G02*
X29561500Y-111028800I76200J0D01*
G01*
X31011500Y-111028800D01*
G75*
G02*
X31087700Y-111105000I0J-76200D01*
G01*
X31087700Y-112555000D01*
G75*
G02*
X31011500Y-112631200I-76200J0D01*
G01*
G37*
G36*
G01*
X29036500Y-110656200D02*
X27586500Y-110656200D01*
G75*
G02*
X27510300Y-110580000I0J76200D01*
G01*
X27510300Y-109130000D01*
G75*
G02*
X27586500Y-109053800I76200J0D01*
G01*
X29036500Y-109053800D01*
G75*
G02*
X29112700Y-109130000I0J-76200D01*
G01*
X29112700Y-110580000D01*
G75*
G02*
X29036500Y-110656200I-76200J0D01*
G01*
G37*
G36*
G01*
X29036500Y-108681200D02*
X27586500Y-108681200D01*
G75*
G02*
X27510300Y-108605000I0J76200D01*
G01*
X27510300Y-107155000D01*
G75*
G02*
X27586500Y-107078800I76200J0D01*
G01*
X29036500Y-107078800D01*
G75*
G02*
X29112700Y-107155000I0J-76200D01*
G01*
X29112700Y-108605000D01*
G75*
G02*
X29036500Y-108681200I-76200J0D01*
G01*
G37*
G36*
G01*
X31011500Y-110656200D02*
X29561500Y-110656200D01*
G75*
G02*
X29485300Y-110580000I0J76200D01*
G01*
X29485300Y-109130000D01*
G75*
G02*
X29561500Y-109053800I76200J0D01*
G01*
X31011500Y-109053800D01*
G75*
G02*
X31087700Y-109130000I0J-76200D01*
G01*
X31087700Y-110580000D01*
G75*
G02*
X31011500Y-110656200I-76200J0D01*
G01*
G37*
G36*
G01*
X25786500Y-114931200D02*
X24986500Y-114931200D01*
G75*
G02*
X24910300Y-114855000I0J76200D01*
G01*
X24910300Y-114455000D01*
G75*
G02*
X24986500Y-114378800I76200J0D01*
G01*
X25786500Y-114378800D01*
G75*
G02*
X25862700Y-114455000I0J-76200D01*
G01*
X25862700Y-114855000D01*
G75*
G02*
X25786500Y-114931200I-76200J0D01*
G01*
G37*
G36*
G01*
X25786500Y-114131200D02*
X24986500Y-114131200D01*
G75*
G02*
X24910300Y-114055000I0J76200D01*
G01*
X24910300Y-113655000D01*
G75*
G02*
X24986500Y-113578800I76200J0D01*
G01*
X25786500Y-113578800D01*
G75*
G02*
X25862700Y-113655000I0J-76200D01*
G01*
X25862700Y-114055000D01*
G75*
G02*
X25786500Y-114131200I-76200J0D01*
G01*
G37*
G36*
G01*
X25786500Y-113331200D02*
X24986500Y-113331200D01*
G75*
G02*
X24910300Y-113255000I0J76200D01*
G01*
X24910300Y-112855000D01*
G75*
G02*
X24986500Y-112778800I76200J0D01*
G01*
X25786500Y-112778800D01*
G75*
G02*
X25862700Y-112855000I0J-76200D01*
G01*
X25862700Y-113255000D01*
G75*
G02*
X25786500Y-113331200I-76200J0D01*
G01*
G37*
G36*
G01*
X25786500Y-112531200D02*
X24986500Y-112531200D01*
G75*
G02*
X24910300Y-112455000I0J76200D01*
G01*
X24910300Y-112055000D01*
G75*
G02*
X24986500Y-111978800I76200J0D01*
G01*
X25786500Y-111978800D01*
G75*
G02*
X25862700Y-112055000I0J-76200D01*
G01*
X25862700Y-112455000D01*
G75*
G02*
X25786500Y-112531200I-76200J0D01*
G01*
G37*
G36*
G01*
X25786500Y-111731200D02*
X24986500Y-111731200D01*
G75*
G02*
X24910300Y-111655000I0J76200D01*
G01*
X24910300Y-111255000D01*
G75*
G02*
X24986500Y-111178800I76200J0D01*
G01*
X25786500Y-111178800D01*
G75*
G02*
X25862700Y-111255000I0J-76200D01*
G01*
X25862700Y-111655000D01*
G75*
G02*
X25786500Y-111731200I-76200J0D01*
G01*
G37*
G36*
G01*
X25786500Y-110931200D02*
X24986500Y-110931200D01*
G75*
G02*
X24910300Y-110855000I0J76200D01*
G01*
X24910300Y-110455000D01*
G75*
G02*
X24986500Y-110378800I76200J0D01*
G01*
X25786500Y-110378800D01*
G75*
G02*
X25862700Y-110455000I0J-76200D01*
G01*
X25862700Y-110855000D01*
G75*
G02*
X25786500Y-110931200I-76200J0D01*
G01*
G37*
G36*
G01*
X25786500Y-110131200D02*
X24986500Y-110131200D01*
G75*
G02*
X24910300Y-110055000I0J76200D01*
G01*
X24910300Y-109655000D01*
G75*
G02*
X24986500Y-109578800I76200J0D01*
G01*
X25786500Y-109578800D01*
G75*
G02*
X25862700Y-109655000I0J-76200D01*
G01*
X25862700Y-110055000D01*
G75*
G02*
X25786500Y-110131200I-76200J0D01*
G01*
G37*
G36*
G01*
X25786500Y-109331200D02*
X24986500Y-109331200D01*
G75*
G02*
X24910300Y-109255000I0J76200D01*
G01*
X24910300Y-108855000D01*
G75*
G02*
X24986500Y-108778800I76200J0D01*
G01*
X25786500Y-108778800D01*
G75*
G02*
X25862700Y-108855000I0J-76200D01*
G01*
X25862700Y-109255000D01*
G75*
G02*
X25786500Y-109331200I-76200J0D01*
G01*
G37*
G36*
G01*
X25786500Y-108531200D02*
X24986500Y-108531200D01*
G75*
G02*
X24910300Y-108455000I0J76200D01*
G01*
X24910300Y-108055000D01*
G75*
G02*
X24986500Y-107978800I76200J0D01*
G01*
X25786500Y-107978800D01*
G75*
G02*
X25862700Y-108055000I0J-76200D01*
G01*
X25862700Y-108455000D01*
G75*
G02*
X25786500Y-108531200I-76200J0D01*
G01*
G37*
G36*
G01*
X25786500Y-107731200D02*
X24986500Y-107731200D01*
G75*
G02*
X24910300Y-107655000I0J76200D01*
G01*
X24910300Y-107255000D01*
G75*
G02*
X24986500Y-107178800I76200J0D01*
G01*
X25786500Y-107178800D01*
G75*
G02*
X25862700Y-107255000I0J-76200D01*
G01*
X25862700Y-107655000D01*
G75*
G02*
X25786500Y-107731200I-76200J0D01*
G01*
G37*
G36*
G01*
X25786500Y-106931200D02*
X24986500Y-106931200D01*
G75*
G02*
X24910300Y-106855000I0J76200D01*
G01*
X24910300Y-106455000D01*
G75*
G02*
X24986500Y-106378800I76200J0D01*
G01*
X25786500Y-106378800D01*
G75*
G02*
X25862700Y-106455000I0J-76200D01*
G01*
X25862700Y-106855000D01*
G75*
G02*
X25786500Y-106931200I-76200J0D01*
G01*
G37*
G36*
G01*
X25786500Y-106131200D02*
X24986500Y-106131200D01*
G75*
G02*
X24910300Y-106055000I0J76200D01*
G01*
X24910300Y-105655000D01*
G75*
G02*
X24986500Y-105578800I76200J0D01*
G01*
X25786500Y-105578800D01*
G75*
G02*
X25862700Y-105655000I0J-76200D01*
G01*
X25862700Y-106055000D01*
G75*
G02*
X25786500Y-106131200I-76200J0D01*
G01*
G37*
G36*
G01*
X25786500Y-105331200D02*
X24986500Y-105331200D01*
G75*
G02*
X24910300Y-105255000I0J76200D01*
G01*
X24910300Y-104855000D01*
G75*
G02*
X24986500Y-104778800I76200J0D01*
G01*
X25786500Y-104778800D01*
G75*
G02*
X25862700Y-104855000I0J-76200D01*
G01*
X25862700Y-105255000D01*
G75*
G02*
X25786500Y-105331200I-76200J0D01*
G01*
G37*
G36*
G01*
X26486500Y-104431200D02*
X26086500Y-104431200D01*
G75*
G02*
X26010300Y-104355000I0J76200D01*
G01*
X26010300Y-103555000D01*
G75*
G02*
X26086500Y-103478800I76200J0D01*
G01*
X26486500Y-103478800D01*
G75*
G02*
X26562700Y-103555000I0J-76200D01*
G01*
X26562700Y-104355000D01*
G75*
G02*
X26486500Y-104431200I-76200J0D01*
G01*
G37*
G36*
G01*
X27286500Y-104431200D02*
X26886500Y-104431200D01*
G75*
G02*
X26810300Y-104355000I0J76200D01*
G01*
X26810300Y-103555000D01*
G75*
G02*
X26886500Y-103478800I76200J0D01*
G01*
X27286500Y-103478800D01*
G75*
G02*
X27362700Y-103555000I0J-76200D01*
G01*
X27362700Y-104355000D01*
G75*
G02*
X27286500Y-104431200I-76200J0D01*
G01*
G37*
G36*
G01*
X28086500Y-104431200D02*
X27686500Y-104431200D01*
G75*
G02*
X27610300Y-104355000I0J76200D01*
G01*
X27610300Y-103555000D01*
G75*
G02*
X27686500Y-103478800I76200J0D01*
G01*
X28086500Y-103478800D01*
G75*
G02*
X28162700Y-103555000I0J-76200D01*
G01*
X28162700Y-104355000D01*
G75*
G02*
X28086500Y-104431200I-76200J0D01*
G01*
G37*
G36*
G01*
X28886500Y-104431200D02*
X28486500Y-104431200D01*
G75*
G02*
X28410300Y-104355000I0J76200D01*
G01*
X28410300Y-103555000D01*
G75*
G02*
X28486500Y-103478800I76200J0D01*
G01*
X28886500Y-103478800D01*
G75*
G02*
X28962700Y-103555000I0J-76200D01*
G01*
X28962700Y-104355000D01*
G75*
G02*
X28886500Y-104431200I-76200J0D01*
G01*
G37*
G36*
G01*
X29686500Y-104431200D02*
X29286500Y-104431200D01*
G75*
G02*
X29210300Y-104355000I0J76200D01*
G01*
X29210300Y-103555000D01*
G75*
G02*
X29286500Y-103478800I76200J0D01*
G01*
X29686500Y-103478800D01*
G75*
G02*
X29762700Y-103555000I0J-76200D01*
G01*
X29762700Y-104355000D01*
G75*
G02*
X29686500Y-104431200I-76200J0D01*
G01*
G37*
G36*
G01*
X30486500Y-104431200D02*
X30086500Y-104431200D01*
G75*
G02*
X30010300Y-104355000I0J76200D01*
G01*
X30010300Y-103555000D01*
G75*
G02*
X30086500Y-103478800I76200J0D01*
G01*
X30486500Y-103478800D01*
G75*
G02*
X30562700Y-103555000I0J-76200D01*
G01*
X30562700Y-104355000D01*
G75*
G02*
X30486500Y-104431200I-76200J0D01*
G01*
G37*
G36*
G01*
X31286500Y-104431200D02*
X30886500Y-104431200D01*
G75*
G02*
X30810300Y-104355000I0J76200D01*
G01*
X30810300Y-103555000D01*
G75*
G02*
X30886500Y-103478800I76200J0D01*
G01*
X31286500Y-103478800D01*
G75*
G02*
X31362700Y-103555000I0J-76200D01*
G01*
X31362700Y-104355000D01*
G75*
G02*
X31286500Y-104431200I-76200J0D01*
G01*
G37*
G36*
G01*
X32086500Y-104431200D02*
X31686500Y-104431200D01*
G75*
G02*
X31610300Y-104355000I0J76200D01*
G01*
X31610300Y-103555000D01*
G75*
G02*
X31686500Y-103478800I76200J0D01*
G01*
X32086500Y-103478800D01*
G75*
G02*
X32162700Y-103555000I0J-76200D01*
G01*
X32162700Y-104355000D01*
G75*
G02*
X32086500Y-104431200I-76200J0D01*
G01*
G37*
G36*
G01*
X32886500Y-104431200D02*
X32486500Y-104431200D01*
G75*
G02*
X32410300Y-104355000I0J76200D01*
G01*
X32410300Y-103555000D01*
G75*
G02*
X32486500Y-103478800I76200J0D01*
G01*
X32886500Y-103478800D01*
G75*
G02*
X32962700Y-103555000I0J-76200D01*
G01*
X32962700Y-104355000D01*
G75*
G02*
X32886500Y-104431200I-76200J0D01*
G01*
G37*
G36*
G01*
X33686500Y-104431200D02*
X33286500Y-104431200D01*
G75*
G02*
X33210300Y-104355000I0J76200D01*
G01*
X33210300Y-103555000D01*
G75*
G02*
X33286500Y-103478800I76200J0D01*
G01*
X33686500Y-103478800D01*
G75*
G02*
X33762700Y-103555000I0J-76200D01*
G01*
X33762700Y-104355000D01*
G75*
G02*
X33686500Y-104431200I-76200J0D01*
G01*
G37*
G36*
G01*
X34486500Y-104431200D02*
X34086500Y-104431200D01*
G75*
G02*
X34010300Y-104355000I0J76200D01*
G01*
X34010300Y-103555000D01*
G75*
G02*
X34086500Y-103478800I76200J0D01*
G01*
X34486500Y-103478800D01*
G75*
G02*
X34562700Y-103555000I0J-76200D01*
G01*
X34562700Y-104355000D01*
G75*
G02*
X34486500Y-104431200I-76200J0D01*
G01*
G37*
G36*
G01*
X35586500Y-105331200D02*
X34786500Y-105331200D01*
G75*
G02*
X34710300Y-105255000I0J76200D01*
G01*
X34710300Y-104855000D01*
G75*
G02*
X34786500Y-104778800I76200J0D01*
G01*
X35586500Y-104778800D01*
G75*
G02*
X35662700Y-104855000I0J-76200D01*
G01*
X35662700Y-105255000D01*
G75*
G02*
X35586500Y-105331200I-76200J0D01*
G01*
G37*
G36*
G01*
X35586500Y-106131200D02*
X34786500Y-106131200D01*
G75*
G02*
X34710300Y-106055000I0J76200D01*
G01*
X34710300Y-105655000D01*
G75*
G02*
X34786500Y-105578800I76200J0D01*
G01*
X35586500Y-105578800D01*
G75*
G02*
X35662700Y-105655000I0J-76200D01*
G01*
X35662700Y-106055000D01*
G75*
G02*
X35586500Y-106131200I-76200J0D01*
G01*
G37*
G36*
G01*
X35586500Y-106931200D02*
X34786500Y-106931200D01*
G75*
G02*
X34710300Y-106855000I0J76200D01*
G01*
X34710300Y-106455000D01*
G75*
G02*
X34786500Y-106378800I76200J0D01*
G01*
X35586500Y-106378800D01*
G75*
G02*
X35662700Y-106455000I0J-76200D01*
G01*
X35662700Y-106855000D01*
G75*
G02*
X35586500Y-106931200I-76200J0D01*
G01*
G37*
G36*
G01*
X35586500Y-107731200D02*
X34786500Y-107731200D01*
G75*
G02*
X34710300Y-107655000I0J76200D01*
G01*
X34710300Y-107255000D01*
G75*
G02*
X34786500Y-107178800I76200J0D01*
G01*
X35586500Y-107178800D01*
G75*
G02*
X35662700Y-107255000I0J-76200D01*
G01*
X35662700Y-107655000D01*
G75*
G02*
X35586500Y-107731200I-76200J0D01*
G01*
G37*
G36*
G01*
X35586500Y-108531200D02*
X34786500Y-108531200D01*
G75*
G02*
X34710300Y-108455000I0J76200D01*
G01*
X34710300Y-108055000D01*
G75*
G02*
X34786500Y-107978800I76200J0D01*
G01*
X35586500Y-107978800D01*
G75*
G02*
X35662700Y-108055000I0J-76200D01*
G01*
X35662700Y-108455000D01*
G75*
G02*
X35586500Y-108531200I-76200J0D01*
G01*
G37*
G36*
G01*
X35586500Y-109331200D02*
X34786500Y-109331200D01*
G75*
G02*
X34710300Y-109255000I0J76200D01*
G01*
X34710300Y-108855000D01*
G75*
G02*
X34786500Y-108778800I76200J0D01*
G01*
X35586500Y-108778800D01*
G75*
G02*
X35662700Y-108855000I0J-76200D01*
G01*
X35662700Y-109255000D01*
G75*
G02*
X35586500Y-109331200I-76200J0D01*
G01*
G37*
G36*
G01*
X35586500Y-110131200D02*
X34786500Y-110131200D01*
G75*
G02*
X34710300Y-110055000I0J76200D01*
G01*
X34710300Y-109655000D01*
G75*
G02*
X34786500Y-109578800I76200J0D01*
G01*
X35586500Y-109578800D01*
G75*
G02*
X35662700Y-109655000I0J-76200D01*
G01*
X35662700Y-110055000D01*
G75*
G02*
X35586500Y-110131200I-76200J0D01*
G01*
G37*
G36*
G01*
X35586500Y-110931200D02*
X34786500Y-110931200D01*
G75*
G02*
X34710300Y-110855000I0J76200D01*
G01*
X34710300Y-110455000D01*
G75*
G02*
X34786500Y-110378800I76200J0D01*
G01*
X35586500Y-110378800D01*
G75*
G02*
X35662700Y-110455000I0J-76200D01*
G01*
X35662700Y-110855000D01*
G75*
G02*
X35586500Y-110931200I-76200J0D01*
G01*
G37*
G36*
G01*
X35586500Y-111731200D02*
X34786500Y-111731200D01*
G75*
G02*
X34710300Y-111655000I0J76200D01*
G01*
X34710300Y-111255000D01*
G75*
G02*
X34786500Y-111178800I76200J0D01*
G01*
X35586500Y-111178800D01*
G75*
G02*
X35662700Y-111255000I0J-76200D01*
G01*
X35662700Y-111655000D01*
G75*
G02*
X35586500Y-111731200I-76200J0D01*
G01*
G37*
G36*
G01*
X35586500Y-112531200D02*
X34786500Y-112531200D01*
G75*
G02*
X34710300Y-112455000I0J76200D01*
G01*
X34710300Y-112055000D01*
G75*
G02*
X34786500Y-111978800I76200J0D01*
G01*
X35586500Y-111978800D01*
G75*
G02*
X35662700Y-112055000I0J-76200D01*
G01*
X35662700Y-112455000D01*
G75*
G02*
X35586500Y-112531200I-76200J0D01*
G01*
G37*
G36*
G01*
X35586500Y-113331200D02*
X34786500Y-113331200D01*
G75*
G02*
X34710300Y-113255000I0J76200D01*
G01*
X34710300Y-112855000D01*
G75*
G02*
X34786500Y-112778800I76200J0D01*
G01*
X35586500Y-112778800D01*
G75*
G02*
X35662700Y-112855000I0J-76200D01*
G01*
X35662700Y-113255000D01*
G75*
G02*
X35586500Y-113331200I-76200J0D01*
G01*
G37*
G36*
G01*
X35586500Y-114131200D02*
X34786500Y-114131200D01*
G75*
G02*
X34710300Y-114055000I0J76200D01*
G01*
X34710300Y-113655000D01*
G75*
G02*
X34786500Y-113578800I76200J0D01*
G01*
X35586500Y-113578800D01*
G75*
G02*
X35662700Y-113655000I0J-76200D01*
G01*
X35662700Y-114055000D01*
G75*
G02*
X35586500Y-114131200I-76200J0D01*
G01*
G37*
G36*
G01*
X35586500Y-114931200D02*
X34786500Y-114931200D01*
G75*
G02*
X34710300Y-114855000I0J76200D01*
G01*
X34710300Y-114455000D01*
G75*
G02*
X34786500Y-114378800I76200J0D01*
G01*
X35586500Y-114378800D01*
G75*
G02*
X35662700Y-114455000I0J-76200D01*
G01*
X35662700Y-114855000D01*
G75*
G02*
X35586500Y-114931200I-76200J0D01*
G01*
G37*
G36*
G01*
X34486500Y-116231200D02*
X34086500Y-116231200D01*
G75*
G02*
X34010300Y-116155000I0J76200D01*
G01*
X34010300Y-115355000D01*
G75*
G02*
X34086500Y-115278800I76200J0D01*
G01*
X34486500Y-115278800D01*
G75*
G02*
X34562700Y-115355000I0J-76200D01*
G01*
X34562700Y-116155000D01*
G75*
G02*
X34486500Y-116231200I-76200J0D01*
G01*
G37*
G36*
G01*
X33686500Y-116231200D02*
X33286500Y-116231200D01*
G75*
G02*
X33210300Y-116155000I0J76200D01*
G01*
X33210300Y-115355000D01*
G75*
G02*
X33286500Y-115278800I76200J0D01*
G01*
X33686500Y-115278800D01*
G75*
G02*
X33762700Y-115355000I0J-76200D01*
G01*
X33762700Y-116155000D01*
G75*
G02*
X33686500Y-116231200I-76200J0D01*
G01*
G37*
G36*
G01*
X32886500Y-116231200D02*
X32486500Y-116231200D01*
G75*
G02*
X32410300Y-116155000I0J76200D01*
G01*
X32410300Y-115355000D01*
G75*
G02*
X32486500Y-115278800I76200J0D01*
G01*
X32886500Y-115278800D01*
G75*
G02*
X32962700Y-115355000I0J-76200D01*
G01*
X32962700Y-116155000D01*
G75*
G02*
X32886500Y-116231200I-76200J0D01*
G01*
G37*
G36*
G01*
X32086500Y-116231200D02*
X31686500Y-116231200D01*
G75*
G02*
X31610300Y-116155000I0J76200D01*
G01*
X31610300Y-115355000D01*
G75*
G02*
X31686500Y-115278800I76200J0D01*
G01*
X32086500Y-115278800D01*
G75*
G02*
X32162700Y-115355000I0J-76200D01*
G01*
X32162700Y-116155000D01*
G75*
G02*
X32086500Y-116231200I-76200J0D01*
G01*
G37*
G36*
G01*
X31286500Y-116231200D02*
X30886500Y-116231200D01*
G75*
G02*
X30810300Y-116155000I0J76200D01*
G01*
X30810300Y-115355000D01*
G75*
G02*
X30886500Y-115278800I76200J0D01*
G01*
X31286500Y-115278800D01*
G75*
G02*
X31362700Y-115355000I0J-76200D01*
G01*
X31362700Y-116155000D01*
G75*
G02*
X31286500Y-116231200I-76200J0D01*
G01*
G37*
G36*
G01*
X30486500Y-116231200D02*
X30086500Y-116231200D01*
G75*
G02*
X30010300Y-116155000I0J76200D01*
G01*
X30010300Y-115355000D01*
G75*
G02*
X30086500Y-115278800I76200J0D01*
G01*
X30486500Y-115278800D01*
G75*
G02*
X30562700Y-115355000I0J-76200D01*
G01*
X30562700Y-116155000D01*
G75*
G02*
X30486500Y-116231200I-76200J0D01*
G01*
G37*
G36*
G01*
X29686500Y-116231200D02*
X29286500Y-116231200D01*
G75*
G02*
X29210300Y-116155000I0J76200D01*
G01*
X29210300Y-115355000D01*
G75*
G02*
X29286500Y-115278800I76200J0D01*
G01*
X29686500Y-115278800D01*
G75*
G02*
X29762700Y-115355000I0J-76200D01*
G01*
X29762700Y-116155000D01*
G75*
G02*
X29686500Y-116231200I-76200J0D01*
G01*
G37*
G36*
G01*
X28886500Y-116231200D02*
X28486500Y-116231200D01*
G75*
G02*
X28410300Y-116155000I0J76200D01*
G01*
X28410300Y-115355000D01*
G75*
G02*
X28486500Y-115278800I76200J0D01*
G01*
X28886500Y-115278800D01*
G75*
G02*
X28962700Y-115355000I0J-76200D01*
G01*
X28962700Y-116155000D01*
G75*
G02*
X28886500Y-116231200I-76200J0D01*
G01*
G37*
G36*
G01*
X28086500Y-116231200D02*
X27686500Y-116231200D01*
G75*
G02*
X27610300Y-116155000I0J76200D01*
G01*
X27610300Y-115355000D01*
G75*
G02*
X27686500Y-115278800I76200J0D01*
G01*
X28086500Y-115278800D01*
G75*
G02*
X28162700Y-115355000I0J-76200D01*
G01*
X28162700Y-116155000D01*
G75*
G02*
X28086500Y-116231200I-76200J0D01*
G01*
G37*
G36*
G01*
X27286500Y-116231200D02*
X26886500Y-116231200D01*
G75*
G02*
X26810300Y-116155000I0J76200D01*
G01*
X26810300Y-115355000D01*
G75*
G02*
X26886500Y-115278800I76200J0D01*
G01*
X27286500Y-115278800D01*
G75*
G02*
X27362700Y-115355000I0J-76200D01*
G01*
X27362700Y-116155000D01*
G75*
G02*
X27286500Y-116231200I-76200J0D01*
G01*
G37*
G36*
G01*
X26486500Y-116231200D02*
X26086500Y-116231200D01*
G75*
G02*
X26010300Y-116155000I0J76200D01*
G01*
X26010300Y-115355000D01*
G75*
G02*
X26086500Y-115278800I76200J0D01*
G01*
X26486500Y-115278800D01*
G75*
G02*
X26562700Y-115355000I0J-76200D01*
G01*
X26562700Y-116155000D01*
G75*
G02*
X26486500Y-116231200I-76200J0D01*
G01*
G37*
%TD*%
%TO.C,R20*%
G36*
G01*
X92396900Y-108425300D02*
X93023100Y-108425300D01*
G75*
G02*
X93261200Y-108663400I0J-238100D01*
G01*
X93261200Y-109139600D01*
G75*
G02*
X93023100Y-109377700I-238100J0D01*
G01*
X92396900Y-109377700D01*
G75*
G02*
X92158800Y-109139600I0J238100D01*
G01*
X92158800Y-108663400D01*
G75*
G02*
X92396900Y-108425300I238100J0D01*
G01*
G37*
G36*
G01*
X92396900Y-106775300D02*
X93023100Y-106775300D01*
G75*
G02*
X93261200Y-107013400I0J-238100D01*
G01*
X93261200Y-107489600D01*
G75*
G02*
X93023100Y-107727700I-238100J0D01*
G01*
X92396900Y-107727700D01*
G75*
G02*
X92158800Y-107489600I0J238100D01*
G01*
X92158800Y-107013400D01*
G75*
G02*
X92396900Y-106775300I238100J0D01*
G01*
G37*
%TD*%
%TO.C,R19*%
G36*
G01*
X90073800Y-98103100D02*
X90073800Y-97476900D01*
G75*
G02*
X90311900Y-97238800I238100J0D01*
G01*
X90788100Y-97238800D01*
G75*
G02*
X91026200Y-97476900I0J-238100D01*
G01*
X91026200Y-98103100D01*
G75*
G02*
X90788100Y-98341200I-238100J0D01*
G01*
X90311900Y-98341200D01*
G75*
G02*
X90073800Y-98103100I0J238100D01*
G01*
G37*
G36*
G01*
X88423800Y-98103100D02*
X88423800Y-97476900D01*
G75*
G02*
X88661900Y-97238800I238100J0D01*
G01*
X89138100Y-97238800D01*
G75*
G02*
X89376200Y-97476900I0J-238100D01*
G01*
X89376200Y-98103100D01*
G75*
G02*
X89138100Y-98341200I-238100J0D01*
G01*
X88661900Y-98341200D01*
G75*
G02*
X88423800Y-98103100I0J238100D01*
G01*
G37*
%TD*%
%TO.C,R18*%
G36*
G01*
X91435600Y-107728700D02*
X90809400Y-107728700D01*
G75*
G02*
X90571300Y-107490600I0J238100D01*
G01*
X90571300Y-107014400D01*
G75*
G02*
X90809400Y-106776300I238100J0D01*
G01*
X91435600Y-106776300D01*
G75*
G02*
X91673700Y-107014400I0J-238100D01*
G01*
X91673700Y-107490600D01*
G75*
G02*
X91435600Y-107728700I-238100J0D01*
G01*
G37*
G36*
G01*
X91435600Y-109378700D02*
X90809400Y-109378700D01*
G75*
G02*
X90571300Y-109140600I0J238100D01*
G01*
X90571300Y-108664400D01*
G75*
G02*
X90809400Y-108426300I238100J0D01*
G01*
X91435600Y-108426300D01*
G75*
G02*
X91673700Y-108664400I0J-238100D01*
G01*
X91673700Y-109140600D01*
G75*
G02*
X91435600Y-109378700I-238100J0D01*
G01*
G37*
%TD*%
%TO.C,R17*%
G36*
G01*
X92741300Y-106040600D02*
X92741300Y-105414400D01*
G75*
G02*
X92979400Y-105176300I238100J0D01*
G01*
X93455600Y-105176300D01*
G75*
G02*
X93693700Y-105414400I0J-238100D01*
G01*
X93693700Y-106040600D01*
G75*
G02*
X93455600Y-106278700I-238100J0D01*
G01*
X92979400Y-106278700D01*
G75*
G02*
X92741300Y-106040600I0J238100D01*
G01*
G37*
G36*
G01*
X91091300Y-106040600D02*
X91091300Y-105414400D01*
G75*
G02*
X91329400Y-105176300I238100J0D01*
G01*
X91805600Y-105176300D01*
G75*
G02*
X92043700Y-105414400I0J-238100D01*
G01*
X92043700Y-106040600D01*
G75*
G02*
X91805600Y-106278700I-238100J0D01*
G01*
X91329400Y-106278700D01*
G75*
G02*
X91091300Y-106040600I0J238100D01*
G01*
G37*
%TD*%
%TO.C,R14*%
G36*
G01*
X62860600Y-100934200D02*
X62234400Y-100934200D01*
G75*
G02*
X61996300Y-100696100I0J238100D01*
G01*
X61996300Y-100219900D01*
G75*
G02*
X62234400Y-99981800I238100J0D01*
G01*
X62860600Y-99981800D01*
G75*
G02*
X63098700Y-100219900I0J-238100D01*
G01*
X63098700Y-100696100D01*
G75*
G02*
X62860600Y-100934200I-238100J0D01*
G01*
G37*
G36*
G01*
X62860600Y-102584200D02*
X62234400Y-102584200D01*
G75*
G02*
X61996300Y-102346100I0J238100D01*
G01*
X61996300Y-101869900D01*
G75*
G02*
X62234400Y-101631800I238100J0D01*
G01*
X62860600Y-101631800D01*
G75*
G02*
X63098700Y-101869900I0J-238100D01*
G01*
X63098700Y-102346100D01*
G75*
G02*
X62860600Y-102584200I-238100J0D01*
G01*
G37*
%TD*%
%TO.C,R9*%
G36*
G01*
X26765200Y-119447900D02*
X26765200Y-120074100D01*
G75*
G02*
X26527100Y-120312200I-238100J0D01*
G01*
X26050900Y-120312200D01*
G75*
G02*
X25812800Y-120074100I0J238100D01*
G01*
X25812800Y-119447900D01*
G75*
G02*
X26050900Y-119209800I238100J0D01*
G01*
X26527100Y-119209800D01*
G75*
G02*
X26765200Y-119447900I0J-238100D01*
G01*
G37*
G36*
G01*
X28415200Y-119447900D02*
X28415200Y-120074100D01*
G75*
G02*
X28177100Y-120312200I-238100J0D01*
G01*
X27700900Y-120312200D01*
G75*
G02*
X27462800Y-120074100I0J238100D01*
G01*
X27462800Y-119447900D01*
G75*
G02*
X27700900Y-119209800I238100J0D01*
G01*
X28177100Y-119209800D01*
G75*
G02*
X28415200Y-119447900I0J-238100D01*
G01*
G37*
%TD*%
%TO.C,R8*%
G36*
G01*
X83661300Y-119375600D02*
X83661300Y-118749400D01*
G75*
G02*
X83899400Y-118511300I238100J0D01*
G01*
X84375600Y-118511300D01*
G75*
G02*
X84613700Y-118749400I0J-238100D01*
G01*
X84613700Y-119375600D01*
G75*
G02*
X84375600Y-119613700I-238100J0D01*
G01*
X83899400Y-119613700D01*
G75*
G02*
X83661300Y-119375600I0J238100D01*
G01*
G37*
G36*
G01*
X82011300Y-119375600D02*
X82011300Y-118749400D01*
G75*
G02*
X82249400Y-118511300I238100J0D01*
G01*
X82725600Y-118511300D01*
G75*
G02*
X82963700Y-118749400I0J-238100D01*
G01*
X82963700Y-119375600D01*
G75*
G02*
X82725600Y-119613700I-238100J0D01*
G01*
X82249400Y-119613700D01*
G75*
G02*
X82011300Y-119375600I0J238100D01*
G01*
G37*
%TD*%
%TO.C,Q2*%
G36*
G01*
X82785000Y-122346300D02*
X83585000Y-122346300D01*
G75*
G02*
X83661200Y-122422500I0J-76200D01*
G01*
X83661200Y-123322500D01*
G75*
G02*
X83585000Y-123398700I-76200J0D01*
G01*
X82785000Y-123398700D01*
G75*
G02*
X82708800Y-123322500I0J76200D01*
G01*
X82708800Y-122422500D01*
G75*
G02*
X82785000Y-122346300I76200J0D01*
G01*
G37*
G36*
G01*
X81835000Y-120346300D02*
X82635000Y-120346300D01*
G75*
G02*
X82711200Y-120422500I0J-76200D01*
G01*
X82711200Y-121322500D01*
G75*
G02*
X82635000Y-121398700I-76200J0D01*
G01*
X81835000Y-121398700D01*
G75*
G02*
X81758800Y-121322500I0J76200D01*
G01*
X81758800Y-120422500D01*
G75*
G02*
X81835000Y-120346300I76200J0D01*
G01*
G37*
G36*
G01*
X83735000Y-120346300D02*
X84535000Y-120346300D01*
G75*
G02*
X84611200Y-120422500I0J-76200D01*
G01*
X84611200Y-121322500D01*
G75*
G02*
X84535000Y-121398700I-76200J0D01*
G01*
X83735000Y-121398700D01*
G75*
G02*
X83658800Y-121322500I0J76200D01*
G01*
X83658800Y-120422500D01*
G75*
G02*
X83735000Y-120346300I76200J0D01*
G01*
G37*
%TD*%
%TO.C,L2*%
G36*
G01*
X87318700Y-106527500D02*
X87318700Y-107577500D01*
G75*
G02*
X87242500Y-107653700I-76200J0D01*
G01*
X84842500Y-107653700D01*
G75*
G02*
X84766300Y-107577500I0J76200D01*
G01*
X84766300Y-106527500D01*
G75*
G02*
X84842500Y-106451300I76200J0D01*
G01*
X87242500Y-106451300D01*
G75*
G02*
X87318700Y-106527500I0J-76200D01*
G01*
G37*
G36*
G01*
X87318700Y-108377500D02*
X87318700Y-109427500D01*
G75*
G02*
X87242500Y-109503700I-76200J0D01*
G01*
X84842500Y-109503700D01*
G75*
G02*
X84766300Y-109427500I0J76200D01*
G01*
X84766300Y-108377500D01*
G75*
G02*
X84842500Y-108301300I76200J0D01*
G01*
X87242500Y-108301300D01*
G75*
G02*
X87318700Y-108377500I0J-76200D01*
G01*
G37*
%TD*%
%TO.C,D2*%
G36*
G01*
X91375000Y-100450800D02*
X92775000Y-100450800D01*
G75*
G02*
X92851200Y-100527000I0J-76200D01*
G01*
X92851200Y-102927000D01*
G75*
G02*
X92775000Y-103003200I-76200J0D01*
G01*
X91375000Y-103003200D01*
G75*
G02*
X91298800Y-102927000I0J76200D01*
G01*
X91298800Y-100527000D01*
G75*
G02*
X91375000Y-100450800I76200J0D01*
G01*
G37*
G36*
G01*
X91375000Y-103550800D02*
X92775000Y-103550800D01*
G75*
G02*
X92851200Y-103627000I0J-76200D01*
G01*
X92851200Y-104527000D01*
G75*
G02*
X92775000Y-104603200I-76200J0D01*
G01*
X91375000Y-104603200D01*
G75*
G02*
X91298800Y-104527000I0J76200D01*
G01*
X91298800Y-103627000D01*
G75*
G02*
X91375000Y-103550800I76200J0D01*
G01*
G37*
%TD*%
%TO.C,D1*%
G36*
G01*
X96235000Y-118673700D02*
X95535000Y-118673700D01*
G75*
G02*
X95458800Y-118597500I0J76200D01*
G01*
X95458800Y-117997500D01*
G75*
G02*
X95535000Y-117921300I76200J0D01*
G01*
X96235000Y-117921300D01*
G75*
G02*
X96311200Y-117997500I0J-76200D01*
G01*
X96311200Y-118597500D01*
G75*
G02*
X96235000Y-118673700I-76200J0D01*
G01*
G37*
G36*
G01*
X96235000Y-120073700D02*
X95535000Y-120073700D01*
G75*
G02*
X95458800Y-119997500I0J76200D01*
G01*
X95458800Y-119397500D01*
G75*
G02*
X95535000Y-119321300I76200J0D01*
G01*
X96235000Y-119321300D01*
G75*
G02*
X96311200Y-119397500I0J-76200D01*
G01*
X96311200Y-119997500D01*
G75*
G02*
X96235000Y-120073700I-76200J0D01*
G01*
G37*
%TD*%
%TO.C,C13*%
G36*
G01*
X89246900Y-108338800D02*
X89823100Y-108338800D01*
G75*
G02*
X90086200Y-108601900I0J-263100D01*
G01*
X90086200Y-109128100D01*
G75*
G02*
X89823100Y-109391200I-263100J0D01*
G01*
X89246900Y-109391200D01*
G75*
G02*
X88983800Y-109128100I0J263100D01*
G01*
X88983800Y-108601900D01*
G75*
G02*
X89246900Y-108338800I263100J0D01*
G01*
G37*
G36*
G01*
X89246900Y-106788800D02*
X89823100Y-106788800D01*
G75*
G02*
X90086200Y-107051900I0J-263100D01*
G01*
X90086200Y-107578100D01*
G75*
G02*
X89823100Y-107841200I-263100J0D01*
G01*
X89246900Y-107841200D01*
G75*
G02*
X88983800Y-107578100I0J263100D01*
G01*
X88983800Y-107051900D01*
G75*
G02*
X89246900Y-106788800I263100J0D01*
G01*
G37*
%TD*%
%TO.C,C9*%
G36*
G01*
X81973071Y-106603700D02*
X80586929Y-106603700D01*
G75*
G02*
X80303800Y-106320571I0J283129D01*
G01*
X80303800Y-105584429D01*
G75*
G02*
X80586929Y-105301300I283129J0D01*
G01*
X81973071Y-105301300D01*
G75*
G02*
X82256200Y-105584429I0J-283129D01*
G01*
X82256200Y-106320571D01*
G75*
G02*
X81973071Y-106603700I-283129J0D01*
G01*
G37*
G36*
G01*
X81973071Y-109553700D02*
X80586929Y-109553700D01*
G75*
G02*
X80303800Y-109270571I0J283129D01*
G01*
X80303800Y-108534429D01*
G75*
G02*
X80586929Y-108251300I283129J0D01*
G01*
X81973071Y-108251300D01*
G75*
G02*
X82256200Y-108534429I0J-283129D01*
G01*
X82256200Y-109270571D01*
G75*
G02*
X81973071Y-109553700I-283129J0D01*
G01*
G37*
%TD*%
%TO.C,C8*%
G36*
G01*
X83849400Y-100756300D02*
X84425600Y-100756300D01*
G75*
G02*
X84688700Y-101019400I0J-263100D01*
G01*
X84688700Y-101545600D01*
G75*
G02*
X84425600Y-101808700I-263100J0D01*
G01*
X83849400Y-101808700D01*
G75*
G02*
X83586300Y-101545600I0J263100D01*
G01*
X83586300Y-101019400D01*
G75*
G02*
X83849400Y-100756300I263100J0D01*
G01*
G37*
G36*
G01*
X83849400Y-99206300D02*
X84425600Y-99206300D01*
G75*
G02*
X84688700Y-99469400I0J-263100D01*
G01*
X84688700Y-99995600D01*
G75*
G02*
X84425600Y-100258700I-263100J0D01*
G01*
X83849400Y-100258700D01*
G75*
G02*
X83586300Y-99995600I0J263100D01*
G01*
X83586300Y-99469400D01*
G75*
G02*
X83849400Y-99206300I263100J0D01*
G01*
G37*
%TD*%
%TO.C,C7*%
G36*
G01*
X85013700Y-96779429D02*
X85013700Y-98165571D01*
G75*
G02*
X84730571Y-98448700I-283129J0D01*
G01*
X83994429Y-98448700D01*
G75*
G02*
X83711300Y-98165571I0J283129D01*
G01*
X83711300Y-96779429D01*
G75*
G02*
X83994429Y-96496300I283129J0D01*
G01*
X84730571Y-96496300D01*
G75*
G02*
X85013700Y-96779429I0J-283129D01*
G01*
G37*
G36*
G01*
X87963700Y-96779429D02*
X87963700Y-98165571D01*
G75*
G02*
X87680571Y-98448700I-283129J0D01*
G01*
X86944429Y-98448700D01*
G75*
G02*
X86661300Y-98165571I0J283129D01*
G01*
X86661300Y-96779429D01*
G75*
G02*
X86944429Y-96496300I283129J0D01*
G01*
X87680571Y-96496300D01*
G75*
G02*
X87963700Y-96779429I0J-283129D01*
G01*
G37*
%TD*%
%TO.C,C3*%
G36*
G01*
X27312800Y-121700100D02*
X27312800Y-121123900D01*
G75*
G02*
X27575900Y-120860800I263100J0D01*
G01*
X28102100Y-120860800D01*
G75*
G02*
X28365200Y-121123900I0J-263100D01*
G01*
X28365200Y-121700100D01*
G75*
G02*
X28102100Y-121963200I-263100J0D01*
G01*
X27575900Y-121963200D01*
G75*
G02*
X27312800Y-121700100I0J263100D01*
G01*
G37*
G36*
G01*
X25762800Y-121700100D02*
X25762800Y-121123900D01*
G75*
G02*
X26025900Y-120860800I263100J0D01*
G01*
X26552100Y-120860800D01*
G75*
G02*
X26815200Y-121123900I0J-263100D01*
G01*
X26815200Y-121700100D01*
G75*
G02*
X26552100Y-121963200I-263100J0D01*
G01*
X26025900Y-121963200D01*
G75*
G02*
X25762800Y-121700100I0J263100D01*
G01*
G37*
%TD*%
%TO.C,C2*%
G36*
G01*
X61248100Y-101033700D02*
X60671900Y-101033700D01*
G75*
G02*
X60408800Y-100770600I0J263100D01*
G01*
X60408800Y-100244400D01*
G75*
G02*
X60671900Y-99981300I263100J0D01*
G01*
X61248100Y-99981300D01*
G75*
G02*
X61511200Y-100244400I0J-263100D01*
G01*
X61511200Y-100770600D01*
G75*
G02*
X61248100Y-101033700I-263100J0D01*
G01*
G37*
G36*
G01*
X61248100Y-102583700D02*
X60671900Y-102583700D01*
G75*
G02*
X60408800Y-102320600I0J263100D01*
G01*
X60408800Y-101794400D01*
G75*
G02*
X60671900Y-101531300I263100J0D01*
G01*
X61248100Y-101531300D01*
G75*
G02*
X61511200Y-101794400I0J-263100D01*
G01*
X61511200Y-102320600D01*
G75*
G02*
X61248100Y-102583700I-263100J0D01*
G01*
G37*
%TD*%
%TO.C,C1*%
G36*
G01*
X26916200Y-117821900D02*
X26916200Y-118398100D01*
G75*
G02*
X26653100Y-118661200I-263100J0D01*
G01*
X26126900Y-118661200D01*
G75*
G02*
X25863800Y-118398100I0J263100D01*
G01*
X25863800Y-117821900D01*
G75*
G02*
X26126900Y-117558800I263100J0D01*
G01*
X26653100Y-117558800D01*
G75*
G02*
X26916200Y-117821900I0J-263100D01*
G01*
G37*
G36*
G01*
X28466200Y-117821900D02*
X28466200Y-118398100D01*
G75*
G02*
X28203100Y-118661200I-263100J0D01*
G01*
X27676900Y-118661200D01*
G75*
G02*
X27413800Y-118398100I0J263100D01*
G01*
X27413800Y-117821900D01*
G75*
G02*
X27676900Y-117558800I263100J0D01*
G01*
X28203100Y-117558800D01*
G75*
G02*
X28466200Y-117821900I0J-263100D01*
G01*
G37*
%TD*%
M02*
