M48
; DRILL file {KiCad (5.1.8)-1} date 04/07/22 10:59:11
; FORMAT={-:-/ absolute / inch / decimal}
; #@! TF.CreationDate,2022-04-07T10:59:11+02:00
; #@! TF.GenerationSoftware,Kicad,Pcbnew,(5.1.8)-1
FMAT,2
INCH
T1C0.0118
T2C0.0157
T3C0.0276
T4C0.0300
T5C0.0394
T6C0.0550
T7C0.0984
T8C0.1181
%
G90
G05
T1
X1.0Y-4.65
X1.0Y-4.715
X1.0125Y-4.05
X1.0375Y-4.1375
X1.0375Y-4.175
X1.0375Y-4.2125
X1.0375Y-4.25
X1.0375Y-4.5125
X1.05Y-4.05
X1.075Y-4.1375
X1.075Y-4.175
X1.075Y-4.5125
X1.0875Y-4.05
X1.1125Y-4.1375
X1.1125Y-4.175
X1.1125Y-4.5125
X1.125Y-4.05
X1.1375Y-4.65
X1.15Y-4.1375
X1.15Y-4.175
X1.15Y-4.5125
X1.1875Y-4.1375
X1.1875Y-4.175
X1.1875Y-4.475
X1.1875Y-4.5125
X1.2Y-4.77
X1.225Y-4.1375
X1.225Y-4.175
X1.225Y-4.475
X1.225Y-4.5125
X1.2554Y-4.6129
X1.2625Y-4.1375
X1.2625Y-4.175
X1.2625Y-4.475
X1.2625Y-4.5125
X1.2875Y-4.8425
X1.3Y-4.1375
X1.3Y-4.175
X1.3Y-4.475
X1.3Y-4.5125
X1.3375Y-4.1375
X1.3375Y-4.175
X1.3375Y-4.2125
X1.3375Y-4.25
X1.3375Y-4.2875
X1.3375Y-4.325
X1.3375Y-4.3625
X1.3375Y-4.4
X1.3375Y-4.4375
X1.3375Y-4.475
X1.3375Y-4.5125
X1.3875Y-4.05
X1.45Y-3.8857
X1.4625Y-4.725
X1.4875Y-3.95
X1.8Y-4.2625
X1.8Y-4.325
X1.801Y-4.3835
X2.225Y-4.8425
X2.3625Y-3.9575
X2.3625Y-4.0175
X2.3625Y-4.1
X2.3625Y-4.35
X2.375Y-4.7375
X2.3875Y-4.3125
X2.4375Y-4.125
X2.4375Y-4.1625
X2.4375Y-4.2
X2.4375Y-4.45
X2.4375Y-4.4875
X2.4375Y-4.525
X2.45Y-4.3125
X2.475Y-4.125
X2.475Y-4.1625
X2.475Y-4.2
X2.475Y-4.45
X2.475Y-4.4875
X2.475Y-4.525
X2.475Y-4.65
X2.5016Y-4.3612
X2.5021Y-4.2979
X2.5125Y-4.125
X2.5125Y-4.1625
X2.5125Y-4.2
X2.5125Y-4.45
X2.5125Y-4.4875
X2.5125Y-4.525
X2.555Y-4.2875
X2.575Y-4.2375
X2.575Y-4.3625
X2.625Y-4.15
X2.6625Y-4.3875
X2.7125Y-4.2
X2.7375Y-4.4125
X2.825Y-4.0625
X2.825Y-4.1
X2.8625Y-4.0625
X2.8625Y-4.1
X2.9Y-4.3625
X2.9Y-4.5174
X2.971Y-4.2
X2.971Y-4.2375
X2.971Y-4.275
X3.0075Y-4.0875
X3.0075Y-4.2
X3.0075Y-4.2375
X3.0075Y-4.275
X3.044Y-4.2
X3.044Y-4.2375
X3.044Y-4.275
X3.075Y-4.05
X3.1Y-4.5625
X3.1775Y-3.7875
X3.1775Y-3.835
X3.1775Y-3.8825
X3.1775Y-3.93
X3.1775Y-3.9775
X3.1775Y-4.025
X3.2Y-4.25
X3.2Y-4.8
X3.2225Y-3.7875
X3.2225Y-3.835
X3.2225Y-3.8825
X3.2225Y-3.93
X3.2225Y-3.9775
X3.2225Y-4.025
X3.2375Y-4.25
X3.2675Y-3.7875
X3.2675Y-3.835
X3.275Y-4.25
X3.3325Y-4.2875
X3.4125Y-4.02
X3.4125Y-4.0575
X3.45Y-4.02
X3.45Y-4.0575
X3.4875Y-4.02
X3.4875Y-4.0575
X3.525Y-3.9825
X3.525Y-4.02
X3.525Y-4.0575
X3.5625Y-3.9825
X3.5625Y-4.02
X3.5625Y-4.0575
X3.6175Y-4.255
X3.6975Y-4.1625
X3.7625Y-3.8
X3.7625Y-3.8375
X3.8Y-3.8
X3.8Y-3.8375
T2
X1.5375Y-4.13
X2.8125Y-4.775
X2.8177Y-4.4073
X2.825Y-4.55
X3.175Y-4.4375
T3
X1.15Y-3.875
X1.15Y-3.925
X1.2Y-3.875
X1.2Y-3.925
X1.25Y-3.875
X1.25Y-3.925
T4
X3.55Y-4.6
X3.55Y-4.7575
T5
X2.6Y-4.6625
X2.7Y-4.6625
X2.8Y-4.6625
X2.9Y-4.6625
X2.6Y-3.9875
X2.7Y-3.9875
X2.8Y-3.9875
X2.9Y-3.9875
T6
X3.9Y-3.925
X3.9Y-4.125
X3.9Y-4.325
X3.9Y-4.525
T7
X1.975Y-4.0488
X1.975Y-4.6
T8
X4.2Y-4.8
T0
M30
